<?xml version="1.0" encoding="UTF-8" standalone="no"?>
<!DOCTYPE svg PUBLIC "-//W3C//DTD SVG 1.1//EN" "http://www.w3.org/Graphics/SVG/1.1/DTD/svg11.dtd">
<svg width="100%" height="100%" viewBox="0 0 1600 1300" version="1.1" xmlns="http://www.w3.org/2000/svg" xmlns:xlink="http://www.w3.org/1999/xlink" xml:space="preserve" xmlns:serif="http://www.serif.com/" style="fill-rule:evenodd;clip-rule:evenodd;stroke-linejoin:round;stroke-miterlimit:1.41421;">
    <g id="Group" transform="matrix(1,0,0,1,115,205.5)">
        <g transform="matrix(1.15898,0,0,1.07459,-538.282,-584.063)">
            <g id="M">
                <path d="M627.691,770.841C626.883,767.204 625.67,763.971 624.862,760.334C624.458,758.717 624.054,757.101 623.65,755.888C621.225,751.847 620.821,746.594 618.396,742.553C617.588,738.915 615.971,735.683 614.759,732.45C611.93,724.771 608.697,717.497 605.869,709.819C605.869,709.415 605.464,709.011 605.464,708.607C604.252,706.586 603.444,704.97 602.636,702.545C601.019,700.12 598.999,696.887 597.786,694.059C596.17,690.826 595.362,687.189 593.745,684.36C592.129,681.127 592.533,677.086 590.916,674.257C590.108,673.449 589.704,672.64 588.896,671.428C588.492,669.812 587.683,668.599 588.492,666.983C588.492,666.579 588.492,666.175 588.492,665.771C588.896,665.366 589.3,664.962 590.108,664.558C592.129,663.346 593.745,661.729 595.766,660.517C595.362,659.709 595.362,658.901 595.362,658.901C596.574,656.476 597.786,654.051 598.999,651.626C599.403,650.818 600.211,650.414 600.615,649.606C600.615,649.202 601.019,649.202 601.019,649.202L601.423,649.202C601.423,648.394 601.827,647.989 602.232,647.585C603.04,646.777 604.252,645.565 605.06,644.352C605.06,644.352 604.656,643.948 604.252,643.948C604.656,643.544 605.06,642.736 605.06,641.928C605.464,641.928 605.464,642.332 605.464,642.332C606.273,641.928 607.081,641.524 607.889,641.119C609.101,637.887 610.314,635.058 611.526,631.825C611.93,631.017 612.739,630.612 613.951,629.804C613.951,628.996 613.951,628.188 613.951,626.975C615.567,624.147 617.184,620.51 620.013,617.681C620.821,617.681 621.225,618.085 622.033,618.085C621.629,616.468 621.629,615.256 621.225,614.044C622.033,613.64 622.437,613.64 623.246,613.235C622.841,612.427 622.841,612.023 622.841,611.215C622.841,610.811 623.246,610.407 623.246,610.407C624.862,608.386 626.478,606.365 626.478,603.537L626.478,603.133C625.67,603.133 625.266,603.537 624.458,603.537C624.054,601.516 626.478,600.708 626.883,599.091C626.883,598.283 626.478,597.071 626.478,596.263C626.883,595.454 627.287,594.646 627.691,593.838C627.287,591.817 626.074,590.201 626.478,588.18C625.67,587.776 624.862,587.372 623.65,587.372C624.054,585.756 624.458,584.543 624.862,583.331C624.458,582.927 623.65,582.927 623.246,582.523C622.437,579.29 622.033,575.653 620.013,572.824C619.204,572.42 617.992,572.016 617.588,571.612C616.78,568.783 616.376,566.358 615.971,563.933C615.567,563.529 614.759,563.125 614.355,562.721C614.759,561.509 614.759,560.7 614.759,559.892C614.355,559.488 613.547,559.084 613.547,558.68C612.739,557.467 611.93,555.851 611.122,555.043C611.526,554.235 611.526,554.235 611.526,553.83C610.314,553.022 609.101,552.618 607.889,552.214C608.293,549.385 605.464,548.981 605.06,546.96C603.848,547.769 602.232,548.577 600.615,547.769C598.999,546.556 597.786,545.748 596.574,544.132C597.382,543.728 597.786,543.323 598.594,542.515C597.382,542.111 596.574,541.707 595.362,541.303C593.745,542.111 592.533,542.919 590.916,543.323C590.916,543.728 590.512,544.536 590.108,544.94C589.704,544.536 588.896,544.536 588.087,544.132C586.067,543.728 584.046,543.728 582.026,542.919C579.601,541.707 577.176,541.303 574.752,541.303C574.348,541.303 573.943,541.303 573.135,540.899C572.327,540.899 571.519,540.899 570.71,540.495C569.094,540.09 567.882,539.686 566.669,539.686C566.265,539.282 566.265,539.282 565.861,539.282C564.649,538.878 563.032,538.474 561.82,538.474C558.991,537.666 556.162,536.453 552.929,536.858C550.505,534.837 547.676,535.645 544.847,535.241C544.443,535.241 544.039,535.241 544.039,535.241C542.422,534.029 540.806,534.433 539.189,534.433C533.128,534.029 527.066,534.433 521.004,533.625C518.58,533.625 516.155,533.625 514.538,534.837C507.668,533.625 501.607,535.645 495.545,536.858C494.333,536.453 493.12,536.453 491.908,536.049C491.504,536.453 491.504,536.858 491.504,536.858C488.271,538.07 485.038,538.878 481.805,539.686C478.168,540.899 475.339,542.919 472.51,544.132C471.298,546.556 470.49,548.577 469.682,550.193C467.661,551.406 465.64,552.618 464.024,553.83C464.024,554.639 464.024,555.043 464.024,555.851C464.428,559.084 464.832,562.317 465.236,565.55C465.236,568.379 465.236,571.207 465.64,574.036C466.044,575.653 466.044,577.269 466.044,578.886C465.64,580.502 465.64,582.523 466.044,583.735C466.449,585.351 466.449,586.564 466.449,588.18C466.449,589.797 466.449,591.413 466.449,593.434C466.449,597.879 468.469,602.324 468.065,606.77C468.065,609.598 468.469,612.023 468.873,614.852C468.873,618.893 468.873,622.934 468.873,626.975C469.277,627.38 469.682,627.784 470.086,628.188C469.682,628.996 469.277,630.208 469.277,631.017C469.277,631.825 470.086,633.037 470.086,633.845C468.873,636.27 470.086,638.291 470.894,639.907C469.682,644.352 470.894,648.798 470.49,652.839C471.702,654.051 472.914,653.243 474.127,653.243L474.127,653.647C474.127,654.859 474.531,656.072 474.531,657.284C473.723,657.284 473.319,657.284 472.51,657.284L472.914,657.284L472.51,657.284C471.702,657.688 471.298,658.092 469.682,658.496C469.682,662.538 469.682,666.579 469.682,670.216C471.298,670.62 470.894,671.024 471.298,671.428C470.894,672.236 470.49,673.449 470.086,674.257C470.49,675.469 470.49,676.278 470.894,677.49C471.702,677.086 472.51,676.682 473.319,676.682C473.319,677.894 472.914,679.106 472.914,680.319C472.914,680.723 472.914,681.531 472.914,681.935C472.914,681.531 472.51,681.127 472.51,681.127C471.298,681.935 471.298,682.339 472.51,683.148L472.914,682.743C472.914,687.189 472.914,691.634 473.723,696.079C473.723,699.716 473.723,703.353 473.319,706.99C473.319,707.394 473.319,707.394 472.914,707.799C473.319,707.799 473.319,708.203 473.319,708.203C473.319,709.011 472.914,709.819 472.914,710.627C472.51,711.031 472.51,711.031 472.106,711.436C471.702,711.84 470.894,712.648 470.49,713.052C470.49,716.285 470.49,719.518 470.49,723.155C470.49,726.388 470.894,729.621 470.894,732.854C471.298,732.854 471.298,732.854 471.298,732.45C470.894,734.47 470.894,736.087 470.894,738.107C472.106,738.511 472.106,739.32 472.51,740.532C472.51,740.936 472.51,741.744 472.51,742.148C471.298,742.148 470.894,742.148 470.086,742.148C469.682,743.361 469.682,744.169 469.277,745.381C469.277,747.402 469.277,749.018 468.873,751.039C468.873,753.464 468.469,755.888 468.469,758.313C468.065,761.546 468.065,764.779 467.661,768.012C467.257,770.841 467.257,773.265 467.661,775.69C468.469,778.115 468.873,780.539 469.277,782.56C470.086,785.793 470.49,789.026 470.894,792.663C473.723,793.067 476.147,793.875 478.572,794.279C478.572,794.683 478.976,794.279 479.38,794.279C480.593,793.875 481.805,793.875 483.017,793.471C484.23,793.875 485.442,794.683 487.059,794.683C489.887,795.088 493.12,794.683 496.353,795.896C496.353,795.896 496.757,795.896 497.161,795.896C501.607,795.896 506.052,795.896 510.497,795.088C511.305,795.088 512.114,795.088 513.326,795.088C515.751,795.492 518.175,795.088 520.196,793.471C520.6,792.259 520.6,791.046 521.004,789.834C521.812,787.409 521.812,784.985 521.408,782.156C521.004,780.944 521.408,779.731 521.408,778.115C521.408,776.094 521.408,774.074 521.408,772.053C521.408,769.628 521.004,766.799 521.004,763.971C521.004,759.121 521.004,753.868 520.196,749.018C519.388,744.573 519.792,740.532 518.984,736.087C517.771,730.429 518.175,724.771 521.004,719.922C521.004,719.518 521.004,719.114 521.004,718.71C520.6,717.901 520.196,717.093 520.196,716.285C520.6,713.456 520.6,711.031 521.004,708.607C522.621,707.799 524.237,707.394 526.258,706.182C524.237,705.778 523.429,705.778 522.217,705.374C521.408,703.757 521.408,703.757 521.812,702.141C523.429,702.141 524.641,702.545 525.854,702.949C526.258,703.757 526.662,704.566 527.066,705.778C529.087,705.778 530.703,705.374 532.319,705.374C532.319,703.353 533.532,702.545 534.744,702.141C535.957,702.545 537.169,702.949 538.381,703.353C538.785,702.141 539.189,700.929 539.594,699.716C540.806,699.312 542.018,698.908 543.231,698.504C544.039,699.312 544.847,700.12 545.251,700.524C546.868,700.929 548.08,700.929 549.292,701.333C550.909,700.929 552.525,700.524 554.142,699.716C554.142,700.12 554.546,700.929 554.546,701.333C557.779,710.223 561.416,718.71 565.861,727.196C569.094,732.854 571.923,738.915 573.943,744.977C575.156,748.21 576.368,751.039 577.58,754.272C577.985,755.888 578.793,757.909 579.197,759.525C579.601,760.334 580.005,761.142 580.005,761.95C581.218,765.183 582.834,768.012 583.642,771.245C585.259,775.69 586.471,780.135 588.087,784.176C590.108,785.793 592.129,787.409 593.745,789.026C595.766,789.026 597.382,789.43 599.403,789.834C613.143,784.985 613.143,784.985 615.971,782.964C620.013,780.944 622.841,779.327 625.67,778.115C626.478,776.902 627.287,775.69 628.095,774.478C627.691,773.265 627.691,772.053 627.691,770.841ZM562.628,576.461C562.224,577.673 562.224,578.481 561.82,579.29C561.012,578.886 560.608,578.886 559.799,578.886C560.608,577.673 561.012,576.461 562.628,576.461ZM557.375,577.673C557.375,577.673 557.375,578.481 557.375,579.29C556.162,578.481 555.354,577.673 554.546,577.269C555.758,576.057 556.566,576.461 557.375,577.673ZM548.08,574.036C548.484,574.036 549.292,574.036 549.696,574.036C548.484,574.44 547.272,574.44 546.464,574.036C546.868,574.036 547.676,574.036 548.08,574.036ZM559.395,575.653C559.395,576.057 559.395,576.057 558.991,576.057L558.587,575.653C558.991,575.653 558.991,575.653 559.395,575.653ZM523.025,651.222C522.621,650.01 521.812,648.394 521.408,646.777C520.6,644.352 520.6,641.928 520.6,639.503C520.6,633.845 520.6,628.188 520.6,622.53C520.6,620.51 520.6,618.489 520.196,616.873C520.196,611.619 519.792,606.77 519.388,601.92C519.388,601.516 519.388,601.112 519.388,601.112C520.6,597.879 519.388,594.646 518.984,591.413C518.58,588.584 518.175,585.756 518.58,582.927C520.6,581.31 522.621,580.502 525.045,580.098C528.278,579.694 531.915,578.886 535.552,578.886C540.402,578.481 545.251,578.481 550.101,579.29C551.313,579.694 552.525,580.098 553.738,580.098C557.779,579.694 561.012,581.31 563.841,584.139C565.457,584.543 567.073,584.947 568.69,585.351C570.71,586.564 571.923,588.584 572.731,591.009C572.327,591.413 571.519,591.413 570.71,592.221C571.519,592.626 571.923,593.03 572.731,593.434C572.731,594.242 573.135,595.454 573.539,596.667C573.135,597.475 572.731,598.687 572.327,599.9C572.731,603.133 572.731,606.365 571.923,609.598C571.519,612.023 569.094,615.256 567.478,617.277C566.265,618.893 565.053,620.914 564.245,622.53C562.628,624.955 561.416,627.784 559.799,629.804C558.587,631.825 556.566,633.845 554.546,635.462C551.717,638.291 548.888,640.715 546.059,643.544C545.251,644.352 544.039,645.161 543.231,645.969C542.826,645.969 542.018,646.373 541.614,646.373C536.361,647.585 531.511,648.798 527.066,651.626C526.662,652.031 526.258,652.031 525.854,652.435C524.641,652.435 523.833,652.031 523.025,651.222ZM539.189,683.956C539.189,683.148 539.189,682.743 539.189,682.339C540.806,681.531 542.422,681.531 544.039,681.531C543.231,682.339 542.422,682.743 541.614,683.148C540.806,683.552 539.998,683.552 539.189,683.956ZM547.676,687.593C546.464,687.997 545.655,687.997 544.847,687.997C545.655,687.593 546.059,687.189 546.868,686.785C546.868,687.189 547.272,687.593 547.676,687.593ZM545.251,684.764L545.655,685.168C544.847,685.572 544.039,685.976 542.826,686.38C542.826,686.785 542.826,686.785 542.422,687.189L542.422,686.785C541.614,687.593 541.21,687.997 540.806,688.401C539.998,688.805 539.594,689.209 539.189,689.209C539.189,688.401 539.189,687.593 538.785,687.593C538.381,687.593 538.381,687.593 537.573,687.593C539.594,686.38 541.21,685.572 543.231,684.764C544.039,684.764 544.847,684.36 545.251,684.764ZM593.745,650.414C593.341,650.01 592.937,649.606 592.533,649.202C594.149,647.585 595.362,646.373 596.978,644.756C597.382,645.161 597.786,645.161 598.19,645.565C598.19,646.373 598.19,647.585 598.19,648.394C598.594,648.394 598.999,648.798 599.403,648.798L599.403,649.202C598.594,649.202 597.786,649.202 596.978,649.202C595.766,649.606 594.957,650.01 593.745,650.414ZM620.417,607.174C620.417,605.961 620.417,605.557 620.821,604.345C621.629,604.749 622.033,604.749 622.437,604.749C622.437,606.365 622.033,606.77 620.417,607.174ZM623.65,592.221C623.65,593.03 624.054,593.838 624.054,594.646C624.054,594.646 623.65,594.646 623.246,594.646C623.246,594.242 622.841,593.838 622.437,593.434C622.841,593.03 622.841,592.626 623.65,592.221ZM607.889,582.927C607.889,583.331 607.889,583.735 607.889,584.139L607.485,584.139C607.485,583.735 607.485,583.331 607.081,582.927C607.485,582.927 607.889,582.927 607.889,582.927ZM604.656,564.337C604.252,564.337 603.444,564.337 602.636,563.933C603.848,562.721 603.848,562.721 604.656,564.337ZM548.08,538.474L548.08,538.07L548.08,538.474ZM547.272,537.666L547.676,537.666C547.272,537.666 547.272,537.666 546.868,537.666L547.272,537.666ZM473.319,619.701C473.319,620.105 473.319,620.51 473.319,620.51C473.319,620.914 473.319,620.914 472.914,620.914C472.914,620.51 472.51,620.105 472.51,620.105C472.51,619.701 472.914,619.701 473.319,619.701ZM470.49,586.968C470.086,585.351 470.086,584.543 471.702,584.139C472.106,585.351 472.106,586.16 472.106,587.372C471.298,586.968 470.894,586.968 470.49,586.968ZM471.702,625.359C472.106,624.551 472.51,623.742 472.914,623.338C473.319,623.338 473.319,623.338 473.723,623.742C473.723,624.955 473.723,626.571 473.319,627.784L473.319,628.188C472.914,626.975 472.106,626.167 471.702,625.359ZM472.914,648.394C472.914,647.585 473.319,647.181 473.319,646.373C473.319,645.969 472.914,645.161 472.51,644.756C473.319,643.948 473.723,643.948 474.127,643.948C474.127,645.565 474.127,647.181 474.127,649.202C473.723,648.798 473.319,648.798 472.914,648.394ZM474.127,665.771C474.127,666.579 474.127,666.983 473.723,667.387C473.723,666.983 473.723,666.579 474.127,665.771ZM473.723,670.216C473.319,671.832 473.319,673.449 473.319,675.065C472.914,672.64 472.914,671.832 473.723,670.216ZM518.984,790.238C518.175,790.238 517.771,790.642 517.367,790.238C515.751,789.834 514.538,788.622 515.347,787.005C516.963,787.409 518.175,788.218 518.984,790.238ZM523.429,699.716C523.025,699.312 522.621,698.908 522.217,698.1C523.429,698.1 524.237,697.696 525.045,697.696C525.45,698.1 525.45,698.1 525.854,698.504C525.045,698.908 524.237,699.312 523.429,699.716ZM533.128,698.1C531.511,698.1 529.895,698.1 528.278,698.1C528.278,698.1 527.874,698.1 527.874,697.696C528.682,697.292 529.087,696.887 529.491,696.483C529.895,696.483 529.895,696.483 530.299,696.483L530.703,696.079C531.511,696.483 532.319,696.483 533.532,696.887C533.128,697.696 533.128,698.1 533.128,698.1ZM540.402,696.483C539.189,696.079 538.381,695.675 537.169,695.675C536.765,694.867 536.361,694.059 535.957,693.655C536.765,693.25 537.573,692.442 538.381,692.038C538.785,692.846 539.189,693.25 539.998,694.059C540.402,694.059 541.21,694.463 541.614,694.463C543.231,693.25 544.443,692.442 546.059,691.23C546.464,690.422 546.868,689.613 547.676,687.997C548.08,688.805 548.484,689.613 548.888,690.017C548.484,690.017 548.08,690.017 547.676,690.422C547.272,691.23 547.272,692.038 546.868,693.25C544.847,694.059 542.826,695.271 540.402,696.483ZM550.909,699.312C549.696,698.504 548.888,698.1 547.676,696.483C549.292,696.483 550.909,696.483 552.929,696.483C553.334,698.1 553.334,697.696 553.738,698.1C552.525,698.504 551.717,698.908 550.909,699.312ZM592.533,717.497C594.149,717.497 594.149,717.497 594.957,719.114C593.341,719.518 592.937,718.306 592.533,717.497ZM598.594,728.004C595.766,725.984 595.362,724.771 596.17,721.943C598.594,723.155 598.594,725.176 599.807,727.196C599.403,727.6 598.999,727.6 598.594,728.004ZM603.848,740.936C605.464,739.724 605.869,740.532 606.273,741.744C605.464,741.34 604.656,741.34 603.848,740.936ZM470.49,655.668C470.49,656.072 470.49,657.284 470.894,657.284C471.298,657.284 472.106,657.284 472.914,657.284C472.914,657.284 473.319,656.072 473.723,655.264C472.106,654.051 471.298,654.859 470.49,655.668ZM617.588,629.804C618.8,628.188 619.609,626.975 619.204,624.147C617.992,626.975 617.184,628.996 617.588,629.804ZM473.319,699.312C471.702,698.908 471.298,699.312 470.894,700.929C471.298,700.929 471.702,701.333 472.106,701.333C472.914,700.929 473.319,700.12 473.319,699.312ZM472.106,711.031C471.702,709.819 472.106,708.607 470.894,707.799C470.49,709.415 470.49,710.627 472.106,711.031ZM472.106,711.031L472.106,711.436L472.106,711.031ZM620.013,563.933C619.609,563.529 618.8,563.125 618.396,563.125L617.992,563.529C618.396,563.933 618.8,564.337 619.204,564.742C619.204,564.337 619.609,564.337 620.013,563.933ZM539.998,702.949C540.402,702.949 540.402,702.949 540.806,702.949C540.806,702.545 541.21,702.141 541.21,701.737C540.806,701.737 540.806,701.737 540.402,701.737C540.402,702.141 540.402,702.545 539.998,702.949Z" style="fill:rgb(231,230,222);fill-opacity:0.4;fill-rule:nonzero;"/>
            </g>
        </g>
        <g transform="matrix(1.15898,0,0,1.07459,635.698,-645.019)">
            <g id="M1" serif:id="M">
                <path d="M570.306,583.735C569.902,583.331 569.498,582.927 569.094,582.119C569.498,581.714 569.902,580.906 570.71,580.502C570.306,579.694 569.902,579.29 569.498,578.886C567.882,579.694 567.073,580.906 566.669,582.523C566.265,582.927 565.457,583.331 564.245,583.735C564.649,582.927 565.053,582.523 565.457,581.714C565.053,581.31 565.053,580.502 564.649,580.098C565.053,579.694 565.457,579.694 565.861,579.29L565.861,578.886C565.053,576.865 565.053,576.865 565.457,575.249C566.265,574.844 567.073,574.844 568.286,574.44C567.478,571.207 564.245,570.803 563.032,567.57C563.032,567.57 563.032,567.166 563.032,566.762C562.628,566.358 562.628,565.954 562.628,565.954C561.82,565.146 560.608,565.55 559.799,565.954C559.395,566.762 558.587,567.166 558.183,567.974C557.779,567.974 556.971,567.57 556.566,567.166C557.375,565.55 558.991,565.146 560.608,564.742C560.608,563.933 560.203,563.125 560.203,562.317C559.395,561.913 558.991,561.509 558.183,561.105C558.183,561.509 558.183,562.317 558.183,562.317C556.162,562.721 554.546,563.125 552.929,563.529C550.101,563.933 547.272,563.529 544.443,563.125C543.635,561.913 544.443,561.509 545.251,561.105C544.443,561.105 543.635,560.7 542.826,560.7C542.826,559.892 542.826,559.084 542.826,558.68C542.018,558.68 541.21,558.68 540.806,557.872C542.018,557.063 542.422,557.872 542.826,558.68C543.231,558.276 543.231,558.276 543.635,557.872C542.826,557.063 542.018,556.659 540.806,555.851C537.977,557.063 534.744,556.255 531.511,556.659C531.915,557.063 532.319,557.467 532.724,557.467C533.532,557.467 534.34,557.467 535.552,557.467C535.552,558.276 535.148,559.084 535.148,560.296C533.936,560.7 533.532,559.488 533.128,559.084C531.511,560.296 530.299,561.913 527.874,562.317C527.874,561.913 527.47,561.509 527.47,561.105C528.278,560.7 528.682,560.296 529.491,559.892C529.895,559.488 530.299,558.68 530.703,558.276C529.491,557.467 529.895,555.447 528.278,554.639C527.874,555.043 527.47,555.447 526.662,556.255C526.258,555.043 526.258,554.235 526.258,553.426C525.45,553.022 525.045,553.022 524.237,552.618C523.429,553.426 522.217,553.83 521.004,554.235C520.196,554.639 518.984,555.851 517.367,555.043C516.963,554.235 516.155,553.022 515.347,552.214C515.347,551.406 515.347,551.002 515.347,550.193C513.326,550.193 512.114,549.789 510.497,549.789C506.86,551.002 503.627,552.618 500.394,554.639C499.586,555.043 498.778,555.447 497.97,555.447C496.353,555.851 495.141,556.255 493.928,556.659C493.524,557.467 493.12,557.872 492.716,558.68C491.908,558.68 491.1,558.68 490.696,558.68C489.483,559.488 488.675,559.892 487.867,560.296C487.463,559.892 487.059,559.488 487.059,558.68C483.826,559.892 481.401,561.913 479.38,564.742C479.38,565.954 478.976,567.166 478.976,568.783C480.593,567.974 481.805,567.57 483.421,566.358C481.805,569.591 479.784,571.612 476.956,572.42C476.551,572.824 476.551,573.228 476.551,574.036C475.743,574.44 475.339,574.844 474.531,575.249C473.319,580.098 471.702,584.543 470.49,588.989C470.086,589.797 470.086,590.605 470.086,591.413C469.682,594.646 468.873,597.879 469.277,601.112C469.277,601.516 469.277,601.92 468.873,602.324C468.065,603.941 468.469,606.365 468.065,607.982C468.469,608.386 468.469,608.79 468.873,609.194C468.469,609.598 468.065,610.003 468.065,610.407C468.065,612.023 467.661,613.64 468.873,615.256C469.277,616.468 469.277,617.681 468.873,618.893C469.277,619.297 469.277,619.701 469.682,620.105C468.873,621.722 469.277,623.742 470.086,625.359C472.106,631.825 475.743,637.482 479.38,643.14C479.784,643.948 480.189,644.352 480.593,645.161C481.401,645.161 482.209,644.756 483.421,644.756C483.017,645.969 482.613,646.777 482.209,647.585C483.826,649.606 485.442,651.222 487.867,652.435C489.079,652.839 490.291,654.051 491.1,655.668C491.908,656.476 492.312,657.284 493.12,657.688C495.141,658.901 496.757,660.113 498.778,661.729C501.203,664.154 504.435,665.771 507.668,666.983C508.477,666.579 509.285,666.579 509.689,666.579C512.518,667.387 514.538,669.003 516.155,671.024C517.367,671.024 518.175,670.62 519.388,670.62C519.792,671.024 520.196,671.024 520.6,671.428C523.429,672.64 525.854,673.449 528.682,673.853C530.299,673.853 531.915,674.661 533.532,675.469C536.361,677.086 538.785,679.51 542.018,680.723C542.826,680.723 543.231,681.127 543.635,681.531C544.443,682.339 545.655,682.743 546.868,683.148C547.676,683.148 548.888,683.552 550.101,683.956C550.909,684.764 551.313,685.572 552.121,686.38C552.929,687.593 553.334,688.401 553.738,689.209C554.95,690.422 555.758,691.634 556.162,693.25C556.971,696.483 558.183,699.716 558.991,702.949C558.587,706.586 559.799,710.223 558.991,713.456C559.395,714.264 559.799,715.073 560.203,715.477C559.395,717.093 558.991,718.306 558.183,719.518C557.375,721.943 556.162,723.963 554.546,725.58C551.313,729.217 548.888,733.258 546.868,737.703C546.464,739.724 544.847,740.936 543.231,742.148C540.806,743.361 537.977,743.765 535.148,744.169C531.511,744.573 527.47,744.169 524.237,742.553C522.621,741.744 521.004,741.34 519.792,740.532C517.771,739.32 515.751,738.511 514.538,736.491C514.134,735.683 513.73,734.874 512.922,734.47C510.901,731.641 509.285,728.813 509.285,725.58C509.285,724.771 509.285,724.367 509.285,723.559C508.881,721.539 508.477,719.518 508.881,717.093C508.881,714.669 508.881,712.244 507.264,709.819C507.668,707.799 508.073,706.182 508.477,704.162C507.264,703.757 506.052,703.353 504.84,702.949C503.223,703.353 502.011,704.162 500.394,704.97C497.97,704.566 495.545,704.97 493.12,705.778C492.716,706.182 491.908,706.182 491.504,706.586C489.079,706.99 486.654,707.799 484.23,708.607C480.189,709.819 476.147,711.436 471.702,711.84C470.49,712.244 468.873,712.244 467.661,713.456C466.044,717.093 464.832,720.73 464.428,724.771C464.024,725.984 464.024,727.196 464.024,728.813C464.428,732.854 464.428,736.895 464.428,741.34C464.832,744.977 464.428,748.614 466.044,751.847C468.065,755.484 469.277,759.525 472.51,761.95C472.914,762.354 473.319,762.758 473.319,763.162C474.935,765.587 476.147,767.608 477.764,769.628C478.572,771.245 479.784,772.861 481.401,774.074C483.826,776.498 486.654,778.115 489.079,780.539C493.12,784.176 497.97,787.814 502.819,790.642C505.244,792.259 507.668,793.875 510.901,794.279C514.538,795.088 518.175,795.492 521.812,795.896C522.621,795.896 523.429,795.896 524.237,795.896C528.682,795.492 533.128,795.088 537.573,794.683C538.381,794.683 539.189,794.279 539.594,794.683C541.21,795.088 542.826,794.683 544.443,794.279C548.484,793.471 552.525,792.663 556.566,791.451C557.375,791.046 558.587,790.642 559.395,790.238C561.012,789.026 563.032,787.814 565.053,786.601C567.073,785.793 569.094,784.581 571.115,783.772C574.348,782.156 577.58,780.539 580.813,779.327C582.834,778.519 584.855,777.711 586.875,776.094C588.492,775.69 590.108,774.882 591.32,773.669C594.553,771.245 597.786,768.012 599.807,763.971C601.423,761.142 603.04,757.909 604.656,754.676C605.06,753.868 605.06,753.464 605.464,752.655C606.273,749.018 607.081,745.381 608.697,742.148C609.91,739.32 611.122,736.491 611.122,733.258C611.526,729.621 611.122,726.388 610.718,722.751C610.718,720.73 610.314,718.306 609.91,715.477C610.314,715.073 610.718,713.86 610.718,713.052C610.314,712.648 609.91,712.648 609.91,712.244C609.101,710.627 608.293,709.011 607.889,707.394C607.081,705.778 607.081,703.757 606.273,702.141C605.869,700.524 605.06,698.908 604.252,697.696C603.848,696.483 603.04,695.271 603.04,694.059C602.636,693.25 602.232,692.442 601.827,692.038C599.807,690.422 598.999,688.401 598.19,686.38C597.382,685.168 597.382,683.552 596.978,682.339C594.957,678.298 592.937,674.257 590.916,670.62C589.3,667.791 587.683,665.366 585.663,663.346C584.45,661.729 582.834,660.113 580.409,658.901C577.985,658.092 575.964,656.072 573.943,654.859C573.539,654.051 573.539,653.243 573.539,652.435C571.519,651.626 569.498,650.818 567.478,649.606C566.669,647.989 565.053,646.373 563.032,645.565C561.82,645.161 560.608,644.756 558.991,643.948C557.375,643.544 555.354,643.14 553.738,641.524C552.525,640.715 551.313,640.311 549.696,639.907C548.484,639.503 546.868,639.099 545.655,638.291C543.231,637.078 540.402,635.866 537.573,635.058C536.765,634.654 535.552,634.249 534.744,633.845C533.128,632.633 531.915,631.825 529.895,630.208C528.682,628.996 527.47,627.38 525.045,626.167C521.812,624.147 518.984,621.722 517.367,618.085C515.751,614.852 515.751,611.619 516.559,608.79C518.175,605.153 518.58,601.516 518.984,597.879C518.984,596.667 519.388,595.858 519.792,594.646C520.196,593.838 520.6,593.03 521.408,592.221C522.621,590.605 524.237,589.393 525.45,587.776C526.662,586.968 528.278,586.564 529.491,585.756C531.107,584.947 532.319,584.139 533.936,583.735C535.148,583.331 536.361,582.927 537.573,582.523C541.21,581.714 544.443,580.906 547.676,580.098C549.292,579.694 550.909,579.694 552.121,580.098C554.546,580.502 557.375,581.714 559.395,582.119C564.245,586.564 564.649,586.968 567.073,586.968C566.265,586.16 566.265,585.756 566.669,585.756C567.478,585.756 568.286,586.16 569.094,586.16C570.306,585.756 569.902,584.543 570.306,583.735ZM485.038,757.101C486.25,757.505 487.463,757.909 488.271,759.121C487.059,759.93 486.25,759.121 485.038,759.121C484.634,759.525 484.23,759.525 483.826,759.93C484.23,760.334 484.23,760.738 484.23,760.738C485.038,760.738 486.25,760.738 487.059,761.546C486.654,761.95 486.654,762.354 486.25,762.758C485.846,763.162 485.442,763.162 485.038,763.567C485.442,763.971 485.846,764.375 486.25,765.183C485.846,765.587 485.846,766.395 485.038,767.204C484.634,766.395 483.826,765.991 483.421,765.587C483.017,765.183 482.209,764.779 481.401,764.779C481.805,763.971 482.209,763.567 483.017,762.758C481.805,762.758 480.997,762.758 480.593,762.758C480.189,762.354 480.189,761.95 480.189,761.95C481.401,760.738 482.209,759.93 481.805,758.717C483.017,758.313 483.826,757.505 485.038,757.101ZM491.1,724.367C489.887,725.176 488.675,725.984 487.867,726.792C485.846,724.771 483.826,725.176 481.805,725.984C481.805,725.58 481.401,725.176 481.401,725.176C482.613,723.559 483.826,724.367 485.038,723.963C485.846,723.155 487.059,722.347 488.271,721.134C488.271,722.347 488.675,722.751 488.675,723.559C490.696,723.559 489.483,721.539 490.696,720.73C491.1,721.134 491.504,721.539 491.504,721.539C491.504,722.751 491.504,723.559 491.1,724.367ZM497.97,722.751C496.353,723.963 496.353,723.963 494.737,724.771C494.737,725.176 495.141,725.176 495.141,725.984C494.333,725.58 493.524,725.58 492.716,725.176C492.312,723.963 492.716,723.155 493.524,722.347C494.737,722.347 495.949,722.347 497.97,722.751ZM535.148,561.913C536.765,561.509 537.977,561.105 539.594,562.317C538.381,563.125 537.169,563.529 535.957,563.933C535.552,563.529 535.552,562.721 535.148,561.913ZM495.949,768.416C494.737,768.416 494.333,768.012 493.12,768.012C493.928,767.204 494.333,766.799 494.737,766.395C495.141,767.204 495.545,767.204 495.949,768.416ZM522.621,568.379C522.621,568.379 523.025,567.974 523.429,567.974L523.429,568.379C523.429,568.783 523.025,568.783 522.621,568.783L522.621,568.379ZM493.12,728.004C492.716,728.004 492.312,728.004 491.504,728.004C491.504,727.6 491.504,727.6 491.504,727.196C492.312,727.196 492.716,727.196 493.12,727.196C493.12,727.6 493.12,727.6 493.12,728.004ZM570.306,583.735C571.115,584.947 572.327,583.735 573.135,584.139C573.135,584.543 573.539,584.947 573.135,584.947C571.923,588.18 568.69,590.201 565.053,590.201C564.245,590.201 563.841,590.201 563.436,591.009C563.841,596.263 564.245,601.516 564.245,606.77C565.053,607.578 565.861,608.386 566.669,609.194C566.669,609.598 567.478,609.598 567.882,610.003C568.286,608.79 567.073,607.578 568.69,606.365C571.115,606.77 570.71,609.598 571.923,611.215C573.135,611.619 574.348,612.023 575.56,612.427C578.389,611.215 580.813,611.619 583.642,610.407C586.067,609.598 588.492,608.79 590.916,608.386C593.745,607.578 596.17,607.174 598.594,605.557C598.999,603.537 598.999,601.516 598.999,599.496C598.999,598.283 598.594,597.071 598.594,595.454C598.19,590.605 598.19,585.351 597.382,580.098C596.978,576.865 596.17,574.036 595.362,570.803C594.957,568.379 594.553,565.55 592.937,563.529C591.725,562.317 591.32,560.7 590.512,559.084C589.3,557.063 588.087,555.447 586.875,553.426C586.471,553.022 586.067,552.618 586.067,552.214C584.855,550.193 583.642,548.577 582.026,547.365C579.197,545.344 576.368,543.323 573.539,541.303C571.923,540.09 569.902,539.282 567.882,538.474C565.053,537.666 561.416,536.858 558.183,536.049C555.354,535.645 552.121,534.837 548.888,534.433C546.464,534.433 544.039,534.029 541.21,533.625C538.381,533.625 535.148,533.625 531.915,534.433C527.47,535.645 523.025,536.858 518.175,538.07C517.367,538.474 516.155,539.686 514.538,539.686C513.73,539.686 512.922,540.495 512.518,540.899C511.305,541.707 510.497,542.515 509.285,542.919C508.073,542.919 507.264,544.132 507.264,545.344C508.073,545.344 508.477,544.94 509.285,544.94C511.305,544.132 514.134,543.728 515.751,542.111C517.367,540.495 519.388,539.686 521.408,538.474C521.812,538.878 522.217,539.282 522.217,539.282C524.237,538.474 527.47,538.474 527.874,539.282C527.874,539.686 527.874,540.495 527.874,540.899C526.662,541.707 525.854,540.495 525.045,540.495C523.429,541.303 522.621,542.111 521.408,542.515C519.792,543.323 517.771,543.728 516.155,544.132L516.155,544.536C516.559,545.344 517.771,544.536 518.175,545.748C517.367,546.152 516.559,546.556 515.347,546.96C516.155,547.365 516.559,547.769 516.963,548.173C518.175,547.769 518.984,547.365 519.792,546.556C521.004,546.96 522.217,547.365 523.429,547.365C523.429,548.173 523.429,548.577 523.429,548.981C521.004,549.789 518.984,550.193 517.367,551.81C519.792,553.022 521.408,552.618 523.429,551.406C523.025,551.406 522.621,551.002 522.217,551.002C523.025,549.789 524.237,550.193 525.45,549.789C525.854,549.385 526.662,549.385 527.47,548.981C528.278,549.789 528.682,550.598 529.491,551.002C529.491,551.002 529.895,550.598 530.299,550.193C529.491,548.981 528.682,548.173 528.278,547.365C528.278,544.536 530.703,543.728 531.107,542.111C532.724,541.707 533.128,542.111 533.532,543.323C534.34,543.323 534.744,543.323 535.552,542.919C535.957,543.728 536.361,544.132 536.765,544.536C539.189,545.344 541.614,546.152 544.039,546.96C544.847,548.173 543.635,549.385 543.635,550.598C545.251,551.002 546.464,551.406 548.484,551.81C549.292,553.426 551.717,553.83 551.717,556.255C552.525,555.851 552.929,555.447 553.334,555.447C554.142,555.043 554.546,554.639 554.95,554.235C554.95,553.426 554.95,552.618 554.95,552.214C556.162,551.406 556.971,551.406 558.183,551.81C558.991,552.618 559.799,553.426 560.203,553.83C561.416,555.447 560.608,557.063 560.608,558.68C561.012,558.276 561.82,557.872 562.224,557.467C563.436,557.467 564.245,558.276 564.649,559.084C565.053,561.105 566.265,562.317 566.669,563.933C567.073,565.55 567.073,566.762 567.478,568.379C567.073,568.783 567.073,568.783 566.265,569.591C566.669,569.995 567.073,569.995 567.478,570.399C567.882,569.995 568.286,569.591 568.69,569.187C569.094,569.591 569.094,569.591 569.902,570.399C568.69,570.399 568.286,570.399 567.478,570.399C567.478,570.803 567.478,570.803 567.882,571.207C569.094,572.42 571.115,572.016 572.327,574.036C571.115,575.249 570.306,576.057 569.498,576.865C569.498,577.673 569.498,578.481 569.498,578.886C570.71,578.886 572.327,578.886 573.943,578.481C575.156,580.098 573.943,581.31 573.539,582.523C572.327,582.927 571.519,583.331 570.306,583.735ZM556.162,548.577C554.546,547.769 553.334,547.365 551.717,546.556C552.121,546.152 552.525,545.344 552.929,545.344C553.334,544.94 554.142,544.94 554.95,544.536C555.354,544.94 556.162,545.344 556.971,545.748C556.566,546.556 556.566,547.365 556.162,548.577ZM586.471,600.708C587.279,598.283 585.663,596.667 586.875,594.646C588.087,596.263 587.683,598.283 589.3,599.9C588.492,599.9 587.683,600.304 586.471,600.708ZM580.005,563.529C578.389,562.317 577.58,561.509 577.985,559.488C578.793,559.892 579.601,560.296 580.005,560.7C580.409,561.509 581.218,562.317 580.005,563.529ZM580.409,565.146C582.43,565.954 582.43,565.954 582.026,567.57C580.409,566.762 580.409,566.762 580.409,565.146ZM587.279,602.324C587.279,602.324 587.279,601.92 587.279,601.516C587.683,601.516 588.087,601.516 589.3,601.516C588.492,602.324 588.087,602.728 587.683,602.728C587.279,602.728 587.279,602.728 587.279,602.324ZM548.888,540.09C548.888,539.686 548.888,539.686 549.292,539.282L549.696,539.282C549.696,539.686 549.696,540.09 549.696,540.09C549.292,540.09 549.292,540.09 548.888,540.09ZM496.353,551.81C494.333,552.618 493.12,554.235 490.696,555.447C493.12,555.851 494.333,555.851 495.545,555.043C495.949,553.83 497.161,553.426 496.353,551.81ZM507.264,545.344C504.84,546.152 502.415,546.96 500.394,548.981C500.798,549.385 500.798,549.789 501.203,550.193C501.607,549.789 502.011,549.789 502.011,549.789C503.223,548.173 504.84,547.365 506.456,546.556C506.86,546.556 507.264,545.748 507.264,545.344ZM529.491,551.002C527.874,551.406 527.874,552.618 527.066,553.83C527.47,553.83 527.874,554.235 528.278,554.639C528.682,553.426 529.087,552.214 529.491,551.002ZM554.95,554.235C555.354,555.447 555.758,557.063 556.162,558.68C556.162,559.488 555.758,560.7 555.758,561.509C556.566,561.509 557.375,561.509 558.587,561.105C558.991,560.296 560.608,560.296 560.608,558.68C559.799,559.084 559.395,559.892 558.183,559.488C558.587,558.68 558.587,557.467 558.587,557.063C557.779,555.851 556.566,555.043 555.758,553.83C555.758,553.83 555.354,553.83 554.95,554.235ZM533.936,550.193C531.915,551.81 531.915,551.81 531.107,553.022C533.128,551.81 535.552,551.002 537.977,551.002C538.785,551.002 539.594,550.598 539.594,548.981C537.573,548.577 535.957,550.193 533.936,550.193ZM530.299,547.365C531.511,547.365 533.128,547.769 533.936,546.152C532.319,545.344 531.107,546.556 530.299,547.365ZM549.696,560.7C548.484,559.892 548.08,559.892 547.676,561.105C548.484,561.913 548.888,561.509 549.696,560.7Z" style="fill:rgb(231,230,222);fill-opacity:0.4;fill-rule:nonzero;"/>
            </g>
        </g>
        <g transform="matrix(1.15898,0,0,1.07459,-432.754,133.819)">
            <g id="M2" serif:id="M">
                <path d="M515.347,553.83C514.943,554.235 514.538,555.043 513.73,555.447C514.134,556.255 514.538,557.063 515.347,557.872C514.538,557.467 514.134,557.467 513.73,557.467C513.326,556.659 513.326,556.255 512.922,555.447C513.73,555.043 514.134,554.235 514.538,553.426C514.943,553.426 514.943,553.426 515.347,553.83C515.751,553.022 514.538,553.022 514.943,552.618C514.943,552.214 515.347,551.81 516.155,551.406C514.134,548.981 514.538,545.748 514.943,542.919C514.134,541.707 512.922,541.303 511.71,541.303C511.305,541.707 511.305,542.111 510.901,542.515C510.497,541.707 510.497,541.303 510.093,540.899C509.689,541.303 509.285,541.707 508.477,542.111C507.668,540.899 506.456,541.707 504.84,541.707C504.84,541.707 504.435,542.111 504.031,542.515C502.819,542.111 502.011,541.707 500.798,540.899C501.203,542.919 502.819,543.323 503.627,544.536C504.031,544.132 504.435,544.132 504.84,544.132C504.84,544.94 504.435,545.344 504.435,545.748C503.627,546.556 502.415,546.556 502.011,546.152C500.394,546.556 499.182,546.96 497.97,547.365C497.566,547.365 497.566,547.365 497.161,546.96C495.949,546.96 494.737,546.556 493.524,546.152C492.716,546.152 491.504,546.556 490.696,546.556C490.291,546.556 489.887,546.152 489.483,546.152C489.079,546.152 488.675,546.556 487.867,546.96C487.059,546.556 486.25,546.152 485.846,545.748C485.038,546.152 484.634,546.152 484.23,546.152C483.826,545.748 483.421,545.344 483.017,544.536C483.826,544.132 484.634,543.728 485.442,543.323C485.442,543.323 485.846,543.323 485.846,543.728C485.442,544.132 485.038,544.536 484.634,544.94C485.442,544.94 486.25,544.94 487.059,544.94C487.463,544.536 487.867,544.536 488.271,544.132C488.271,543.323 488.675,542.919 488.675,542.515C488.271,542.111 487.867,541.707 487.463,540.899C486.654,540.899 485.442,540.899 484.23,540.899C484.23,540.495 483.826,540.09 483.826,540.09C483.017,540.09 481.805,540.09 480.997,540.495C480.593,540.09 479.784,539.686 479.38,539.686C478.572,539.686 477.764,539.686 476.956,539.686C475.743,537.666 473.319,538.878 471.702,538.07C470.894,538.474 470.49,538.878 469.682,539.282C469.277,539.282 468.469,539.282 468.065,539.282C467.257,540.09 466.449,540.899 465.64,541.303C464.832,542.111 463.62,542.919 462.407,543.323C462.003,543.323 461.599,543.323 460.791,543.323C460.387,544.132 460.387,544.94 459.983,545.748C460.387,546.152 460.791,546.556 461.195,546.96C462.003,547.769 462.812,548.577 462.812,549.789C463.216,551.002 463.216,552.214 463.62,553.426C463.62,553.426 463.62,553.83 463.62,554.235C463.216,555.851 464.024,557.063 464.024,558.68C464.024,559.084 464.024,559.488 464.024,559.892C464.428,561.913 464.428,563.933 464.832,565.954C465.236,567.974 466.044,569.591 466.853,571.207C466.044,573.228 466.449,574.844 468.065,576.057C467.661,579.694 470.086,582.119 470.49,584.947C470.49,585.756 470.49,586.564 470.49,587.372C470.894,587.776 471.298,588.18 471.298,588.18C471.702,591.817 472.914,595.05 474.127,598.283C474.127,598.687 474.127,599.091 474.127,599.496C475.339,601.516 474.935,603.537 475.339,605.961C475.743,608.386 476.147,610.811 477.36,612.831C477.36,616.064 478.168,619.297 479.38,622.126C479.38,622.53 479.784,622.934 479.784,623.742C480.189,625.359 480.593,627.38 480.997,629.4C481.805,632.633 483.017,635.866 483.826,639.099C484.23,639.907 484.23,641.119 484.634,641.928C485.038,643.14 485.442,643.948 485.846,645.161C486.654,645.969 487.059,647.181 487.463,648.394C488.271,649.606 488.675,650.818 489.483,652.435C489.887,653.243 490.696,654.859 491.1,656.072C491.1,656.476 491.504,656.88 491.504,657.284C491.908,659.709 493.12,661.325 493.928,663.346C494.737,664.962 495.949,666.579 495.949,668.599L496.353,668.599C496.757,669.812 497.161,670.62 497.566,671.428C497.97,671.428 498.374,671.428 498.778,671.428C499.182,673.045 500.394,675.065 501.607,676.278C502.011,677.086 502.415,677.894 502.415,678.298C502.415,678.702 502.415,678.702 502.415,679.106C502.819,679.51 503.223,679.51 503.627,679.51C503.627,679.915 503.627,680.723 503.627,680.723C504.435,681.531 504.84,681.935 505.244,682.339C505.648,683.148 506.052,684.36 506.86,685.572C506.456,686.38 506.456,687.189 506.052,687.997C506.456,687.997 506.456,688.401 506.86,688.401C506.86,689.613 506.86,690.826 506.86,692.038C507.668,691.634 507.668,691.634 508.073,691.23C508.477,691.634 508.477,692.038 508.881,692.442C508.477,692.846 508.073,693.25 507.668,693.655C508.073,694.059 508.477,694.059 508.477,694.463C508.477,694.867 508.477,695.271 508.477,695.675C509.285,696.483 509.689,697.292 508.881,698.908C510.093,698.504 510.901,698.504 512.114,698.1L512.114,698.504C511.71,698.908 511.305,698.908 510.901,699.312C511.71,700.929 512.114,702.141 513.73,702.545C513.326,705.374 514.943,706.99 517.367,706.182C517.367,706.586 517.367,706.99 517.771,707.394C516.963,707.394 516.155,707.394 515.751,707.394C516.559,708.607 517.771,707.799 518.58,707.394C518.58,708.203 518.984,709.011 518.984,709.415C518.984,709.819 518.58,710.223 518.175,710.223C518.984,710.627 519.388,711.436 518.984,712.244C518.984,712.648 518.175,713.052 517.771,712.648C518.175,714.669 518.58,716.285 517.771,717.901C517.771,718.306 517.771,718.71 518.175,719.114C518.58,718.71 518.984,718.71 519.388,718.306C517.771,720.326 517.771,720.73 518.175,721.134C518.58,721.134 518.984,720.73 519.792,720.326C520.196,721.134 520.6,721.943 521.004,722.347C520.6,722.751 520.196,723.155 519.792,723.559C519.388,723.155 518.984,723.155 518.58,723.155C518.58,723.559 518.58,723.963 518.58,724.771C519.388,724.367 519.792,724.367 520.6,724.367C520.6,724.771 521.004,724.771 521.004,725.176C520.6,725.984 519.792,726.792 520.196,728.004C520.6,727.6 521.004,727.6 521.408,727.6C521.408,728.004 521.004,728.408 521.004,728.813C521.004,729.621 521.004,730.025 521.408,730.833C521.812,730.429 522.217,730.429 522.621,729.621C522.621,731.237 522.621,732.046 522.621,733.258C523.025,733.258 523.429,733.258 523.833,733.258C523.833,733.662 523.833,734.066 524.237,734.47C524.641,734.47 524.641,734.874 525.45,735.278C525.045,735.683 525.045,736.491 525.045,736.895C524.237,736.895 523.833,736.491 523.833,736.491L523.429,736.491C523.833,736.895 524.237,737.703 524.641,738.107C524.641,739.32 523.833,740.936 525.45,742.148C525.045,742.553 525.045,742.957 525.045,743.361C526.662,744.977 527.066,746.998 527.47,749.018C527.874,749.422 528.278,749.827 528.278,749.827C528.682,750.635 528.682,751.039 529.087,751.847C529.491,752.655 529.895,753.06 530.299,753.868C530.703,754.676 531.107,755.888 531.511,756.697C532.319,758.313 533.128,759.93 533.936,761.546C534.34,761.95 534.34,762.354 534.34,762.758C534.34,764.779 534.744,766.799 536.361,768.012C536.765,768.012 536.765,768.416 536.765,768.416C536.765,768.82 536.765,768.82 536.361,769.224C537.169,770.032 537.977,770.437 538.785,771.245C539.189,772.457 539.189,773.669 539.189,774.882C539.189,775.286 538.785,775.286 538.381,775.69C538.381,776.498 538.785,776.902 538.785,777.711C537.977,777.711 537.573,777.711 536.765,777.711C536.765,779.731 536.765,781.348 538.381,782.964C539.594,782.964 540.402,783.368 541.614,783.368C543.231,783.368 544.443,784.176 545.655,785.389C547.272,785.389 548.484,785.793 549.292,787.409C549.696,787.005 550.101,787.005 550.505,786.601C550.909,787.005 551.313,787.409 551.717,787.409C552.525,787.409 553.738,787.409 554.546,787.005C556.162,786.197 557.779,787.005 558.991,787.814C559.395,788.622 559.395,789.43 559.395,790.238C561.416,790.238 563.436,789.834 565.457,789.834L565.457,790.238C565.861,789.834 566.265,789.834 566.669,789.834C567.073,789.834 567.478,789.834 567.478,790.238C573.135,790.238 578.389,790.238 583.238,791.451C583.642,790.642 584.046,790.238 584.45,789.834L584.45,790.238C585.259,789.43 585.663,789.026 586.471,788.622L586.471,788.218C587.279,787.814 588.087,787.814 588.896,787.409C590.512,785.793 592.533,784.176 592.937,781.348C592.533,781.348 592.129,780.944 591.725,780.944C592.533,780.539 593.341,780.539 593.341,780.539C594.149,780.135 594.553,779.327 594.957,778.519C594.957,778.519 594.957,777.711 594.957,777.306C595.362,776.902 595.766,776.498 595.766,775.69C596.17,775.69 596.574,775.69 596.978,775.286C596.978,774.882 596.978,774.074 597.382,772.861C597.382,772.861 597.786,772.457 598.19,772.053C597.786,771.649 597.786,771.245 597.382,770.841C596.978,770.437 596.574,770.437 596.17,770.437C596.17,769.628 596.17,769.224 596.17,768.416C595.766,768.416 595.766,768.012 595.766,768.012C596.17,767.204 596.574,766.395 596.978,765.587C597.382,765.183 597.786,765.183 598.594,764.779C598.19,763.971 598.19,763.567 598.19,763.162C598.594,762.354 598.999,761.95 599.403,761.546L599.807,761.546C599.807,761.95 599.403,762.354 599.403,763.162C599.403,763.567 599.403,763.971 599.403,764.375C599.807,763.567 600.211,762.758 600.615,761.95C599.807,759.121 599.807,759.121 600.211,757.909C601.019,758.313 601.827,759.121 602.636,758.313C602.636,757.909 602.636,757.505 602.636,756.697C603.04,756.697 603.444,756.697 603.444,756.697C603.444,755.484 603.848,754.676 603.848,753.464C603.848,753.06 604.656,752.655 604.656,752.251C604.656,751.039 605.06,749.827 605.06,748.614C605.464,748.614 605.869,748.614 605.869,748.614C606.273,749.018 606.273,749.422 606.677,749.422C608.293,747.806 607.485,745.785 607.081,744.169C607.485,743.765 607.889,743.765 608.293,743.765C608.697,742.553 609.101,741.744 609.506,740.936C609.101,740.936 608.293,740.532 607.889,740.128C608.697,739.32 609.506,738.915 610.314,738.511C610.314,737.703 610.718,736.895 610.718,736.491C611.122,736.087 611.526,735.683 611.93,734.874C611.122,734.874 610.718,734.874 610.314,734.47C610.718,734.066 610.718,733.258 610.718,732.854C611.122,732.854 611.93,732.854 612.334,733.258C612.334,732.854 612.739,732.854 612.739,732.854C612.334,732.45 611.93,731.641 611.93,731.237C611.93,730.833 612.334,730.833 612.334,730.429C612.739,730.429 613.143,730.833 613.547,730.833C613.951,729.217 612.334,730.025 611.93,729.217C611.93,728.813 611.93,728.408 611.93,728.408C612.334,727.196 612.739,726.792 613.143,725.984C613.547,724.771 613.547,723.559 613.951,722.347C614.355,720.73 614.759,719.114 615.163,717.497C615.567,716.285 615.567,715.073 615.971,714.264C616.376,713.052 617.184,712.244 617.184,711.031C617.184,709.819 617.588,709.011 617.588,708.203C617.992,706.586 618.396,705.374 619.204,704.162C618.8,701.333 620.417,698.908 620.821,696.079C621.629,696.079 622.033,695.675 622.841,695.271C622.437,694.867 622.437,694.463 622.033,693.655L622.437,693.655C622.033,692.846 622.033,692.038 622.033,691.23C622.437,690.422 623.246,691.23 624.054,690.826C623.65,690.422 623.246,690.017 623.246,689.209C623.246,689.209 623.65,688.805 623.65,688.401C623.65,687.997 623.246,687.593 622.841,687.189C622.437,686.785 621.629,686.785 621.629,685.976C622.437,686.38 623.246,685.168 624.054,685.976C624.054,686.38 623.65,686.785 623.65,687.189C624.054,687.189 624.458,687.593 625.266,687.997C624.862,686.785 624.862,685.976 624.862,685.572C624.054,685.168 623.65,685.168 622.841,684.764C623.246,684.36 623.65,683.956 624.054,683.956C624.458,682.743 624.458,682.339 624.862,681.127C624.862,680.723 624.862,679.915 624.862,679.106C625.266,679.106 625.67,678.702 626.074,678.298C625.67,677.49 625.266,677.086 624.862,676.278C625.67,675.873 626.074,675.065 626.883,674.661L626.883,675.065C627.287,674.661 627.287,674.257 627.691,673.853C627.691,673.449 627.287,673.045 627.287,672.64C627.691,671.832 628.095,671.428 628.499,670.62C626.883,669.408 628.903,668.195 628.903,666.983C628.499,665.771 628.903,664.962 629.711,663.75C630.116,663.346 630.116,662.942 630.116,662.942C630.52,661.729 630.924,660.517 631.328,659.709C631.328,659.305 631.732,659.305 631.732,659.305C632.136,659.709 632.136,660.113 632.54,660.517C632.54,660.113 632.54,660.113 632.944,660.113C632.944,659.709 632.54,658.901 632.54,658.496C631.328,658.092 630.924,657.688 630.924,656.072C631.328,655.668 631.732,655.264 632.136,655.264C632.136,654.455 632.136,654.051 632.136,653.243C632.54,653.243 632.944,652.839 633.348,652.839C632.944,652.031 632.54,651.222 632.136,650.414C632.944,650.01 633.753,649.606 634.157,649.606C634.157,649.202 634.157,648.798 634.157,648.394C634.561,647.989 634.965,647.989 634.965,647.585C634.561,647.181 634.561,646.777 634.157,646.373L634.157,645.969C634.561,646.373 634.965,646.373 635.369,646.777C635.773,646.373 635.773,646.373 636.177,645.969C635.773,645.565 635.369,645.565 634.965,645.161C634.965,644.756 634.561,643.948 634.561,643.544C635.369,643.14 636.581,643.14 637.39,642.736C637.794,641.524 638.198,640.311 638.198,639.503C637.794,639.099 637.39,638.291 636.985,637.887C637.794,637.887 638.198,637.887 638.198,637.887C639.006,636.674 639.814,635.866 640.623,634.654C641.835,631.825 643.855,629.804 643.855,626.571L644.26,626.571C645.068,624.551 645.876,622.934 646.684,621.318C646.28,620.914 646.28,620.51 646.28,620.105C646.684,619.701 647.088,619.297 647.493,619.297C647.493,618.893 647.088,618.489 647.088,617.681C647.897,616.873 647.493,615.66 649.109,615.256C649.109,613.235 650.321,611.619 651.13,610.003C650.725,609.598 650.725,609.194 650.321,608.79C650.725,607.982 651.534,607.578 651.938,607.174L652.342,607.174C652.342,606.365 652.746,605.557 652.746,604.749C652.746,604.749 653.15,605.153 653.554,605.153C653.958,604.749 654.362,604.345 654.767,603.941C654.767,603.133 654.767,602.728 654.767,602.324C656.787,600.708 656.383,598.687 657.191,596.667C657.191,596.263 657.595,596.263 658,595.858C658.404,594.646 658.404,593.838 658.808,593.03C660.02,589.393 660.828,585.756 660.828,582.119C661.232,579.29 662.041,576.865 662.445,574.036C662.849,568.783 662.849,563.529 666.082,559.084C666.082,557.467 666.89,556.255 668.102,555.447C668.102,555.043 668.102,554.639 668.102,554.639C668.507,554.235 668.507,553.83 668.911,553.426C668.911,552.214 668.911,551.002 669.315,550.193C669.719,549.385 670.527,548.173 670.931,547.365C670.931,546.96 670.931,546.556 670.527,546.556C670.931,546.152 671.335,545.748 671.739,545.748C672.144,543.728 671.335,542.515 669.315,542.111C668.102,542.111 666.89,541.707 665.678,541.707C664.869,541.707 663.657,541.707 662.849,542.111C661.637,542.515 660.424,542.515 659.616,542.111C658,542.111 656.787,542.111 655.171,542.111C647.493,542.111 639.814,542.515 632.136,541.303C631.732,541.707 631.732,542.111 631.328,542.111C631.328,541.707 630.924,541.707 630.924,541.303C628.903,540.899 627.287,540.899 625.266,540.899C624.458,540.899 623.65,541.707 622.841,540.495C622.841,540.899 622.841,541.303 622.437,541.707C622.033,541.707 621.629,541.303 620.821,541.303C620.821,540.899 620.821,540.899 620.417,540.495C620.013,540.899 619.609,540.899 619.204,540.899C617.992,541.303 617.184,541.707 616.376,542.515C615.971,543.323 615.567,544.132 614.759,544.94C614.759,544.94 614.759,545.344 614.355,545.344C614.759,545.748 614.759,546.152 615.163,546.556C614.759,546.556 614.759,546.556 614.355,546.556C614.759,547.769 613.547,548.173 613.547,548.577C613.143,550.193 612.739,551.406 612.334,552.618C612.334,552.618 612.739,553.022 613.143,553.022C612.739,554.235 612.334,555.447 611.93,556.659C611.93,556.659 612.334,556.659 612.739,557.063C612.334,557.467 611.93,557.467 611.526,557.467C611.122,558.276 610.718,559.084 610.718,559.892C611.122,560.296 611.122,560.7 611.122,561.105C611.526,563.125 611.526,565.146 610.718,567.166C609.91,568.783 609.506,570.803 609.101,572.42C609.101,573.228 609.101,574.036 609.101,575.249C608.697,575.249 608.293,575.653 608.293,576.057C608.293,576.865 608.293,577.673 608.293,578.886C607.889,578.886 607.485,578.886 607.081,578.886C607.081,579.694 607.081,580.502 607.081,581.714C607.081,581.714 606.677,582.119 606.677,582.523C606.677,582.927 607.081,583.331 607.081,583.735C606.677,584.139 606.273,584.139 605.869,584.543C605.464,585.351 605.464,586.564 605.06,587.372C604.252,589.393 603.04,591.413 602.232,593.434C602.232,594.242 601.827,594.646 601.423,595.454C600.615,597.475 599.807,599.091 599.403,601.112C598.999,602.324 598.594,603.537 598.19,604.345C597.786,606.77 596.978,608.386 596.574,610.407C596.17,611.215 596.17,612.023 595.766,612.831L596.17,612.831C596.17,612.831 596.574,612.831 596.978,612.427L596.978,612.831C596.978,613.235 596.574,613.64 596.17,614.044C596.17,614.852 596.17,616.064 596.17,616.873C595.766,617.277 595.362,617.681 594.957,617.681C594.553,618.893 595.362,619.297 596.574,620.105C595.766,620.105 595.362,620.105 594.957,620.105C594.553,620.51 594.553,620.914 594.553,621.318C594.553,622.53 594.553,624.147 594.553,625.359C594.553,625.763 594.957,625.763 595.362,626.167C595.362,626.975 595.766,627.38 594.553,627.784C594.553,628.592 594.553,629.4 594.553,629.804C593.745,629.804 592.937,629.804 592.129,629.804C592.129,631.825 591.32,633.845 589.704,635.058L589.704,635.462C589.3,637.078 588.896,638.695 588.492,640.715C588.492,640.715 588.896,641.119 589.3,641.524C589.704,641.119 590.108,641.119 590.512,640.715C591.32,641.524 591.725,642.332 591.32,643.544C590.916,643.948 590.512,643.948 590.108,644.352C590.512,644.756 590.512,645.161 590.916,645.565C590.512,646.373 590.108,646.777 589.704,647.585C589.3,647.181 588.896,646.777 588.896,646.373C588.492,645.969 588.087,645.565 586.875,646.777C588.087,647.181 588.896,647.989 589.704,648.798C589.704,649.606 589.3,650.01 589.3,650.818C589.704,650.818 590.512,650.818 590.916,650.818C590.916,650.414 590.916,650.01 590.916,649.606C592.533,648.394 592.937,646.777 592.937,644.756C595.766,641.119 595.766,639.099 594.957,636.674C594.957,635.866 595.362,635.058 595.766,634.249C595.766,633.845 596.17,633.441 596.574,633.441C597.382,633.037 597.786,633.037 598.594,633.037L598.999,633.441C598.19,633.845 597.786,633.845 597.382,634.654C596.978,635.058 596.978,635.866 596.574,636.674C596.574,637.482 596.17,637.887 595.766,638.291C596.978,639.503 597.382,640.311 598.19,641.524C597.786,641.928 597.786,642.332 597.786,642.736C597.786,643.14 598.19,643.544 598.19,643.948C597.786,644.352 597.382,645.161 596.978,645.565C596.574,647.585 596.574,648.394 597.382,648.394C597.382,648.394 597.786,647.989 597.786,647.585C598.594,647.585 599.403,647.181 600.211,646.777C600.615,647.585 600.615,647.989 601.019,648.394C601.423,648.798 601.827,648.798 602.636,648.798C602.636,649.606 602.232,650.414 602.232,651.222C603.04,652.031 603.444,652.435 603.848,653.243C604.252,653.647 604.252,654.455 604.656,655.264C604.252,655.668 604.252,656.072 603.848,656.476C604.656,656.476 605.06,656.476 605.464,656.476C605.464,657.284 605.464,658.092 605.869,659.305C605.06,658.901 604.656,658.901 604.252,658.901C603.444,659.305 603.04,659.709 602.636,660.113C601.827,658.901 601.423,658.496 601.019,657.688C600.615,657.688 600.211,658.092 599.807,658.092C599.807,658.901 599.807,659.305 599.807,659.709C597.786,660.921 595.362,661.325 595.362,660.921C595.362,660.517 595.766,660.517 596.17,660.113C595.766,658.901 596.978,657.688 595.362,656.476C594.553,656.88 594.149,657.284 593.341,657.688C592.937,657.688 592.129,657.284 591.725,657.284C591.32,656.476 590.512,656.072 590.108,655.264C590.108,654.859 590.108,654.455 590.108,653.647C589.3,654.051 589.3,654.051 588.896,654.051C588.896,654.455 589.3,654.455 589.3,654.859C588.492,656.072 587.279,655.264 586.067,655.264C585.663,656.072 584.855,657.284 584.45,658.496C584.046,659.305 584.45,660.921 584.046,662.133C583.642,662.133 583.642,662.538 583.238,662.538C582.834,663.75 582.43,664.558 582.026,665.771C581.218,666.175 580.813,666.983 580.005,667.387C580.005,668.195 580.409,668.599 580.409,669.408C580.005,669.812 579.601,669.812 579.197,670.216C578.793,671.832 578.389,673.045 578.389,674.257C578.389,676.278 576.772,677.49 575.964,679.51C575.964,679.915 575.964,680.319 575.964,680.319C575.56,681.531 575.56,682.339 575.156,683.552C575.156,683.552 574.752,683.956 574.348,683.956C574.752,683.956 574.752,684.36 574.752,684.36C574.348,685.168 573.943,686.38 573.539,687.189C573.135,688.401 573.135,689.613 572.731,691.23C571.923,692.846 571.519,694.867 572.327,696.483C571.923,697.292 571.519,698.1 571.519,698.504C570.71,698.908 569.498,698.504 569.498,699.716C569.902,699.716 570.71,699.312 571.519,698.908C571.519,700.12 572.327,700.929 571.519,702.141C570.306,701.737 569.902,700.524 569.498,699.716C569.094,699.716 569.094,700.12 569.094,700.12C567.882,699.716 567.073,699.716 565.861,699.312L565.861,698.908C566.265,698.908 566.669,698.908 567.478,698.504C567.073,698.1 566.669,697.696 565.861,696.887C565.861,696.483 565.861,695.675 565.457,694.867C565.053,693.25 564.649,692.038 563.841,690.826C563.436,690.017 563.436,689.209 563.032,688.401C562.628,686.785 562.224,684.764 561.012,683.552C560.203,681.935 559.799,680.319 559.395,678.702C558.991,677.49 558.587,676.278 558.183,675.065C558.587,673.045 558.587,673.045 557.375,671.428C556.971,671.024 556.971,670.216 556.971,669.812C556.566,666.983 555.758,664.154 553.738,662.538C553.738,661.729 553.738,661.325 553.738,660.921C552.929,659.305 552.525,658.092 551.717,656.476C550.909,656.88 550.505,654.859 548.888,655.668C549.292,656.476 549.292,656.88 549.292,657.688C550.101,657.688 550.505,657.688 550.505,658.092C550.909,658.901 550.909,659.709 551.313,660.921C550.909,661.325 550.505,661.729 550.101,662.133C549.696,661.729 549.292,661.729 548.888,661.325L549.292,660.921C548.888,660.113 548.888,659.305 548.888,658.496C548.08,658.901 547.676,659.305 547.272,659.709L547.272,659.305C547.272,658.901 547.272,658.496 547.272,658.092C547.272,657.688 547.272,656.88 546.868,656.476C546.868,656.476 546.464,656.476 546.059,656.476C546.464,655.668 546.868,655.264 547.676,654.859C546.868,654.051 546.059,653.647 546.868,652.435C547.272,653.243 548.08,654.051 548.888,654.859C549.696,654.051 549.696,652.839 550.101,652.435C550.101,651.222 548.484,652.031 548.484,650.414C548.888,650.414 548.888,650.01 549.292,650.01C549.292,649.202 549.292,648.798 549.292,647.989C548.08,647.989 546.868,647.585 546.059,647.585C546.464,646.777 546.868,645.565 547.272,644.756C546.464,644.756 546.059,644.756 545.655,644.352C545.251,643.948 544.847,643.544 544.847,643.14L544.847,642.736C544.847,641.928 544.847,640.715 544.847,639.503C544.443,639.099 544.039,639.099 543.635,639.099C543.231,636.674 542.422,634.654 541.21,633.037C540.402,631.421 539.998,630.612 539.189,628.996C539.189,628.996 538.785,628.592 538.381,628.188C538.381,626.167 537.977,624.551 537.977,622.53C537.573,621.318 537.169,620.105 537.169,618.489C536.765,618.085 536.765,618.085 536.361,618.085C536.361,616.873 536.361,616.064 536.361,615.256C536.361,614.852 535.957,614.448 535.957,614.448C535.552,613.64 535.552,613.235 535.552,612.831C535.148,612.831 534.744,612.831 533.936,613.235C534.34,612.427 534.744,612.023 535.148,611.215C535.148,610.811 535.148,610.003 534.744,609.194C533.532,607.982 533.936,605.961 532.319,604.749C531.915,604.345 531.915,603.537 531.511,603.133C531.511,602.728 531.511,602.324 531.511,601.92C530.703,599.091 529.895,596.667 529.087,594.242C528.682,593.03 528.278,592.221 527.874,591.413C527.066,590.201 527.066,588.584 526.662,586.968C526.258,586.16 526.258,585.351 525.45,584.947C525.045,584.139 524.641,583.331 525.045,582.523C524.641,582.523 523.833,582.119 523.833,582.119C523.429,581.31 523.025,580.502 522.621,579.694C522.217,578.077 521.812,576.057 521.004,574.44C520.6,573.228 519.792,571.612 520.196,569.995C520.196,569.591 519.792,568.783 519.388,567.57C519.388,567.57 518.984,567.166 518.58,567.166C518.58,566.358 518.58,565.954 518.58,565.55C517.771,565.55 517.367,565.55 516.963,565.55C516.155,564.337 517.771,563.933 517.771,562.721L517.367,562.317C517.367,561.105 517.367,560.296 517.367,559.892C516.963,559.488 516.963,559.084 516.559,558.68C516.559,558.276 516.559,557.872 516.963,557.467C516.155,556.255 515.751,555.043 515.347,553.83ZM544.847,649.202C544.039,648.798 543.231,648.798 542.826,648.394C542.826,647.181 542.826,645.969 544.039,645.565C544.847,646.373 544.847,647.181 544.039,647.585C544.039,648.394 544.443,648.798 544.847,649.202C545.655,648.798 545.655,650.01 546.059,650.414C545.655,651.626 545.251,652.839 544.847,654.051C544.039,652.839 542.826,652.839 542.422,651.626C543.231,651.626 544.443,652.839 545.251,651.626C545.251,651.626 544.847,651.222 544.847,650.818C544.039,650.818 542.826,650.818 542.422,649.606C543.231,649.606 544.039,650.414 544.847,649.202ZM639.814,627.784C639.006,626.975 638.602,626.571 639.41,625.763C640.218,625.359 640.623,625.359 641.431,626.167C640.623,626.571 640.218,626.975 639.814,627.784C640.218,628.996 639.814,630.612 639.41,632.229C639.41,632.633 639.41,633.441 639.41,634.249C639.006,634.654 638.602,634.654 638.602,635.058C638.198,635.462 638.198,635.866 638.198,636.674C637.794,636.674 637.39,636.27 636.581,636.27C636.985,635.058 636.985,634.249 636.985,633.037C637.39,633.037 637.794,633.037 638.602,633.037C638.198,632.229 637.794,631.421 636.985,630.612C637.39,630.612 637.794,630.612 637.794,630.208C638.602,629.4 639.006,628.592 639.814,627.784ZM631.328,635.866C631.732,636.27 632.136,636.27 632.944,636.674C632.54,637.482 632.944,638.291 634.157,639.099C632.54,639.907 632.54,640.715 632.944,642.332C631.732,642.736 630.924,642.736 630.116,643.14C630.52,643.14 630.924,643.544 631.328,643.948C630.924,644.352 630.52,644.756 630.52,645.161C630.116,645.161 629.307,645.565 628.903,645.565C628.499,645.161 628.499,645.161 628.095,644.756C628.499,644.352 628.499,643.948 628.903,643.544C628.499,643.544 627.691,643.948 627.287,644.352C626.883,642.736 628.095,641.928 628.499,641.119C628.499,640.311 628.499,639.099 628.095,637.887C629.307,637.482 630.52,636.674 631.328,635.866C630.924,635.058 630.52,633.845 630.52,633.037C630.52,632.229 630.924,631.825 631.328,631.421C630.924,631.421 630.52,631.017 629.711,630.612C630.52,630.612 631.328,630.208 632.136,630.208C631.732,629.804 631.732,629.4 631.328,629.4C632.136,628.996 632.944,628.188 633.753,627.784C633.753,626.975 633.348,626.167 634.157,625.763C635.369,626.167 634.965,627.38 635.369,627.784C635.369,628.592 634.965,628.996 634.561,629.804C634.561,629.804 634.157,630.208 633.348,630.208C633.753,631.017 634.157,631.825 634.561,632.633C634.561,632.633 634.561,632.229 634.965,632.229C634.561,633.037 634.561,633.441 634.561,634.249C634.157,633.845 633.753,633.845 633.348,633.441C632.944,633.441 632.136,633.441 631.732,633.845C632.54,635.058 632.136,635.462 631.328,635.866ZM541.614,733.662C542.422,734.066 542.826,734.874 543.231,735.278C544.443,736.087 545.655,735.683 545.655,734.066C545.251,734.066 545.251,734.066 544.847,733.662C544.847,733.662 545.251,733.258 545.251,732.854C545.655,732.854 546.059,732.854 546.464,733.258C547.272,732.854 547.272,731.641 548.484,731.641C548.484,732.046 548.484,732.45 548.484,733.258C549.292,733.662 550.505,734.47 552.121,734.874C552.121,734.066 552.121,733.662 552.121,733.258C552.121,732.45 552.525,732.046 552.525,730.833C553.334,731.641 553.334,732.046 554.142,732.854C553.738,733.258 553.738,734.066 553.334,735.278C553.334,735.278 553.334,736.087 553.334,736.895C551.717,735.683 550.101,736.087 548.888,737.299C548.08,737.299 547.272,737.299 545.655,737.299C545.251,738.107 544.443,738.511 543.231,739.32C543.231,738.915 543.231,738.511 543.231,738.107C542.422,737.703 541.614,737.703 540.806,737.703C540.402,737.703 540.402,737.299 540.402,736.895C539.998,736.895 539.594,736.895 539.189,736.491C538.785,736.087 538.381,735.278 538.381,734.47C537.573,734.066 537.169,734.066 536.765,733.662C537.169,733.662 537.573,733.258 537.977,733.258C539.189,733.662 540.402,733.662 541.614,733.662C541.614,733.258 541.21,732.45 541.21,732.046L541.614,731.641C542.018,732.046 542.826,732.45 543.231,732.854L543.231,733.258C542.826,733.258 542.018,733.662 541.614,733.662ZM579.197,712.244C577.985,710.627 577.985,710.627 575.156,710.223C574.752,709.819 573.943,709.819 573.539,709.415C573.135,709.011 572.731,708.607 571.923,707.799C571.923,707.799 571.923,707.394 571.519,706.586C572.327,706.99 573.135,706.99 573.539,706.99C573.943,706.586 574.348,706.182 574.348,705.778C573.943,704.566 572.327,704.566 571.923,702.949C572.327,702.545 572.731,702.141 573.135,701.737C573.539,702.141 573.943,702.545 574.348,702.545C575.156,703.353 575.964,704.162 576.368,704.566C577.985,706.586 580.005,708.203 580.409,710.627C580.409,711.436 580.409,712.244 579.197,712.244ZM647.088,614.852C646.684,614.852 646.28,615.256 645.876,615.256C645.068,616.064 644.664,617.277 643.855,618.085L644.26,618.085C643.451,618.489 643.047,618.893 642.239,619.297C642.239,618.085 642.239,617.681 642.239,616.468C642.643,616.064 643.047,615.66 643.451,615.256C643.451,614.448 643.855,613.235 643.855,612.023C644.26,612.427 644.26,612.427 644.664,612.831C645.876,612.023 645.472,610.811 645.876,610.003C646.28,611.215 646.684,612.427 646.684,613.64C646.28,613.64 645.876,613.64 645.472,613.64C645.876,614.448 646.28,614.852 647.088,614.448L647.088,614.852ZM536.361,724.771C536.361,724.771 535.957,724.771 535.957,725.176C535.552,724.771 535.148,724.771 534.744,724.367C533.936,724.771 533.532,725.176 533.128,725.58C532.724,724.771 532.319,723.963 531.915,723.155C532.319,722.751 532.724,721.943 533.532,721.134C534.34,722.347 535.148,723.155 536.361,724.771ZM605.869,633.441C604.656,633.845 603.848,633.845 603.04,634.249C602.636,633.037 603.04,632.229 603.848,631.421C603.848,630.208 603.848,628.996 605.06,628.188C605.06,628.188 605.464,628.592 606.273,628.592C605.464,629.4 605.06,629.804 604.656,630.208C604.656,630.612 604.656,631.017 604.656,631.825C605.06,631.825 605.06,631.825 605.464,631.825C605.464,632.229 605.869,633.037 605.869,633.441ZM611.93,656.88C611.93,657.688 611.526,658.092 611.122,658.901C610.314,658.901 609.91,658.901 609.506,659.305C609.101,658.901 608.293,658.901 607.889,658.496C607.889,658.092 607.889,657.284 607.485,656.88C607.485,656.476 607.485,656.072 607.485,655.264C608.293,655.264 608.697,655.264 609.506,655.264C609.101,656.072 608.697,657.284 609.101,658.092C609.506,658.092 609.91,658.092 610.314,658.496C609.91,657.688 609.91,657.688 609.91,656.88C610.718,656.88 611.122,656.88 611.93,656.476L611.93,656.88ZM529.087,713.456C529.491,714.264 529.895,715.073 530.299,715.881C529.895,716.285 529.895,717.497 529.895,718.306C527.874,717.901 527.066,716.689 528.278,715.073C528.278,714.669 528.682,714.264 529.087,713.456ZM617.588,627.784C616.78,627.784 616.376,627.784 615.971,627.784C615.971,628.592 615.971,629.804 615.971,630.612C616.376,631.017 616.78,631.825 616.78,632.229L616.78,632.633C616.376,632.229 615.567,632.229 615.163,631.825C615.163,631.017 614.759,630.208 614.355,629.4C614.759,628.996 614.759,628.996 615.163,628.592C614.759,628.188 614.759,627.784 614.355,627.38C615.163,627.38 615.567,626.975 615.971,626.975C616.376,626.975 616.78,627.38 617.588,627.784ZM544.443,725.58C543.635,724.771 543.231,723.963 542.826,723.559C542.826,722.347 542.422,721.134 542.018,720.326C544.039,719.922 544.443,722.751 544.443,725.58ZM517.771,703.757C517.367,704.162 516.963,704.566 516.559,704.566C515.751,704.566 515.347,704.162 514.134,703.757C515.347,702.949 514.538,701.333 516.155,700.929C516.155,701.737 516.155,702.545 516.155,703.353C516.963,703.353 517.367,703.353 518.175,703.353L517.771,703.757ZM614.759,637.887C615.163,637.078 615.567,636.674 616.376,635.866C617.184,635.866 617.184,636.27 617.184,637.078C616.78,637.887 616.376,638.695 615.971,639.099C614.759,639.099 614.759,639.099 614.759,637.887ZM620.013,624.147C619.204,624.147 618.8,624.147 617.992,624.147C617.992,623.338 619.204,623.742 619.609,623.338C619.609,622.934 619.609,622.126 619.609,621.318C620.013,621.318 620.417,621.318 620.821,621.318C620.821,621.722 621.225,622.53 621.225,623.338C621.225,623.742 620.821,624.147 620.417,624.551L620.013,624.147ZM538.381,726.388C538.785,725.176 538.785,724.367 539.594,723.963C539.594,723.559 539.998,723.155 539.998,722.751C541.21,723.559 541.21,723.963 540.402,725.984C539.998,725.984 539.189,725.984 538.381,726.388ZM605.06,638.291C605.06,638.695 605.06,639.099 605.464,639.503C604.656,639.503 604.656,639.099 604.252,639.099C603.848,639.503 603.444,639.907 603.04,640.311C602.636,639.907 602.636,639.907 602.232,639.503C602.636,639.099 602.636,639.099 603.04,638.291C603.04,638.291 602.636,637.887 602.232,637.482C603.444,637.482 603.444,637.482 605.06,638.291ZM628.903,634.654C628.499,635.058 628.095,635.058 627.691,635.462C626.883,634.249 627.691,633.441 627.691,632.633C628.095,632.229 628.499,631.825 629.307,631.825C629.307,632.229 629.711,632.229 629.711,632.633C629.307,632.633 628.903,632.633 628.095,632.633C628.499,633.441 628.903,634.249 628.903,634.654ZM526.258,727.6C526.662,728.004 526.662,728.004 527.066,728.408C527.47,728.004 527.47,728.004 527.874,727.6C528.682,728.813 528.682,728.813 526.662,729.621C526.258,729.217 525.45,728.408 524.641,728.004C525.045,726.792 525.854,727.6 526.258,727.6ZM620.013,625.359C620.013,626.167 619.609,626.571 619.609,627.38C619.609,627.38 620.013,627.784 620.417,628.188C620.013,628.188 620.013,628.188 619.609,628.188C618.8,628.188 618.396,627.784 618.396,626.167C618.8,626.167 619.204,625.763 620.013,625.359ZM608.697,686.38C608.697,685.168 608.697,685.168 609.506,684.764C609.506,685.168 609.506,685.572 609.506,685.976C610.314,686.785 611.526,686.785 611.93,687.997C610.718,687.593 609.91,687.189 608.697,686.38ZM607.485,627.38C607.081,627.784 606.677,627.784 606.273,628.188C605.464,627.38 605.06,626.975 604.656,626.167C605.869,625.763 606.677,626.167 607.485,627.38ZM531.107,729.217C530.703,728.813 530.703,728.813 530.299,728.408C530.703,728.408 530.703,728.004 530.703,728.004C531.511,728.004 531.915,728.813 532.319,729.621C531.915,730.025 531.511,730.833 530.703,731.641C530.299,730.429 530.703,730.025 531.107,729.217ZM573.539,757.909C572.731,757.505 572.327,757.101 571.115,757.101C572.327,756.292 573.135,755.484 573.943,755.08L573.943,754.676C573.539,755.08 573.539,755.888 573.135,756.697C573.135,756.697 573.539,757.101 573.539,757.505L573.539,757.909ZM523.833,701.737C524.641,702.141 525.045,702.545 525.45,702.949C525.045,703.353 524.641,703.757 524.237,704.162C523.833,704.162 523.429,703.757 523.429,702.949C523.429,702.545 523.833,702.141 523.833,701.737ZM611.122,692.442C610.314,692.442 609.91,692.038 609.101,692.038L609.101,691.634C609.91,691.23 610.718,690.826 611.93,690.422L611.93,690.826C611.526,691.23 611.526,691.634 611.122,692.442ZM603.444,634.249C604.252,635.058 604.656,635.462 605.464,635.866C605.06,636.27 605.06,636.674 604.656,636.674C604.252,636.27 603.444,635.866 602.636,635.058C603.04,635.058 603.04,634.654 603.444,634.249ZM607.889,641.119C607.081,641.928 606.273,641.524 605.06,641.524C605.869,640.715 606.273,639.907 606.677,639.099C606.677,639.503 607.081,639.503 607.081,639.503C607.081,639.907 606.677,640.311 606.677,640.715C607.081,640.715 607.485,641.119 607.889,641.119ZM480.997,544.94L480.997,546.96C480.593,546.556 480.189,546.152 479.38,545.748C479.784,544.94 479.784,544.536 479.784,544.132C480.189,544.132 480.593,544.536 480.997,544.94ZM646.28,608.79C647.493,607.982 647.897,608.386 648.301,609.598C647.897,609.598 647.493,610.003 647.493,610.003C647.088,609.598 646.684,609.194 646.28,608.79ZM534.34,726.388C534.34,726.388 534.34,726.792 533.936,727.196C533.936,727.196 533.532,727.196 533.128,727.196C533.128,727.196 532.724,727.6 532.319,728.004C532.319,727.196 531.915,726.792 531.915,726.388C532.724,726.388 533.532,726.388 534.34,726.388ZM628.499,647.585C628.095,647.585 627.691,647.181 626.883,647.181C626.883,646.373 626.883,645.969 626.883,645.161C628.499,645.161 627.691,647.181 628.903,647.181C628.903,647.181 628.903,647.585 628.499,647.585ZM623.65,578.077C623.65,578.886 623.65,579.694 623.65,580.502C623.246,580.502 622.841,580.098 622.437,580.098C622.033,579.29 622.437,578.481 623.65,578.077ZM569.902,758.717C569.902,758.717 569.498,758.717 569.094,759.121L569.094,758.717C569.498,758.313 569.902,757.909 570.71,757.505C571.115,757.909 571.115,758.313 571.519,759.121C570.71,758.717 570.71,758.717 569.902,758.717ZM628.903,578.481C629.307,578.077 629.711,578.077 629.711,577.673C630.52,578.077 631.328,578.481 631.732,578.886C630.924,579.29 630.116,579.29 628.903,578.481ZM634.965,639.907C635.369,639.907 635.773,640.311 636.581,640.311C636.581,640.715 636.177,641.119 636.177,641.524C635.773,641.119 635.773,641.119 635.369,641.119C634.965,641.119 634.965,641.119 634.561,641.524C634.561,640.715 634.561,640.311 634.965,639.907ZM595.362,774.074C594.957,774.074 594.149,773.669 593.745,773.265C593.745,772.861 593.745,772.457 593.745,772.053C594.553,772.861 594.957,773.265 595.766,773.669C595.766,774.074 595.766,774.074 595.362,774.074ZM561.82,749.018C561.82,749.827 561.82,750.231 561.82,751.039C561.416,750.635 561.012,750.231 560.203,750.231C560.608,749.422 561.012,749.018 561.82,749.018ZM489.483,613.64C487.867,614.448 487.463,613.64 486.654,612.831C487.059,612.831 487.463,612.427 487.867,612.023C487.867,612.831 487.867,613.235 487.867,613.64C488.271,613.64 488.675,613.64 489.483,613.64ZM643.047,621.722C642.643,621.722 641.835,621.318 641.027,620.914C641.835,620.51 641.835,620.105 642.239,619.701L642.643,619.701C642.643,620.105 642.239,620.105 642.239,620.51C642.643,620.914 643.047,620.914 643.451,621.318L643.047,621.722ZM529.087,734.066C528.278,734.47 527.874,734.47 527.066,734.066C527.874,733.258 527.874,733.258 529.087,734.066ZM546.868,716.285C547.272,716.689 547.676,717.093 548.484,717.497C548.08,717.901 547.676,718.306 547.676,718.306C546.464,717.901 546.464,717.093 546.868,716.285ZM514.134,560.296C514.943,559.488 515.751,559.488 516.559,559.892C515.751,560.296 514.943,561.105 514.134,560.296ZM634.157,636.674C634.561,636.27 634.965,635.462 635.773,635.058L636.177,635.462C635.773,636.27 635.369,637.078 634.157,636.674ZM634.561,580.502C634.157,580.906 633.753,581.31 633.348,581.31L632.944,581.31C632.944,580.906 633.348,580.502 633.348,579.694C633.753,580.098 634.157,580.098 634.561,580.502ZM590.916,673.853C591.32,674.257 591.725,674.661 592.129,675.065C591.32,675.469 590.916,675.469 590.512,675.469C590.512,675.065 590.512,674.661 590.512,674.257L590.916,673.853ZM625.67,659.305C624.862,659.709 624.054,660.113 623.246,660.113C624.054,658.901 624.458,658.901 625.67,659.305ZM551.717,748.21C552.121,748.614 552.525,749.018 552.121,749.827C550.909,749.422 550.909,749.422 551.717,748.21ZM628.499,579.694C628.903,579.694 629.307,580.098 629.711,580.502C628.903,580.906 628.095,580.906 627.691,580.906C627.691,580.502 627.691,580.502 627.287,580.502C627.691,580.098 628.095,579.694 628.499,579.694ZM517.771,712.648C515.751,712.244 514.538,711.436 513.73,709.415C513.73,711.031 513.73,712.244 513.73,713.456C514.134,713.86 514.538,714.264 514.943,714.669C514.943,715.073 514.943,715.477 514.943,715.477C515.347,716.285 515.751,716.689 516.155,717.093C517.367,716.689 517.367,716.285 516.559,715.073C516.155,715.073 516.155,715.073 515.751,715.073C515.751,714.264 515.347,713.86 515.347,713.456C516.155,713.052 516.963,713.052 517.771,712.648ZM630.116,669.003C631.328,669.003 631.732,668.599 632.136,668.195C632.136,666.983 631.732,666.175 631.732,665.771C630.116,666.175 629.307,667.387 630.116,669.003ZM490.291,542.919C491.908,543.728 492.716,542.919 493.524,542.111C493.524,542.111 493.12,541.707 492.716,541.303C492.312,541.707 491.908,541.707 491.504,542.111C491.504,541.707 491.1,541.707 490.696,541.303C490.696,542.111 490.696,542.515 490.291,542.919ZM550.909,789.834L550.909,790.238C552.929,790.238 554.546,790.642 556.162,789.834C555.354,789.834 554.95,789.43 554.546,788.622C554.142,789.026 554.142,789.43 553.738,789.43C552.929,789.43 552.121,789.43 550.909,789.834ZM516.155,709.415C515.751,710.627 516.155,711.436 517.367,711.436C517.367,709.819 517.367,709.415 516.155,709.415ZM512.518,704.97C511.71,704.162 512.518,702.949 511.305,702.141C510.901,702.545 510.901,703.353 510.497,703.757C511.305,704.97 511.305,704.97 512.518,704.97ZM512.518,704.97C512.518,705.374 512.518,705.778 512.114,706.182C512.518,706.586 512.922,706.99 513.326,707.394C512.922,707.394 512.922,707.799 512.922,707.799C512.922,708.203 513.326,708.203 513.326,708.203C513.326,707.799 513.73,707.799 514.134,707.394C513.326,706.586 512.922,705.778 512.518,704.97ZM597.786,767.204C598.19,767.204 598.594,767.608 598.999,767.608C599.403,766.799 599.403,766.395 598.594,765.991C598.19,766.395 598.19,766.395 597.786,767.204ZM588.896,652.839C589.704,652.839 590.108,652.839 590.512,652.839C590.916,652.031 590.512,651.626 589.704,651.222C589.704,651.626 589.3,652.031 588.896,652.839ZM634.157,663.75C634.157,663.346 634.157,663.346 634.157,662.942C633.753,662.538 632.944,662.133 632.54,661.729C632.54,662.133 632.54,662.942 632.944,663.75C633.348,663.75 633.753,663.75 634.157,663.75Z" style="fill:rgb(231,230,222);fill-opacity:0.4;fill-rule:nonzero;"/>
            </g>
        </g>
        <g transform="matrix(1.15898,0,0,1.07459,586.628,23.385)">
            <g id="M3" serif:id="M">
                <path d="M595.362,647.181C594.149,647.181 593.341,647.181 592.129,647.181C591.32,647.585 590.108,647.989 589.3,648.394C587.683,647.989 587.683,646.777 587.683,645.161C588.492,644.352 589.704,643.544 590.916,642.332C592.129,642.736 592.533,643.14 593.341,643.544C593.341,644.352 593.341,645.565 593.341,646.373C594.149,646.777 594.553,646.777 595.362,647.181C595.766,647.181 596.17,647.181 596.574,647.181C597.382,645.565 598.19,644.352 598.999,643.14C599.807,641.524 600.615,639.503 602.232,637.887C603.444,635.866 604.252,633.441 605.06,631.421C605.06,631.017 605.06,630.208 605.06,629.804C603.444,630.208 602.232,630.612 601.019,630.612C600.615,630.208 600.211,629.804 599.807,629.4C599.403,630.208 599.403,630.612 598.999,631.825C598.19,630.208 597.786,628.996 597.382,628.188C598.999,626.167 601.019,624.147 603.848,624.147C604.252,624.147 604.656,624.551 605.869,624.955C604.656,625.359 604.252,625.359 603.848,625.763C603.848,626.167 603.444,626.571 602.636,627.38C604.656,627.38 605.464,626.975 606.273,626.975C609.101,624.147 608.293,619.297 611.526,616.873C610.314,614.044 612.334,612.427 613.951,610.811C614.759,606.77 615.971,602.728 616.78,598.283C617.184,594.242 617.588,590.201 615.567,586.16C615.567,585.756 615.163,585.756 614.759,585.351C613.951,585.351 613.547,585.351 612.334,585.351C612.739,584.139 613.143,583.735 613.547,582.927C613.143,582.523 612.334,582.523 611.93,582.119C611.122,580.906 612.334,579.29 609.91,578.481C610.314,579.694 610.314,581.31 610.314,582.523C609.101,583.735 608.293,584.543 607.485,585.351C607.485,589.393 610.718,593.03 608.293,596.667C607.485,596.667 607.081,596.263 606.677,596.263C606.273,593.434 606.273,590.605 604.656,588.18C603.848,588.18 603.444,588.584 603.04,588.584C602.232,588.584 601.423,588.18 600.211,587.776C601.019,590.201 601.423,591.817 602.232,593.838C601.827,594.646 601.423,595.454 600.615,597.475C600.211,595.454 599.807,594.242 599.807,593.434C599.807,588.989 598.19,584.543 596.574,580.098C596.978,578.077 597.382,575.653 597.786,574.036C597.382,573.228 597.382,572.824 596.978,572.42C594.957,569.995 592.937,568.379 592.937,565.146C592.937,564.337 592.129,563.529 591.725,562.721C590.512,561.509 589.704,559.892 588.492,558.68C589.704,555.851 589.704,555.851 592.129,555.447C592.533,556.659 592.937,557.467 593.341,558.68C595.362,557.063 594.149,555.043 593.745,552.618C592.937,553.022 592.129,553.022 590.916,553.022C590.108,552.214 589.704,551.81 588.896,551.002C586.875,550.598 585.663,550.193 584.855,549.385C585.259,548.173 585.663,546.96 586.067,546.152C588.492,546.556 590.916,547.365 592.937,545.748C592.129,543.728 591.32,542.919 589.704,542.515C587.683,541.707 585.259,541.303 583.238,540.899C581.218,540.495 579.197,540.495 577.176,539.282C574.752,538.07 572.327,537.666 569.498,537.666C567.478,537.666 565.457,537.262 563.032,536.453C560.203,535.645 556.971,535.241 554.546,536.049C550.909,535.241 547.676,533.625 544.443,534.433C544.039,535.241 543.635,536.049 543.231,536.858C542.826,536.049 542.826,535.241 542.422,534.433L542.018,534.433C541.614,534.433 541.21,534.433 540.806,534.029C535.957,533.625 531.511,533.221 527.066,534.433C525.045,534.837 523.429,534.837 521.408,534.837C520.196,534.837 518.58,534.837 517.367,534.837C516.963,536.049 516.559,536.858 516.155,538.07C514.943,537.262 514.134,536.453 513.326,535.645C511.305,536.049 509.285,536.453 507.264,536.858C504.031,536.049 503.223,536.049 499.586,536.858C498.374,537.262 497.161,537.262 495.949,537.666C489.887,538.07 484.23,538.878 478.168,539.686C476.147,540.09 474.127,540.495 472.106,540.495C469.277,540.495 467.257,541.303 464.832,542.919C465.236,544.132 465.236,545.344 465.236,546.556C465.236,548.173 465.64,549.789 465.236,551.406C465.236,554.639 465.236,558.276 464.428,561.509C464.024,563.933 464.024,566.762 464.428,569.591C464.832,574.44 465.64,579.694 465.64,584.543C465.64,584.947 465.64,585.351 466.044,586.16C466.449,588.989 466.853,591.817 467.257,594.646C467.661,595.858 467.661,597.071 467.257,598.283C466.853,602.324 466.449,606.365 466.044,610.407C466.044,611.619 466.044,613.235 466.449,614.852C467.257,618.893 467.661,622.934 466.853,626.975C466.853,628.592 466.449,630.612 466.853,632.633C467.661,638.695 468.469,644.352 467.661,650.414C467.661,650.818 468.065,651.222 468.065,651.626C468.065,654.455 468.469,657.284 468.065,660.113C467.661,666.175 466.853,672.64 466.853,679.106C466.853,684.36 466.853,689.613 467.257,694.867C467.661,699.716 467.661,704.566 466.449,709.819C465.64,713.456 465.64,717.901 466.044,721.943C466.449,727.196 466.449,732.45 466.044,737.299C466.044,741.34 465.64,745.785 467.257,749.827C467.661,751.039 467.661,752.655 467.661,753.868C467.661,758.313 467.661,762.354 468.873,766.799C468.873,767.608 468.873,768.416 468.873,769.224C469.277,771.649 469.277,773.669 469.277,775.69C469.682,782.56 472.51,788.218 476.551,793.471C477.764,793.875 479.38,794.683 480.593,794.683C483.826,795.088 487.059,794.683 490.291,795.896C490.696,795.896 490.696,795.896 491.1,795.896C495.545,795.896 499.99,795.896 504.435,795.088C505.244,795.088 506.456,795.088 507.264,795.088C510.093,795.492 512.518,795.088 514.538,793.471C514.943,792.259 514.943,791.046 515.347,789.834C516.155,787.005 516.155,784.581 515.751,782.156C515.347,780.539 515.751,779.327 515.751,778.115C515.751,776.094 515.751,774.074 515.751,771.649C515.751,769.224 515.347,766.395 515.347,763.567C515.347,758.717 515.347,753.464 514.538,748.21C513.73,744.169 514.134,739.724 513.326,735.278C512.114,729.621 512.518,723.963 514.943,718.71C515.347,718.71 515.347,718.306 515.347,717.901C514.943,716.689 514.538,715.881 514.538,715.073C514.538,712.648 514.943,709.819 515.347,707.394C516.963,706.586 518.58,706.182 520.6,704.97C518.58,704.566 517.771,704.566 516.559,704.162C515.751,702.545 515.751,702.545 516.155,700.524C517.771,700.929 518.984,701.333 520.196,701.737C520.6,702.545 521.004,703.353 521.408,704.566C523.429,704.566 525.045,704.162 526.662,704.162C526.662,702.141 527.874,701.333 529.087,700.929C530.299,701.333 531.511,701.737 533.128,702.141C533.532,700.929 533.532,699.716 533.936,698.504C535.148,698.1 536.361,697.696 537.977,697.292C538.785,698.1 539.189,698.908 539.594,699.312C541.21,699.716 542.826,699.716 544.039,700.12C548.484,698.908 552.929,697.292 556.566,694.463C558.991,692.846 561.82,691.23 564.649,690.017C566.265,688.805 568.286,687.997 569.902,686.785C571.115,686.38 571.519,685.168 572.327,684.764C572.327,682.743 571.519,681.935 570.306,681.531C569.902,681.531 569.094,681.531 567.882,681.935C569.498,680.319 570.306,679.51 571.923,678.298C572.327,680.319 572.327,682.339 573.943,683.552C575.964,681.935 577.58,679.915 578.389,677.49C577.176,677.086 576.368,677.086 575.156,676.682C574.752,676.278 574.752,675.469 574.348,674.661C575.156,674.661 575.56,674.257 576.368,674.257C576.772,671.024 579.601,669.408 582.026,667.387C582.026,664.962 583.642,663.75 585.259,662.538C587.279,661.325 589.3,660.113 590.916,658.901C590.916,658.092 590.916,657.284 590.916,657.284C592.533,653.243 593.745,650.01 595.362,647.181ZM565.053,551.406C566.265,551.406 567.478,551.406 568.69,551.406C568.69,551.81 568.69,552.618 568.69,553.022C567.478,553.022 566.265,553.022 565.053,553.022C565.053,552.214 565.053,551.81 565.457,551.406C564.245,551.002 563.032,551.406 561.82,550.193C563.436,548.981 563.841,549.385 565.053,551.406ZM512.922,580.098C514.943,578.481 516.963,577.673 519.388,577.269C523.025,576.865 526.258,576.057 529.895,576.057C534.744,575.653 539.998,575.653 544.847,576.461C546.059,576.865 547.272,576.865 548.484,576.865C552.525,576.865 556.162,578.481 558.991,581.31C560.608,581.714 562.224,582.119 563.436,582.523C565.861,583.735 567.073,585.756 567.882,588.18C567.073,588.584 566.669,588.989 565.861,589.393C566.265,589.797 567.073,590.201 567.478,590.605C567.882,591.413 568.286,592.626 568.69,593.838C568.286,595.05 567.882,595.858 567.478,597.475C567.882,600.304 567.478,603.941 566.669,606.77C566.265,609.598 564.245,613.235 562.224,614.852C561.012,616.468 560.203,618.489 558.991,620.51C557.375,622.934 556.566,625.359 554.95,627.784C553.334,629.804 551.313,631.421 549.292,633.441C546.464,635.866 543.635,638.695 540.402,641.524C538.785,643.14 537.169,644.756 535.148,646.373C534.744,647.181 533.936,647.989 533.128,647.989C529.087,648.798 525.45,650.414 521.408,650.414C519.792,650.414 518.58,650.414 516.963,649.606C516.963,647.989 516.155,646.373 515.751,644.756C514.943,642.332 514.943,639.907 514.943,637.482C514.538,631.825 514.943,626.167 514.943,620.105C514.943,618.085 514.943,616.468 514.538,614.448C514.538,609.194 514.134,604.345 513.73,599.091L513.73,598.687C514.943,595.454 513.73,591.817 513.326,588.584C512.518,585.756 512.518,582.927 512.922,580.098ZM561.82,662.538C560.608,662.942 559.395,663.346 558.183,663.75C554.95,660.921 552.929,656.88 550.101,653.647C550.505,651.626 552.121,652.031 553.334,652.031C552.929,650.414 552.929,648.798 552.525,647.181C554.546,647.181 555.758,646.373 556.566,645.161C558.587,642.332 560.203,642.332 564.245,643.948C563.841,645.161 563.436,646.373 563.032,647.585C563.436,648.394 563.841,648.798 563.841,649.606C564.649,650.01 565.053,650.01 565.457,650.414C565.861,651.626 565.861,652.435 566.265,653.647C564.649,655.264 563.436,657.284 563.032,660.113C563.841,659.709 564.245,659.709 564.649,659.305C566.265,658.496 567.882,657.284 569.498,655.668C569.902,655.264 570.306,654.455 570.71,653.647C571.519,654.455 572.327,655.264 572.731,655.668C572.731,658.496 570.306,658.901 568.69,660.517C568.286,661.325 567.882,662.538 567.478,663.346C567.478,664.558 567.478,665.366 567.478,666.579C565.861,666.983 564.649,667.387 562.628,667.791C563.436,666.579 564.245,665.366 564.649,664.558L564.245,664.154C563.841,664.154 563.436,664.154 563.032,664.154C562.628,663.75 562.224,662.942 561.82,662.538ZM543.635,680.723C544.443,682.339 545.251,684.36 546.059,685.572C546.868,686.38 547.676,686.785 548.484,687.189C548.08,687.593 548.08,687.593 548.08,687.997C546.059,688.401 544.039,688.401 542.422,688.805C542.018,690.017 541.614,690.826 541.21,691.634C539.189,692.846 537.169,694.059 535.148,695.271C533.936,694.867 532.724,694.463 531.511,694.059C531.107,693.25 530.299,692.038 529.895,691.23C529.895,690.017 529.895,688.401 529.895,687.189C533.936,683.956 538.785,682.339 543.635,680.723ZM536.361,669.003C539.189,671.428 539.998,675.065 542.422,677.894C541.21,679.106 539.998,679.915 538.785,681.127C537.169,681.531 535.552,681.935 533.936,682.339C533.128,680.723 534.34,679.51 534.744,677.894C534.34,677.49 533.936,676.682 533.532,675.873C533.532,673.045 534.744,671.024 536.361,669.003ZM535.148,569.187C537.573,565.55 541.614,566.762 544.847,565.55C545.251,564.742 545.655,563.933 545.655,563.125C546.059,563.125 546.464,562.721 546.868,563.125C547.272,563.529 548.08,563.933 548.888,564.337C549.292,564.337 549.696,565.146 550.101,565.954C548.484,566.358 547.272,566.762 546.059,566.762L545.655,567.166C545.655,567.974 545.655,568.379 545.655,569.187C545.251,569.187 544.847,569.591 544.443,569.591C544.443,569.995 544.443,570.399 544.443,570.803C541.21,572.42 538.381,569.995 535.148,569.187ZM560.203,544.94C559.395,545.344 558.587,545.748 557.779,546.152C557.375,545.344 556.566,544.94 555.758,544.132C554.95,544.536 554.142,544.536 553.334,544.536C552.121,544.132 550.909,543.728 550.505,542.111C551.313,540.899 552.121,539.282 552.929,537.666C554.95,538.07 556.971,536.858 558.991,538.474C558.991,539.282 558.587,539.686 558.183,540.495C558.991,541.707 559.395,543.323 560.203,544.94ZM527.874,541.303C527.066,540.09 526.662,539.282 525.854,538.07C525.045,538.474 523.833,538.878 522.621,539.686C522.217,538.878 521.812,538.878 521.812,538.474C523.833,536.049 527.066,535.645 529.895,534.837C530.703,535.241 531.511,536.049 532.724,536.453C532.724,537.262 532.724,537.666 532.724,538.474C531.107,539.282 529.895,540.09 527.874,541.303ZM569.902,636.27C570.306,637.482 570.71,638.291 571.115,639.503C571.923,639.907 573.135,640.715 574.348,641.119C574.348,642.736 573.943,643.948 573.943,645.161C572.731,645.565 572.327,644.352 571.923,643.948C571.115,643.544 570.306,643.14 569.498,642.736C569.902,642.332 570.306,641.928 570.71,641.119C569.498,640.311 568.286,639.099 567.478,637.887C567.882,636.674 568.69,635.866 569.902,636.27ZM516.155,555.851C516.155,556.255 515.347,556.659 515.347,557.063C512.922,556.659 512.922,555.447 512.518,554.639C512.114,553.426 512.114,551.81 512.114,550.598C512.922,550.598 514.134,550.598 515.347,550.598C515.347,552.214 515.751,553.83 516.155,555.851ZM551.717,559.084C552.929,559.084 554.142,559.488 554.546,561.509C553.738,561.913 552.929,562.721 552.525,563.529C550.909,563.125 550.101,562.721 548.888,562.317C548.484,561.509 548.484,561.105 548.484,560.296C549.696,559.892 550.505,559.488 551.717,559.084ZM556.162,570.803C555.354,571.612 554.95,572.016 554.142,573.228C552.929,572.42 551.717,572.016 550.101,571.612C551.717,569.591 553.334,568.783 555.354,569.591C555.758,569.591 555.758,569.995 556.162,570.803ZM538.381,540.09C540.402,538.07 542.422,537.666 545.251,538.474C544.443,539.282 544.039,540.09 543.635,540.495C542.018,540.495 540.402,540.495 538.381,540.09ZM578.389,547.365C579.197,545.748 580.005,544.536 580.813,542.919C581.622,543.728 582.026,544.536 582.834,544.94C582.834,546.556 582.026,546.96 581.218,547.365C580.409,547.769 579.601,547.365 578.389,547.365ZM514.943,693.25C516.963,694.867 518.58,695.675 520.196,697.292C519.388,697.696 518.58,698.1 517.771,698.504C516.559,696.887 515.347,695.675 514.943,693.25ZM522.217,696.483C523.025,696.079 523.833,695.271 524.641,694.463C525.854,694.867 526.662,695.271 527.874,695.675C527.874,696.483 527.47,696.887 527.47,697.292C525.854,697.292 524.237,697.292 522.621,697.292C522.621,696.887 522.621,696.887 522.217,696.483ZM596.574,633.037C596.978,633.441 597.382,633.845 597.786,633.845C597.786,635.462 596.978,636.674 596.17,638.291C595.362,637.078 594.957,636.674 594.149,635.866C594.957,634.654 595.766,633.845 596.574,633.037ZM547.676,695.675C548.08,696.079 548.08,696.483 548.484,697.292C547.272,697.696 546.464,698.1 545.655,698.1C544.443,697.292 543.635,696.483 542.422,695.675C544.039,695.675 545.655,695.675 547.676,695.675ZM504.84,670.62C504.031,670.62 503.627,670.62 502.819,670.62C502.819,670.62 502.415,670.216 502.011,669.812C502.415,668.599 502.415,666.983 504.031,666.579C505.648,667.791 505.244,669.003 504.84,670.62ZM509.285,786.601C511.305,787.005 512.518,788.218 513.326,790.238C512.518,790.238 511.71,790.642 511.305,790.238C510.093,789.43 508.881,788.622 509.285,786.601ZM562.224,567.57C561.416,567.166 561.012,566.762 560.608,566.358C562.224,564.742 563.032,562.721 565.457,563.125C564.649,564.742 563.436,565.954 562.224,567.57ZM580.005,660.921C578.793,662.538 577.176,662.133 575.964,662.133C576.368,660.113 577.176,660.113 580.005,660.921ZM557.779,551.406C558.587,551.002 558.991,550.598 559.395,549.789C560.608,551.406 560.203,552.618 560.608,554.639C559.395,553.426 558.587,552.618 557.779,551.406ZM552.121,576.461C550.909,575.249 550.101,574.844 549.292,574.036C550.505,573.228 551.313,573.632 552.525,574.44C552.121,574.844 552.121,575.249 552.121,576.461ZM554.546,576.057C555.354,574.844 555.758,573.632 557.779,573.632C557.375,574.844 556.971,575.249 556.566,576.461C555.758,576.057 555.354,576.057 554.546,576.057ZM561.416,541.303C561.012,540.09 560.608,539.686 560.608,538.07C561.82,538.878 562.224,539.282 563.436,539.686C562.628,540.495 562.224,540.495 561.416,541.303ZM553.334,694.059C552.525,694.463 552.121,694.463 551.717,694.867C551.313,694.059 550.909,693.25 550.909,692.846C550.909,692.442 550.909,692.442 551.313,692.442C551.717,692.846 552.525,693.25 553.334,694.059ZM551.717,549.385C552.525,549.385 553.334,549.385 553.738,549.385C553.334,550.598 553.334,550.598 551.717,549.385ZM587.683,569.591C587.279,569.187 586.875,568.783 586.471,568.379L586.875,567.974C587.683,568.379 588.087,568.783 588.492,569.187C588.492,569.591 588.087,569.591 587.683,569.591ZM574.752,558.276C574.348,557.467 573.943,556.659 573.943,555.851C575.156,556.659 575.156,556.659 574.752,558.276ZM570.71,668.599C570.306,667.791 569.902,667.387 569.498,666.579C569.902,666.579 570.71,666.579 571.519,666.175C571.115,666.983 571.115,667.791 570.71,668.599ZM568.69,628.996C568.286,629.4 567.882,629.804 567.478,629.804L567.073,629.804C567.478,629.4 567.882,628.996 567.882,628.592C568.286,628.592 568.286,628.996 568.69,628.996ZM568.286,670.62C568.69,671.024 569.094,671.428 569.094,671.832C569.498,671.832 569.094,672.236 569.094,672.236C568.69,671.832 568.286,671.832 567.882,671.428C567.882,671.024 568.286,671.024 568.286,670.62ZM586.875,544.94C586.067,544.94 585.663,544.94 585.259,544.94C585.259,544.536 585.259,544.536 584.855,544.132C585.663,544.132 586.067,544.132 586.471,544.132C586.875,544.132 586.875,544.536 586.875,544.94ZM576.772,646.373C577.176,645.969 577.58,645.565 577.58,645.565C577.985,645.565 577.985,645.565 577.985,645.969C577.58,645.969 577.58,646.373 577.176,646.777C577.176,646.373 576.772,646.373 576.772,646.373ZM539.998,547.769C540.402,547.769 540.806,547.769 541.21,548.173L541.21,548.577C540.806,548.577 540.402,548.577 539.998,548.577C539.998,548.173 539.998,548.173 539.998,547.769ZM519.388,538.878C518.984,538.474 518.984,538.07 518.58,537.666C518.984,537.666 518.984,537.666 518.984,537.262C519.388,538.07 519.792,538.474 519.792,538.878L519.388,538.878ZM588.492,576.461C588.492,576.057 588.492,576.057 588.492,575.653L588.896,575.653C588.896,576.057 588.896,576.057 588.896,576.461L588.492,576.461ZM609.506,575.653C608.293,574.036 607.081,574.036 605.869,574.844C607.081,575.249 608.293,575.249 609.506,575.653ZM607.485,572.42C607.889,572.42 607.889,572.016 607.889,572.016C607.889,571.612 607.889,571.207 607.485,570.803C607.485,570.803 607.081,570.803 607.081,571.207C607.081,571.612 607.081,572.016 607.081,572.42L607.485,572.42ZM534.744,701.737C535.148,701.737 535.148,701.737 535.552,701.737C535.552,701.333 535.552,700.929 535.552,700.524C535.552,700.524 535.148,700.524 535.148,700.12C535.148,700.929 534.744,701.333 534.744,701.737ZM561.82,651.626C562.224,651.222 562.628,650.818 563.032,650.414C562.628,649.606 561.82,648.798 561.416,647.585C560.608,648.394 560.203,649.202 559.395,650.01C560.203,650.818 561.012,651.222 561.82,651.626ZM558.991,655.264C560.203,655.264 560.608,655.264 560.608,654.859C561.012,654.859 560.608,654.051 560.203,653.243C559.799,654.051 559.799,654.455 558.991,655.264ZM538.785,686.785C537.977,686.38 537.573,685.976 536.765,685.572C535.552,686.785 534.744,687.593 533.532,688.805C532.724,688.805 532.319,688.805 531.511,688.401C532.319,690.017 533.128,691.23 534.34,692.442C534.744,692.846 535.552,692.846 536.361,693.25C537.573,692.038 539.189,690.826 540.806,689.613C541.21,689.209 541.614,687.997 542.826,686.38C541.21,686.38 539.998,686.38 538.785,686.785ZM554.95,541.303C555.354,540.899 555.354,540.899 555.758,540.899C555.354,540.495 554.95,540.09 554.95,540.09L554.546,540.09C554.546,540.495 554.95,540.899 554.95,541.303Z" style="fill:rgb(231,230,222);fill-opacity:0.4;fill-rule:nonzero;"/>
            </g>
        </g>
    </g>
</svg>
