<?xml version="1.0" encoding="UTF-8"?>
<svg width="646px" height="66px" viewBox="0 0 646 66" version="1.1" xmlns="http://www.w3.org/2000/svg" xmlns:xlink="http://www.w3.org/1999/xlink">
    <!-- Generator: Sketch 48.2 (47327) - http://www.bohemiancoding.com/sketch -->
    <title>Group</title>
    <desc>Created with Sketch.</desc>
    <defs></defs>
    <g id="Page-1" stroke="none" stroke-width="1" fill="none" fill-rule="evenodd">
        <g id="12546-NO954M" transform="translate(-230.000000, -647.000000)" fill="#FFFFFE">
            <g id="Group" transform="translate(229.000000, 647.000000)">
                <path d="M130.507,55.654 C130.507,55.57 130.484,55.502 130.456,55.502 C130.428,55.502 130.355,55.57 130.355,55.654 C130.355,55.738 130.378,55.959 130.406,55.959 C130.433,55.959 130.507,55.738 130.507,55.654 Z M516.349,31.627 C516.349,31.711 516.372,31.779 516.4,31.779 C516.428,31.779 516.501,31.711 516.501,31.627 C516.501,31.543 516.479,31.322 516.451,31.322 C516.423,31.322 516.349,31.543 516.349,31.627 Z M527.009,18.685 C527.009,18.601 526.986,18.533 526.958,18.533 C526.93,18.533 526.856,18.601 526.856,18.685 C526.856,18.769 526.879,18.99 526.907,18.99 C526.935,18.99 527.009,18.769 527.009,18.685 Z M580.909,36.048 C580.909,35.964 580.886,35.895 580.858,35.895 C580.831,35.895 580.757,35.964 580.757,36.048 C580.757,36.131 580.78,36.352 580.808,36.352 C580.836,36.352 580.909,36.131 580.909,36.048 Z M512.694,34.672 C512.611,34.672 512.542,34.695 512.542,34.723 C512.542,34.751 512.611,34.824 512.694,34.824 C512.778,34.824 512.999,34.801 512.999,34.773 C512.999,34.745 512.778,34.672 512.694,34.672 Z M493.511,10.156 C493.511,10.239 493.534,10.308 493.562,10.308 C493.59,10.308 493.663,10.239 493.663,10.156 C493.663,10.072 493.64,9.851 493.613,9.851 C493.585,9.851 493.511,10.072 493.511,10.156 Z M148.783,8.606 C148.783,8.522 148.76,8.453 148.732,8.453 C148.704,8.453 148.63,8.522 148.63,8.606 C148.63,8.689 148.653,8.91 148.681,8.91 C148.709,8.91 148.783,8.689 148.783,8.606 Z M531.881,17.011 C531.881,17.094 531.904,17.163 531.932,17.163 C531.96,17.163 532.034,17.094 532.034,17.011 C532.034,16.927 532.011,16.706 531.983,16.706 C531.955,16.706 531.881,16.927 531.881,17.011 Z M587.154,16.101 C587.154,16.185 587.176,16.254 587.204,16.254 C587.232,16.254 587.306,16.185 587.306,16.101 C587.306,16.018 587.283,15.797 587.255,15.797 C587.227,15.797 587.154,16.018 587.154,16.101 Z M509.039,41.98 C508.956,41.98 508.887,42.003 508.887,42.031 C508.887,42.059 508.956,42.133 509.039,42.133 C509.123,42.133 509.344,42.11 509.344,42.082 C509.344,42.054 509.123,41.98 509.039,41.98 Z M507.821,41.98 C507.821,41.896 507.799,41.828 507.771,41.828 C507.743,41.828 507.669,41.896 507.669,41.98 C507.669,42.064 507.692,42.285 507.72,42.285 C507.748,42.285 507.821,42.064 507.821,41.98 Z M501.731,42.132 C501.731,42.216 501.754,42.284 501.781,42.284 C501.809,42.284 501.883,42.216 501.883,42.132 C501.883,42.048 501.86,41.827 501.832,41.827 C501.804,41.827 501.731,42.048 501.731,42.132 Z M496.706,42.132 C496.706,42.215 496.729,42.284 496.757,42.284 C496.785,42.284 496.858,42.215 496.858,42.132 C496.858,42.048 496.836,41.827 496.808,41.827 C496.78,41.827 496.706,42.048 496.706,42.132 Z M495.488,41.979 C495.488,41.895 495.465,41.827 495.437,41.827 C495.409,41.827 495.336,41.895 495.336,41.979 C495.336,42.063 495.358,42.284 495.386,42.284 C495.414,42.284 495.488,42.063 495.488,41.979 Z M270.592,38.459 C270.592,38.543 270.615,38.612 270.643,38.612 C270.671,38.612 270.745,38.543 270.745,38.459 C270.745,38.376 270.722,38.155 270.694,38.155 C270.666,38.155 270.592,38.376 270.592,38.459 Z M284.296,37.851 C284.213,37.851 284.144,37.874 284.144,37.902 C284.144,37.93 284.213,38.004 284.296,38.004 C284.38,38.004 284.601,37.981 284.601,37.953 C284.601,37.925 284.38,37.851 284.296,37.851 Z M502.34,37.412 C502.34,37.328 502.317,37.259 502.289,37.259 C502.262,37.259 502.188,37.328 502.188,37.412 C502.188,37.496 502.211,37.716 502.239,37.716 C502.267,37.716 502.34,37.496 502.34,37.412 Z M543.452,41.526 C543.452,41.442 543.429,41.374 543.401,41.374 C543.373,41.374 543.299,41.442 543.299,41.526 C543.299,41.61 543.322,41.831 543.35,41.831 C543.378,41.831 543.452,41.61 543.452,41.526 Z M541.472,41.222 C541.472,41.305 541.495,41.374 541.523,41.374 C541.551,41.374 541.624,41.305 541.624,41.222 C541.624,41.138 541.602,40.917 541.574,40.917 C541.546,40.917 541.472,41.138 541.472,41.222 Z M551.978,41.222 C551.978,41.306 552.001,41.375 552.029,41.375 C552.057,41.375 552.131,41.306 552.131,41.222 C552.131,41.139 552.108,40.918 552.08,40.918 C552.052,40.918 551.978,41.139 551.978,41.222 Z M542.538,41.526 C542.538,41.442 542.515,41.374 542.487,41.374 C542.459,41.374 542.386,41.442 542.386,41.526 C542.386,41.61 542.408,41.831 542.436,41.831 C542.464,41.831 542.538,41.61 542.538,41.526 Z M566.596,40.767 C566.596,40.85 566.619,40.919 566.647,40.919 C566.674,40.919 566.748,40.85 566.748,40.767 C566.748,40.683 566.725,40.462 566.697,40.462 C566.669,40.462 566.596,40.683 566.596,40.767 Z M512.421,41.906 C512.282,41.906 512.172,41.965 512.177,42.037 C512.182,42.108 512.308,42.272 512.448,42.242 C512.588,42.212 512.952,42.097 512.947,42.056 C512.941,42.015 512.56,41.906 512.421,41.906 Z M534.793,41.451 C534.654,41.451 534.547,41.511 534.555,41.583 C534.564,41.656 534.698,41.82 534.835,41.787 C534.972,41.755 535.328,41.636 535.321,41.596 C535.315,41.556 534.932,41.451 534.793,41.451 Z M590.502,41.035 C590.334,41.035 590.197,41.069 590.197,41.111 C590.197,41.153 590.334,41.263 590.501,41.263 C590.669,41.263 591.111,41.229 591.111,41.187 C591.111,41.145 590.669,41.035 590.502,41.035 Z M576.798,39.664 C576.63,39.664 576.493,39.698 576.493,39.74 C576.493,39.782 576.63,39.892 576.798,39.892 C576.965,39.892 577.407,39.858 577.407,39.816 C577.407,39.774 576.965,39.664 576.798,39.664 Z M532.489,39.203 C532.321,39.203 532.184,39.238 532.184,39.279 C532.184,39.321 532.321,39.432 532.489,39.432 C532.656,39.432 533.098,39.397 533.098,39.356 C533.098,39.314 532.656,39.203 532.489,39.203 Z M583.041,36.695 C583.208,36.695 583.345,36.661 583.345,36.619 C583.345,36.577 583.208,36.467 583.041,36.467 C582.873,36.467 582.432,36.501 582.432,36.543 C582.432,36.584 582.873,36.695 583.041,36.695 Z M144.231,56.038 C144.092,56.038 143.986,56.097 143.994,56.17 C144.002,56.242 144.137,56.407 144.273,56.374 C144.41,56.341 144.766,56.222 144.76,56.183 C144.753,56.143 144.37,56.038 144.231,56.038 Z M132.639,55.845 C132.806,55.845 132.943,55.811 132.943,55.769 C132.943,55.727 132.806,55.616 132.639,55.616 C132.471,55.616 132.03,55.651 132.03,55.692 C132.03,55.734 132.471,55.845 132.639,55.845 Z M235.114,52.884 C234.946,52.884 234.809,52.918 234.809,52.96 C234.809,53.002 234.946,53.112 235.113,53.112 C235.281,53.112 235.723,53.078 235.723,53.036 C235.723,52.994 235.281,52.884 235.114,52.884 Z M587.794,18.159 C587.655,18.159 587.545,18.217 587.55,18.289 C587.555,18.361 587.681,18.525 587.821,18.495 C587.961,18.464 588.326,18.35 588.32,18.309 C588.314,18.268 587.933,18.159 587.794,18.159 Z M585.295,16.175 C585.434,16.175 585.543,16.117 585.539,16.045 C585.534,15.973 585.408,15.809 585.268,15.84 C585.128,15.87 584.763,15.984 584.769,16.025 C584.775,16.067 585.156,16.175 585.295,16.175 Z M536.375,14.098 C536.375,14.236 536.434,14.343 536.507,14.335 C536.579,14.327 536.744,14.192 536.711,14.055 C536.679,13.918 536.56,13.562 536.52,13.569 C536.48,13.575 536.375,13.959 536.375,14.098 Z M524.3,13.586 C524.161,13.586 524.051,13.644 524.056,13.716 C524.06,13.788 524.187,13.952 524.327,13.922 C524.467,13.891 524.831,13.777 524.826,13.736 C524.82,13.695 524.439,13.586 524.3,13.586 Z M146.228,8.532 C146.006,8.532 145.825,8.593 145.827,8.667 C145.829,8.741 146.016,8.911 146.241,8.881 C146.465,8.851 147.053,8.735 147.049,8.691 C147.046,8.647 146.451,8.532 146.228,8.532 Z M484.154,42.462 C484.124,42.301 483.971,42.301 483.814,42.462 C483.657,42.623 483.2,43.281 483.481,43.222 C483.761,43.163 484.185,42.623 484.154,42.462 Z M1.854,46.212 C1.964,46.103 1.973,46.013 1.874,46.013 C1.775,46.013 1.364,46.13 1.388,46.272 C1.413,46.414 1.745,46.322 1.854,46.212 Z M590.199,15.911 C589.948,15.911 589.742,15.945 589.742,15.987 C589.742,16.029 589.948,16.14 590.199,16.14 C590.45,16.14 591.113,16.105 591.113,16.064 C591.113,16.022 590.45,15.911 590.199,15.911 Z M568.254,18.457 C568.477,18.457 568.652,18.397 568.645,18.322 C568.638,18.248 568.439,18.079 568.219,18.11 C568,18.142 567.425,18.26 567.429,18.303 C567.434,18.345 568.032,18.457 568.254,18.457 Z M559.611,25.466 C559.389,25.466 559.213,25.527 559.22,25.601 C559.228,25.675 559.427,25.845 559.646,25.813 C559.866,25.781 560.441,25.663 560.436,25.621 C560.432,25.578 559.834,25.466 559.611,25.466 Z M563.361,37.657 C563.432,37.504 563.402,37.379 563.294,37.379 C563.185,37.379 562.766,37.495 562.791,37.637 C562.816,37.78 563.29,37.811 563.361,37.657 Z M412.047,39.194 C411.796,39.194 411.59,39.228 411.59,39.27 C411.59,39.312 411.796,39.422 412.047,39.422 C412.298,39.422 412.96,39.388 412.96,39.346 C412.96,39.304 412.298,39.194 412.047,39.194 Z M537.936,17.084 C538.242,17.084 538.493,17.025 538.494,16.953 C538.495,16.88 538.244,16.707 537.934,16.728 C537.625,16.749 536.81,16.847 536.813,16.898 C536.816,16.949 537.63,17.084 537.936,17.084 Z M533.305,14.834 C533.462,14.826 533.563,14.628 533.529,14.394 C533.496,14.159 533.267,13.536 533.141,13.843 C533.016,14.15 533.147,14.841 533.305,14.834 Z M571.013,18.402 C571.013,18.291 570.876,18.199 570.709,18.199 C570.541,18.199 570.068,18.319 570.098,18.466 C570.127,18.612 570.34,19.002 570.497,18.969 C570.654,18.937 571.013,18.514 571.013,18.402 Z M500.171,9.679 C500.171,9.526 499.94,9.476 499.658,9.569 C499.376,9.662 499.598,10.324 499.719,10.301 C499.84,10.278 500.171,9.832 500.171,9.679 Z M566.802,17.957 C566.894,17.861 566.802,17.704 566.597,17.607 C566.597,17.607 566.597,17.607 566.563,17.629 C566.215,17.847 566.215,17.847 566.215,17.847 C565.839,18.1 565.574,18.361 565.626,18.427 C565.626,18.427 565.626,18.427 565.688,18.459 C566.223,18.738 566.444,18.274 566.747,18.005 C566.802,17.957 566.802,17.957 566.802,17.957 Z M510.983,42.206 C511.289,42.206 511.54,42.147 511.541,42.074 C511.542,42.002 511.291,41.828 510.981,41.85 C510.672,41.871 509.857,41.969 509.86,42.02 C509.863,42.071 510.677,42.206 510.983,42.206 Z M521.527,17.505 C521.862,17.505 522.136,17.47 522.136,17.429 C522.136,17.387 521.862,17.276 521.527,17.276 C521.192,17.276 520.309,17.31 520.309,17.352 C520.309,17.394 521.192,17.505 521.527,17.505 Z M556.474,39.399 C556.618,39.543 556.737,39.434 556.737,39.155 C556.737,38.877 556.605,38.312 556.444,38.422 C556.284,38.531 556.329,39.254 556.474,39.399 Z M286.617,37.778 C286.311,37.778 286.059,37.838 286.058,37.91 C286.057,37.982 286.308,38.156 286.618,38.135 C286.928,38.113 287.742,38.016 287.739,37.965 C287.736,37.913 286.922,37.778 286.617,37.778 Z M580.759,15.454 C580.424,15.454 580.149,15.488 580.149,15.53 C580.149,15.572 580.424,15.682 580.758,15.682 C581.094,15.682 581.977,15.648 581.977,15.606 C581.977,15.564 581.094,15.454 580.759,15.454 Z M579.995,37.608 C580.33,37.608 580.604,37.574 580.605,37.532 C580.605,37.49 580.33,37.38 579.995,37.38 C579.661,37.38 578.777,37.414 578.777,37.456 C578.777,37.498 579.66,37.608 579.995,37.608 Z M524.838,16.967 C524.838,16.801 524.628,16.784 524.372,16.928 C524.115,17.073 523.532,17.544 523.839,17.544 C524.145,17.544 524.838,17.132 524.838,16.967 Z M513.301,17.919 C514.714,17.982 514.714,17.982 515.093,17.028 C514.494,17.326 513.99,17.576 513.301,17.919 Z M517.249,17.539 C517.638,17.539 517.955,17.482 517.952,17.413 C517.95,17.344 517.351,17.158 516.627,17.154 C516.627,17.154 516.627,17.154 515.97,17.175 C515.915,17.177 515.915,17.177 515.915,17.177 C515.842,17.376 516.859,17.539 517.249,17.539 Z M549.758,14.438 C549.529,14.618 549.591,14.766 549.897,14.766 C550.203,14.766 550.983,14.629 550.918,14.462 C550.852,14.294 549.987,14.258 549.758,14.438 Z M548.641,12.888 C548.507,12.781 548.235,12.784 548.036,12.895 C547.837,13.007 547.436,13.407 547.82,13.407 C548.205,13.407 548.776,12.995 548.641,12.888 Z M150.282,55.883 C150.755,55.883 151.138,55.814 151.133,55.73 C151.128,55.646 150.724,55.37 150.246,55.305 C149.769,55.239 149.809,55.883 150.282,55.883 Z M574.196,22.111 C574.669,22.111 575.051,22.042 575.044,21.957 C575.037,21.872 574.629,21.599 574.153,21.54 C573.677,21.48 573.723,22.111 574.196,22.111 Z M413.974,39.208 C413.856,39.326 414.193,39.422 414.722,39.422 C415.251,39.422 416.235,39.298 415.802,39.147 C415.802,39.147 415.802,39.147 415.408,39.07 C415.057,39.002 415.057,39.002 415.057,39.002 C414.712,38.865 414.092,39.09 413.974,39.208 Z M532.474,41.75 C533.031,41.75 533.484,41.694 533.481,41.624 C533.478,41.555 532.604,41.371 531.547,41.368 C531.547,41.368 531.547,41.368 530.585,41.386 C530.532,41.387 530.532,41.387 530.532,41.387 C530.459,41.587 531.917,41.75 532.474,41.75 Z M505.537,42.17 C506.124,42.17 506.603,42.136 506.603,42.094 C506.603,42.052 506.124,41.942 505.537,41.942 C504.951,41.942 503.406,41.976 503.406,42.018 C503.406,42.06 504.951,42.17 505.537,42.17 Z M561.839,12.914 C561.839,12.781 561.513,12.673 561.115,12.673 C560.717,12.673 559.939,12.851 560.317,13.068 C560.695,13.286 561.839,13.046 561.839,12.914 Z M355.83,52.978 C355.961,53.108 356.601,53.223 357.253,53.233 C357.905,53.243 358.713,52.444 357.629,52.363 C356.545,52.282 355.7,52.847 355.83,52.978 Z M537.808,40.703 C537.251,41.062 536.806,41.433 536.819,41.528 C536.832,41.623 537.319,41.843 537.871,41.806 C538.423,41.769 539.876,41.649 539.873,41.62 C539.87,41.591 538.365,40.343 537.808,40.703 Z M564.207,37.92 C564.217,38.071 564.76,38.228 565.414,38.268 C566.069,38.308 567.427,37.841 567.028,37.794 C567.028,37.794 567.028,37.794 566.704,37.701 C566.39,37.61 566.39,37.61 566.39,37.61 C566.113,37.381 565.764,37.291 565.615,37.409 C565.466,37.527 565.006,37.715 564.833,37.632 C564.661,37.55 564.198,37.769 564.207,37.92 Z M134.494,55.305 C134.042,55.123 133.621,55.02 133.558,55.076 C133.496,55.133 133.433,55.459 133.558,55.677 C133.683,55.894 134.371,56.424 134.847,56.434 C134.847,56.434 134.847,56.434 135.215,56.41 C135.513,56.391 135.513,56.391 135.513,56.391 C135.838,56.326 136.109,56.227 136.115,56.17 C136.122,56.114 134.946,55.487 134.494,55.305 Z M486.671,42.289 C485.995,42.383 486.073,42.773 486.843,43.155 C486.843,43.155 486.843,43.155 487.422,43.15 C488.054,43.145 488.054,43.145 488.054,43.145 C488.774,42.815 489.31,42.421 489.243,42.27 C489.177,42.118 487.346,42.195 486.671,42.289 Z M493.282,42.702 C493.746,42.623 493.469,42.395 492.667,42.195 C491.865,41.995 490.415,42.326 490.725,42.505 C491.035,42.684 492.818,42.78 493.282,42.702 Z M115.91,56.707 C116.758,56.274 117.425,55.877 117.393,55.825 C117.361,55.772 116.681,55.707 115.954,55.796 C115.227,55.885 113.644,56.496 114.536,56.897 C114.536,56.897 114.536,56.897 115.101,56.819 C115.91,56.707 115.91,56.707 115.91,56.707 Z M575.752,15.417 C574.693,15.417 573.827,15.474 573.829,15.543 C573.831,15.613 574.706,15.812 575.77,15.831 C575.77,15.831 575.77,15.831 576.735,15.786 C577.695,15.741 577.695,15.741 577.695,15.741 C578.745,15.563 576.811,15.417 575.752,15.417 Z M522.855,41.474 C524.416,42.507 525.778,42.582 527.272,41.474 C525.83,41.474 524.52,41.474 522.855,41.474 Z M356.296,39.264 C356.488,39.656 356.989,39.713 357.41,39.393 C357.831,39.073 357.806,37.818 357.384,37.818 C356.962,37.818 356.105,38.873 356.296,39.264 Z M416.75,37.174 C418.144,37.174 419.283,37.117 419.28,37.048 C419.277,36.979 417.213,36.796 414.701,36.795 C414.701,36.795 414.305,36.795 411.823,36.802 C411.769,36.802 411.701,36.893 411.666,36.956 C411.645,36.994 411.645,36.994 411.645,36.994 C411.668,37.093 415.356,37.174 416.75,37.174 Z M366.051,53.105 C366.169,53.191 366.644,53.1 367.106,52.902 C367.106,52.902 367.106,52.902 367.511,52.789 C367.86,52.692 367.86,52.692 367.86,52.692 C368.264,52.654 366.542,52.516 364.033,52.386 C364.033,52.386 363.273,52.347 360.631,52.354 C360.577,52.355 360.505,52.447 360.477,52.512 C360.462,52.549 360.462,52.549 360.462,52.549 C360.506,52.609 361.161,52.715 361.917,52.784 C362.674,52.854 365.001,53.016 365.086,52.962 C365.172,52.907 365.932,53.019 366.051,53.105 Z M319.916,51.493 C318.107,51.493 316.636,51.548 316.645,51.616 C316.655,51.684 317.693,51.857 318.931,51.85 C320.169,51.844 323.713,51.927 324.055,51.986 C324.398,52.045 325.629,52.157 325.82,52.056 C326.01,51.955 321.724,51.493 319.916,51.493 Z M552.004,13.056 C551.03,13.139 551.171,13.389 552.318,13.612 C553.465,13.834 556.287,13.171 556.106,13.019 C555.925,12.867 552.979,12.974 552.004,13.056 Z M138.541,56.095 C138.438,56.208 138.99,56.187 139.768,56.047 C140.546,55.908 141.507,55.127 140.364,55.127 C139.221,55.127 136.008,55.269 136.225,55.442 C136.442,55.616 137.166,55.756 137.508,55.495 C137.849,55.233 138.644,55.981 138.541,56.095 Z M492.037,37.321 C491.552,37.287 491.153,37.327 491.15,37.411 C491.148,37.495 491.878,37.735 492.777,37.76 C492.777,37.76 492.777,37.76 493.59,37.703 C494.372,37.648 494.372,37.648 494.372,37.648 C495.238,37.468 496.6,37.48 497.399,37.674 C497.399,37.674 497.399,37.674 498.278,37.316 C498.97,37.034 498.97,37.034 498.97,37.034 C499.908,37.158 500.672,37.185 500.668,37.095 C500.664,37.004 499.669,36.665 498.465,36.542 C497.262,36.42 494.024,37.184 493.898,37.093 C493.771,37.002 493.136,36.943 492.785,37.175 C492.785,37.175 492.785,37.175 492.456,37.239 C492.037,37.321 492.037,37.321 492.037,37.321 Z M528.861,14.566 C528.943,14.668 528.453,14.725 527.771,14.693 C527.089,14.662 526.052,15.263 526.833,15.263 C527.615,15.263 529.798,15.213 529.865,15.151 C529.932,15.089 530.222,14.999 530.356,15.091 C530.489,15.183 531.001,15.27 531.268,15.129 C531.534,14.987 532.104,14.514 532.104,14.306 C532.104,14.097 531.652,13.552 531.099,13.552 C530.546,13.552 529.065,13.653 528.949,13.777 C528.833,13.901 528.779,14.465 528.861,14.566 Z M572.358,18.735 C572.443,18.827 573.325,18.749 574.318,18.562 C574.318,18.562 574.318,18.562 575.167,18.553 C578.727,18.515 582.287,18.542 585.848,18.531 C586.215,18.53 586.215,18.53 586.215,18.53 C586.62,18.451 584.896,18.323 582.385,18.244 C582.385,18.244 577.113,18.079 572.21,18.091 C572.131,18.091 572.131,18.091 572.131,18.091 C572.054,18.226 572.273,18.642 572.358,18.735 Z M403.14,36.909 C401.054,37.151 399.341,37.403 399.335,37.469 C399.329,37.535 400.051,37.724 400.952,37.743 C400.952,37.743 400.952,37.743 401.768,37.698 C402.443,37.661 403.113,37.454 403.785,37.46 C404.586,37.467 405.383,37.658 406.186,37.697 C406.91,37.732 407.582,37.679 408.311,37.316 C408.959,36.992 408.959,36.992 408.959,36.992 C409.903,37.101 408.984,36.98 406.915,36.723 C406.915,36.723 406.915,36.723 405.044,36.815 C403.14,36.909 403.14,36.909 403.14,36.909 Z M562.837,13.235 C562.837,13.397 563.332,13.603 563.936,13.692 C564.541,13.781 567.227,13.194 568.75,13.388 C570.273,13.583 573.956,13.207 572.617,13.151 C572.617,13.151 572.617,13.151 571.608,13.044 C570.677,12.944 569.761,12.683 568.831,12.616 C567.772,12.539 566.697,12.671 565.642,12.576 C564.702,12.491 564.702,12.491 564.702,12.491 C563.676,12.619 562.837,13.073 562.837,13.235 Z M519.879,16.158 C520.53,16.162 521.647,15.999 522.361,15.797 C523.075,15.594 524.816,15.075 524.81,15.045 C524.804,15.015 524.422,14.936 523.974,14.936 C523.525,14.936 522.062,14.785 521.949,14.601 C521.836,14.418 521.351,14.136 521.089,14.332 C520.828,14.527 520.119,14.615 519.986,14.173 C519.854,13.731 518.542,13.816 518.308,14.182 C518.075,14.548 519.227,16.155 519.879,16.158 Z M123.91,56.084 C124.024,55.98 124.961,55.968 125.991,56.058 C127.021,56.149 129.682,56.035 129.533,55.92 C129.383,55.806 127.438,55.408 125.61,55.345 C123.782,55.283 118.678,55.719 118.535,55.686 C118.392,55.652 117.824,55.655 117.859,55.83 C117.893,56.006 118.79,56.104 119.824,55.914 C120.859,55.723 123.796,56.189 123.91,56.084 Z M355.063,38.242 C355.452,37.993 354.945,37.644 353.935,37.466 C353.935,37.466 353.935,37.466 353.486,37.759 C352.55,38.371 351.611,38.116 350.68,38.145 C348.861,38.201 347.039,38.155 345.218,38.165 C344.811,38.168 344.811,38.168 344.811,38.168 C344.363,38.218 344.87,38.562 345.938,38.931 C345.938,38.931 345.938,38.931 346.925,39.065 C347.927,39.201 347.927,39.201 347.927,39.201 C349.024,39.383 350.508,39.474 351.225,39.403 C351.942,39.333 354.674,38.49 355.063,38.242 Z M273.48,37.728 C272.259,37.785 271.377,37.95 271.521,38.093 C271.664,38.237 272.641,38.639 273.281,38.577 C273.921,38.514 276.791,38.198 277.941,38.042 C279.092,37.886 281.187,37.504 279.895,36.829 C279.895,36.829 279.895,36.829 278.536,37.567 C278.251,37.722 277.697,37.794 277.5,37.628 C276.548,36.822 275.314,37.043 274.511,37.343 C273.48,37.728 273.48,37.728 273.48,37.728 Z M385.622,38.535 C384.795,38.618 383.562,38.53 382.881,38.34 C382.2,38.15 380.228,38.545 380.285,38.622 C380.343,38.7 380.28,39.033 379.923,39.061 C379.566,39.09 379.33,39.547 380.097,40.02 C380.864,40.493 383.014,39.532 383.128,39.639 C383.243,39.746 383.58,39.863 383.658,39.696 C383.737,39.528 384.036,39.196 384.126,39.378 C384.217,39.56 384.828,39.875 385.249,39.607 C385.671,39.339 386.941,38.757 387.087,38.94 C387.234,39.122 387.683,39.281 387.914,39.082 C388.146,38.883 388.71,38.352 388.68,38.322 C388.65,38.293 386.448,38.452 385.622,38.535 Z M553.655,25.412 C553.655,25.634 553.461,25.769 553.225,25.712 C552.989,25.655 552.373,25.599 552.211,25.673 C552.048,25.746 551.592,25.807 551.447,25.694 C551.302,25.58 550.343,25.634 549.464,25.931 C548.585,26.227 546.35,27.052 546.35,27.14 C546.35,27.229 546.749,27.431 547.237,27.324 C547.237,27.324 547.237,27.324 547.668,27.211 C548.214,27.069 548.214,27.069 548.214,27.069 C548.799,26.9 549.381,26.842 549.508,26.94 C549.634,27.038 550.238,27.119 550.606,26.93 C550.974,26.742 552.202,26.539 552.851,26.727 C552.851,26.727 552.851,26.727 553.323,26.733 C553.698,26.738 554.279,26.318 554.415,26.451 C554.889,26.911 555.414,26.769 555.901,26.734 C556.374,26.7 556.374,26.7 556.374,26.7 C556.893,26.496 557.222,26.123 557.104,25.871 C556.986,25.62 556.268,24.829 555.732,24.584 C555.195,24.339 553.655,25.19 553.655,25.412 Z M577.201,41.216 C577.527,41.173 578.372,41.077 579.078,41.003 C579.785,40.929 581.972,41.843 582.464,41.895 C582.464,41.895 582.464,41.895 582.903,41.814 C583.232,41.753 583.232,41.753 583.232,41.753 C583.582,41.519 583.976,41.405 584.106,41.498 C584.236,41.592 585.134,41.487 585.816,41.059 C585.816,41.059 585.816,41.059 586.765,41.706 C587.563,42.25 587.563,42.25 587.563,42.25 C588.648,41.461 589.207,40.689 588.806,40.534 C588.404,40.38 587.047,40.178 586.419,40.325 C585.79,40.473 583.701,40.744 583.213,40.59 C582.724,40.436 580.367,40.813 578.962,40.612 C577.558,40.41 576.039,40.798 576.044,40.879 C576.049,40.961 576.875,41.26 577.201,41.216 Z M359.628,39.584 C359.935,39.801 360.523,39.841 360.933,39.673 C361.344,39.504 362.779,39.706 363.737,39.824 C363.737,39.824 363.737,39.824 364.581,39.978 C364.691,39.998 364.691,39.998 364.691,39.998 C364.836,39.89 364.973,39.709 364.997,39.596 C365.02,39.482 365.433,39.358 365.895,39.411 C366.357,39.465 367.596,39.457 367.664,39.28 C367.732,39.103 368.071,38.664 368.297,38.624 C368.522,38.584 369.116,38.43 369.115,38.373 C369.114,38.315 368.455,38.162 367.654,38.162 C367.654,38.162 367.654,38.162 366.926,38.162 C365.869,38.162 364.711,38.44 363.778,38.099 C362.237,37.538 362.237,37.538 362.237,37.538 C360.614,37.622 359.161,37.825 359.006,37.989 C358.852,38.153 359.32,39.366 359.628,39.584 Z M537.286,39.138 C536.049,39.111 535.026,39.158 535.012,39.242 C534.998,39.325 535.559,39.519 536.289,39.487 C536.289,39.487 536.289,39.487 536.94,39.562 C537.643,39.644 538.326,39.918 539.029,39.982 C539.606,40.035 540.317,40.09 540.758,39.811 C541.498,39.343 542.332,39.389 542.897,39.631 C543.495,39.887 543.495,39.887 543.495,39.887 C544.125,39.951 545.272,39.94 546.045,39.862 C546.045,39.862 546.045,39.862 546.693,39.766 C547.333,39.672 547.948,39.464 548.55,39.721 C549.268,40.027 549.841,39.242 550.517,39.551 C550.834,39.697 550.834,39.697 550.834,39.697 C551.185,39.905 552.369,39.907 553.464,39.701 C553.464,39.701 553.464,39.701 554.462,39.543 C554.654,39.513 554.654,39.513 554.654,39.513 C554.872,39.428 554.871,39.177 554.653,38.956 C554.434,38.734 553.742,38.37 553.56,38.6 C553.56,38.6 553.56,38.6 553.383,38.613 C552.704,38.664 552.02,38.634 551.337,38.634 C550.655,38.634 549.972,38.634 549.29,38.634 C548.531,38.634 547.773,38.634 547.015,38.633 C546.332,38.633 545.626,38.744 544.974,38.601 C544.384,38.471 544.384,38.471 544.384,38.471 C543.787,38.56 542.592,38.501 541.729,38.339 C541.729,38.339 541.729,38.339 541.208,38.684 C540.273,39.303 539.336,39.021 538.405,39.074 C537.286,39.138 537.286,39.138 537.286,39.138 Z M590.162,12.865 C590.123,12.904 589.478,12.6 588.727,12.19 C588.727,12.19 588.727,12.19 588.135,12.175 C585.347,12.102 584.303,12.109 584.303,12.109 C581.791,12.127 579.735,12.337 579.735,12.576 C579.735,12.815 580.146,13.512 580.649,13.512 C580.649,13.512 580.649,13.512 581.085,13.512 C584.807,13.513 588.529,13.513 592.251,13.513 C592.706,13.513 592.706,13.513 592.706,13.513 C593.194,13.531 594.105,13.599 594.73,13.665 C595.355,13.73 596.383,13.437 595.611,12.968 C595.611,12.968 595.611,12.968 594.669,13.021 C593.227,13.102 593.227,13.102 593.227,13.102 C591.704,12.809 590.201,12.827 590.162,12.865 Z M250.136,52.079 C248.753,52.496 246.758,52.545 245.702,52.187 C245.702,52.187 245.702,52.187 244.355,52.571 C243.97,52.68 243.436,52.782 243.143,52.603 C242.285,52.08 241.184,52.066 240.571,52.403 C239.732,52.863 238.984,52.672 238.202,52.759 C237.702,52.815 237.702,52.815 237.702,52.815 C237.015,52.79 236.585,52.91 236.745,53.082 C236.905,53.254 237.828,53.704 238.38,53.635 C238.932,53.566 240.674,53.402 240.751,53.457 C240.829,53.511 241.305,53.698 241.434,53.604 C241.563,53.51 241.971,53.322 242.052,53.394 C242.133,53.466 242.456,53.532 242.572,53.365 C242.572,53.365 242.572,53.365 242.684,53.36 C244.22,53.288 245.749,52.941 247.286,53.551 C247.863,53.779 248.77,53.869 249.219,53.566 C249.96,53.065 250.752,53.082 251.356,53.28 C252.815,53.756 254.275,53.63 255.742,53.708 C256.132,53.729 256.132,53.729 256.132,53.729 C256.547,53.993 257.282,54.167 257.766,54.115 C258.25,54.062 259.369,53.423 259.305,53.292 C259.305,53.292 259.305,53.292 259.214,53.233 C258.211,52.588 257.078,52.846 255.988,52.762 C254.378,52.638 252.78,52.936 251.134,52.402 C250.136,52.079 250.136,52.079 250.136,52.079 Z M406.992,38.887 C406.915,38.957 406.177,38.847 405.351,38.643 C405.351,38.643 405.351,38.643 404.725,38.638 C401.159,38.605 397.593,38.626 394.027,38.615 C393.654,38.614 393.654,38.614 393.654,38.614 C393.244,38.538 393.38,38.355 393.955,38.208 C393.955,38.208 393.955,38.208 394.464,38.153 C395.031,38.092 395.628,38.367 396.176,37.867 C396.446,37.62 396.446,37.62 396.446,37.62 C396.947,37.571 397.347,37.482 397.336,37.421 C397.324,37.361 396.492,37.302 395.511,37.423 C394.531,37.545 391.978,37.956 392.073,38.06 C392.168,38.164 392.314,38.573 392.049,38.586 C391.783,38.599 391.139,38.482 391.077,38.303 C391.014,38.124 390.596,37.681 390.288,37.719 C389.979,37.758 389.062,38.093 389.261,38.337 C389.461,38.582 390.227,39.088 390.658,39.088 C391.089,39.088 392.31,39.212 392.46,39.362 C392.611,39.512 393.668,39.921 394.555,40.016 C395.443,40.111 397.696,40.134 397.999,39.899 C398.301,39.664 399.777,39.043 400.635,39.02 C401.493,38.997 403.513,39.462 403.195,39.511 C402.878,39.56 403.884,39.807 406.137,39.951 C406.137,39.951 406.137,39.951 408.165,40.013 C409,40.038 409.742,39.857 410.466,39.504 C410.538,39.47 410.538,39.47 410.538,39.47 C410.561,39.327 410.373,39.12 410.119,39.009 C409.865,38.898 409.08,38.701 408.915,38.805 C408.75,38.91 408.211,39.052 408.017,38.929 C407.824,38.807 407.068,38.818 406.992,38.887 Z M336.709,53.036 C336.785,52.805 337.627,52.746 338.581,52.903 C339.535,53.06 342.948,53.226 343.963,52.908 C344.978,52.59 348.055,52.997 348.611,52.801 C348.611,52.801 348.611,52.801 349.011,52.793 C350.684,52.759 352.359,52.786 354.033,52.772 C354.32,52.769 354.32,52.769 354.32,52.769 C354.722,52.667 353.018,52.285 350.532,51.918 C350.532,51.918 350.31,51.886 348.018,51.868 C346.192,51.853 344.363,51.908 342.539,51.847 C341.53,51.814 340.451,52.211 339.512,51.43 C339.352,51.296 338.811,51.347 338.675,51.507 C338.174,52.097 337.546,51.855 336.981,51.849 C335.738,51.834 335.738,51.834 335.738,51.834 C334.4,51.583 333.226,51.451 333.129,51.541 C333.032,51.632 331.939,51.795 330.902,51.715 C329.866,51.635 327.079,51.513 327.097,51.689 C327.116,51.866 328.542,52.337 330.249,52.548 C330.249,52.548 330.249,52.548 331.762,52.785 C333.32,53.029 333.32,53.029 333.32,53.029 C335.077,53.359 336.634,53.266 336.709,53.036 Z M474.96,34.875 C474.071,34.992 474.106,35.42 475.037,35.826 C475.037,35.826 475.037,35.826 475.991,35.919 C478.172,36.131 478.172,36.131 478.172,36.131 C480.503,35.744 484.083,35.431 486.13,35.437 C488.176,35.443 493.816,35.359 494.118,35.292 C494.421,35.225 495.698,35.093 496.225,35.173 C496.752,35.252 498.189,35.319 498.446,35.187 C498.704,35.055 499.234,34.684 499.299,34.529 C499.364,34.375 499.824,34.013 500.151,34.126 C500.477,34.24 501.451,34.279 501.868,34.058 C502.286,33.838 502.396,33.235 501.135,33.235 C499.875,33.235 496.575,33.347 496.584,33.485 C496.593,33.622 496.761,33.96 496.933,33.872 C497.106,33.784 497.699,33.691 497.931,33.829 C498.163,33.967 498.107,34.361 497.088,34.277 C496.069,34.194 493.49,34.805 493.161,34.69 C492.833,34.575 492.381,34.3 492.909,34.341 C493.438,34.382 492.842,33.607 490.33,33.609 C490.33,33.609 486.754,33.613 482.822,33.599 C481.206,33.594 481.206,33.594 481.206,33.594 C479.629,34.163 478.315,34.749 478.285,34.897 C478.255,35.045 475.85,34.758 474.96,34.875 Z M315.265,51.237 C315.159,51.131 313.023,51.209 310.519,51.412 C310.519,51.412 309.275,51.513 306.484,50.51 C306.257,50.428 306.257,50.428 306.257,50.428 C305.929,50.57 304.696,50.888 303.517,51.133 C303.517,51.133 303.517,51.133 302.626,50.808 C301.954,50.564 301.346,50.535 300.707,50.501 C295.906,50.244 291.085,50.937 286.284,50.076 C284.737,49.799 283.097,50.032 281.5,50.032 C279.827,50.032 278.127,49.849 276.487,50.085 C274.975,50.303 274.975,50.303 274.975,50.303 C273.37,50.143 271.739,49.846 271.349,49.642 C270.959,49.439 269.206,49.76 268.381,49.583 C268.381,49.583 268.381,49.583 267.613,49.578 C265.711,49.566 263.809,49.589 261.908,49.564 C261.405,49.557 260.78,49.592 260.425,49.324 C259.596,48.695 259.596,48.695 259.596,48.695 C259.005,49.178 257.712,49.26 256.723,48.877 C256.723,48.877 256.723,48.877 255.932,49.287 C255.047,49.746 253.974,49.82 253.358,49.483 C252.518,49.023 251.77,49.173 250.987,49.133 C249.773,49.071 248.55,49.063 247.337,49.13 C245.874,49.211 244.377,48.792 242.943,49.538 C242.536,49.749 241.733,49.749 241.419,49.482 C240.645,48.826 239.82,49.272 239.043,49.116 C238.27,48.961 237.488,48.654 236.724,48.691 C235.187,48.767 233.59,48.239 232.107,49.094 C231.909,49.207 231.909,49.207 231.909,49.207 C231.563,49.077 230.829,48.884 230.28,48.779 C230.28,48.779 230.28,48.779 229.801,48.647 C228.716,48.348 227.829,49.127 226.793,49.138 C226.032,49.147 225.383,48.841 224.689,48.715 C224.04,48.597 223.307,49.06 222.606,49.083 C222.062,49.1 222.062,49.1 222.062,49.1 C221.438,48.872 220.73,48.869 220.487,49.094 C220.487,49.094 220.487,49.094 220.247,49.094 C217.712,49.085 215.235,49.696 212.675,49.624 C209.778,49.543 208.518,49.65 208.518,49.65 C206.015,49.864 203.737,50.164 203.456,50.317 C203.456,50.317 203.456,50.317 203.188,50.343 C201.657,50.497 201.657,50.497 201.657,50.497 C199.991,50.236 198.208,50.142 197.695,50.286 C197.182,50.431 195.63,50.238 195.052,50.439 C195.052,50.439 195.052,50.439 194.642,50.467 C193.885,50.52 193.038,50.281 192.39,50.55 C191.931,50.741 191.931,50.741 191.931,50.741 C191.421,51.316 192.272,51.787 193.822,51.787 C195.371,51.787 199.588,51.67 199.866,51.527 C200.143,51.383 200.901,51.135 200.956,51.28 C201.011,51.426 201.265,51.603 201.431,51.437 C201.597,51.271 202.384,50.807 202.529,51.059 C202.673,51.311 203.63,51.695 204.369,51.413 C204.369,51.413 204.369,51.413 205.003,51.411 C212.838,51.39 220.673,51.398 228.508,51.399 C232.235,51.399 235.121,51.391 235.121,51.391 C237.634,51.384 241.745,51.413 244.257,51.455 C244.257,51.455 247.158,51.504 250.922,51.034 C255.298,50.488 259.779,51.314 264.19,50.513 C265.147,50.339 266.173,50.579 267.15,50.47 C269.558,50.203 271.885,50.933 274.265,50.964 C274.437,50.966 274.437,50.966 274.437,50.966 C274.623,51.194 275.215,51.078 275.754,50.71 C275.754,50.71 275.754,50.71 276.317,51.131 C277.01,51.648 277.891,51.599 278.448,51.313 C280.276,50.372 280.276,50.372 280.276,50.372 C282.069,51.128 283.626,51.612 283.736,51.448 C283.736,51.448 283.736,51.448 283.902,51.434 C285.288,51.317 286.716,51.631 288.05,50.964 C288.19,50.893 288.473,51.022 288.651,51.125 C289.91,51.855 291.284,51.899 292.683,51.866 C293.9,51.838 295.118,51.887 296.334,51.849 C296.901,51.831 297.464,51.696 298.022,51.565 C299.227,51.282 299.227,51.282 299.227,51.282 C300.644,51.39 301.927,51.602 302.078,51.753 C302.229,51.904 303.827,52.106 305.202,51.775 C305.202,51.775 305.202,51.775 306.531,51.861 C306.607,51.866 306.607,51.866 306.607,51.866 C306.688,51.859 307.435,51.909 308.268,51.976 C309.101,52.044 312.458,51.532 313.979,51.687 C313.979,51.687 313.979,51.687 315.36,51.85 C315.442,51.86 315.442,51.86 315.442,51.86 C315.55,51.722 315.372,51.344 315.265,51.237 Z M201.254,53.343 C201.117,53.529 200.584,53.486 200.069,53.249 C200.069,53.249 200.069,53.249 199.597,53.244 C196.275,53.205 194.086,53.211 194.086,53.211 C191.574,53.217 189.599,53.352 189.697,53.511 C189.795,53.669 189.966,54.029 189.928,54.07 C189.89,54.112 189.585,54.088 189.334,53.925 C189.084,53.762 187.807,53.222 187.382,53.301 C186.958,53.38 185.583,53.551 185.474,53.467 C185.364,53.383 184.228,53.238 183.138,53.287 C182.047,53.337 179.071,54.023 178.895,54.35 C178.719,54.677 177.773,54.314 177.857,54.213 C177.941,54.111 177.335,53.539 176.154,53.368 C176.154,53.368 176.154,53.368 175.477,53.751 C174.457,54.328 174.457,54.328 174.457,54.328 C173.583,53.91 172.6,53.705 172.273,53.873 C171.947,54.041 170.514,54.59 170.149,54.548 C169.784,54.506 168.412,54.453 168.317,54.568 C168.221,54.684 167.558,54.733 166.928,54.574 C166.928,54.574 166.928,54.574 166.454,54.61 C165.144,54.708 163.843,54.957 162.533,55.031 C161.168,55.107 159.795,55.047 158.426,55.047 C156.685,55.047 156.685,55.047 156.685,55.047 C154.712,55.047 152.952,55.127 152.775,55.225 C152.598,55.323 153.475,56.052 154.332,56.143 C155.19,56.233 157.453,55.629 157.576,55.793 C157.576,55.793 157.576,55.793 157.69,55.798 C159.112,55.865 159.112,55.865 159.112,55.865 C160.678,55.913 162.592,55.853 163.367,55.732 C163.367,55.732 163.367,55.732 164.025,55.798 C165.121,55.908 166.164,56.11 167.26,55.703 C168.314,55.312 168.314,55.312 168.314,55.312 C169.468,55.67 171.196,55.658 172.153,55.286 C172.153,55.286 172.153,55.286 173.111,55.697 C174.172,56.153 175.252,56.048 176.333,55.744 C176.676,55.647 177.027,55.518 177.376,55.516 C180.114,55.498 182.858,55.416 185.588,55.566 C186.32,55.606 187.037,55.726 187.718,55.493 C189.529,54.873 191.391,55.081 193.239,55.051 C193.771,55.043 194.445,55.259 194.811,55.013 C196.163,54.104 197.608,54.684 198.985,54.641 C200.358,54.599 201.789,54.235 203.159,54.999 C203.493,55.186 203.493,55.186 203.493,55.186 C204.166,54.846 204.708,54.517 204.699,54.456 C204.69,54.395 204.394,54.202 204.06,54.164 C203.727,54.127 202.85,53.99 202.853,53.944 C202.857,53.898 203.187,53.777 203.581,53.777 C203.975,53.777 205.011,53.982 205.179,54.232 C205.348,54.482 207.421,55.071 209.485,55.095 C209.485,55.095 209.485,55.095 211.308,55.033 C212.232,55.002 212.232,55.002 212.232,55.002 C213.242,54.802 214.426,54.521 214.864,54.376 C214.864,54.376 214.864,54.376 215.311,54.583 C215.755,54.789 215.755,54.789 215.755,54.789 C216.16,54.894 216.942,54.816 217.495,54.616 C217.495,54.616 217.495,54.616 217.894,54.61 C220.1,54.579 222.306,54.605 224.512,54.589 C225.024,54.585 225.658,54.671 226.024,54.414 C226.836,53.843 226.836,53.843 226.836,53.843 C227.645,53.999 228.349,54.278 228.399,54.464 C228.449,54.65 228.806,55.184 228.99,54.907 C229.174,54.629 230.055,54.178 230.657,54.342 C231.258,54.506 233.053,54.758 233.251,54.521 C233.45,54.285 233.637,53.113 232.917,52.811 C232.917,52.811 232.917,52.811 232.392,52.804 C231.848,52.798 231.296,53.209 230.757,53.188 C230.221,53.167 230.221,53.167 230.221,53.167 C229.675,52.891 229.061,52.823 228.857,53.016 C228.652,53.209 227.9,53.635 227.758,53.421 C227.617,53.206 227.096,52.738 226.901,52.837 C226.707,52.936 226.224,53.092 226.152,53.019 C226.08,52.947 225.593,52.994 225.202,53.253 C224.811,53.512 223.263,54.095 222.837,53.839 C222.41,53.582 220.917,52.843 220.596,52.843 C220.275,52.843 219.37,52.953 219.44,53.088 C219.51,53.222 219.425,53.58 219.095,53.58 C218.765,53.58 217.948,53.462 217.918,53.319 C217.889,53.175 216.706,52.762 215.363,52.755 C215.363,52.755 215.363,52.755 214.159,52.788 C214.034,52.791 214.034,52.791 214.034,52.791 C213.903,53.03 213.658,53.297 213.49,53.386 C213.321,53.475 212.635,53.599 212.426,53.419 C212.218,53.238 210.475,52.624 209.033,52.471 C209.033,52.471 209.033,52.471 207.788,53.199 C207.515,53.359 206.974,53.343 206.703,53.173 C205.301,52.298 205.301,52.298 205.301,52.298 C203.847,52.793 202.54,53.118 202.395,53.02 C202.249,52.921 201.39,53.157 201.254,53.343 Z M373.741,38.4 C373.582,38.521 373.274,38.631 373.056,38.645 C373.056,38.645 373.056,38.645 372.995,38.616 C371.751,38.02 371.751,38.02 371.751,38.02 C371.132,38.366 370.867,38.649 371.164,38.649 C371.46,38.649 372.233,38.793 372.29,38.968 C372.348,39.143 372.605,39.458 372.748,39.317 C372.89,39.176 373.371,38.531 373.741,38.868 C374.111,39.205 374.52,39.202 374.52,38.992 C374.52,38.781 373.901,38.279 373.741,38.4 Z M538.825,14.016 C538.417,14.015 538.096,14 538.113,13.984 C538.129,13.967 538.125,13.868 538.066,13.8 C538.008,13.731 537.832,13.573 537.806,13.599 C537.779,13.626 537.766,13.743 537.834,13.801 C537.903,13.86 538.12,14.131 538.131,14.269 C538.143,14.407 538.455,14.866 538.781,14.75 C538.781,14.75 538.781,14.75 539.02,14.67 C539.278,14.584 539.539,14.506 539.798,14.422 C539.987,14.361 539.987,14.361 539.987,14.361 C540.193,14.29 540.351,14.199 540.337,14.16 C540.324,14.121 539.233,14.017 538.825,14.016 Z M529.864,17.655 C529.812,17.883 529.676,18.077 529.562,18.086 C529.448,18.095 528.996,18.262 529.013,18.422 C529.03,18.582 529.278,18.999 529.524,18.977 C529.771,18.955 530.336,18.772 530.215,18.621 C530.094,18.471 530.054,17.888 530.17,17.743 C530.287,17.598 529.916,17.426 529.864,17.655 Z M528.094,17.892 C527.936,17.711 527.636,17.414 527.428,17.231 C527.22,17.048 526.467,16.603 526.405,16.813 C526.344,17.023 526.413,17.563 526.692,17.564 C526.971,17.564 527.55,17.501 527.597,17.873 C527.645,18.245 527.899,19.088 528.067,19.004 C528.235,18.92 528.251,18.073 528.094,17.892 Z M569.974,36.702 C570.065,36.734 570.126,36.774 570.11,36.79 C570.094,36.806 570.098,36.905 570.157,36.974 C570.215,37.042 570.39,37.201 570.417,37.175 C570.443,37.148 570.457,37.031 570.388,36.972 C570.32,36.914 570.07,36.843 570.087,36.826 C570.103,36.81 570.098,36.711 570.04,36.642 C569.982,36.574 569.806,36.415 569.78,36.441 C569.753,36.468 569.883,36.67 569.974,36.702 Z M589.266,47.02 C589.022,47.082 588.602,47.25 588.332,47.393 C588.332,47.393 588.332,47.393 588.147,47.304 C585.483,46.024 582.635,46.507 579.846,46.388 C577.928,46.306 576.017,46.036 574.099,45.961 C572.123,45.885 570.141,45.986 568.165,45.923 C567.387,45.898 566.531,45.344 565.858,45.539 C563.112,46.331 562.141,46.258 562.141,46.258 C559.635,46.07 555.53,45.922 553.018,45.928 L539.783,45.951 C537.271,45.94 533.578,46.275 531.578,46.694 C531.578,46.694 531.578,46.694 529.693,46.426 C529.508,46.399 529.508,46.399 529.508,46.399 C529.274,46.685 528.668,46.756 528.16,46.556 C527.653,46.355 525.616,46.83 524.813,47.131 C524.813,47.131 524.813,47.131 524.058,47.29 C523.548,47.398 523.548,47.398 523.548,47.398 C522.974,47.327 522.141,47.245 521.698,47.215 C521.254,47.186 520.07,47.28 519.966,47.185 C519.861,47.09 518.781,47.02 517.76,47.207 C517.76,47.207 517.76,47.207 516.828,47.29 C515.847,47.379 514.852,47.316 513.862,47.308 C512.914,47.3 512.914,47.3 512.914,47.3 C511.914,47.002 510.915,46.921 510.693,47.12 C510.472,47.32 509.128,47.305 508.075,46.754 C508.075,46.754 508.075,46.754 507.163,47.474 C506.273,48.176 505.232,47.364 504.373,47.928 C504.246,48.011 504.028,48.065 503.898,48.015 C503.046,47.686 502.292,47.663 501.397,48.101 C500.673,48.456 500.673,48.456 500.673,48.456 C499.531,48.493 497.754,48.263 496.725,47.944 C496.725,47.944 496.725,47.944 495.557,48.512 C494.864,48.849 494.864,48.849 494.864,48.849 C494.144,48.517 493.058,48.419 492.45,48.631 C492.45,48.631 492.45,48.631 491.896,48.659 C490.682,48.722 489.449,48.566 488.248,48.705 C486.531,48.904 484.81,49.054 483.112,49.494 C482.062,49.766 482.062,49.766 482.062,49.766 C480.739,49.644 479.718,49.43 479.792,49.292 C479.867,49.153 479.119,48.678 477.894,48.677 C476.668,48.677 472.72,48.664 471.792,48.648 C470.864,48.631 468.239,49.357 467.841,49.199 C467.444,49.041 465.385,49.497 464.411,49.535 C464.411,49.535 464.411,49.535 463.508,49.604 C462.95,49.647 462.95,49.647 462.95,49.647 C462.225,49.837 461.57,49.946 461.494,49.888 C461.418,49.83 460.445,49.86 459.712,50.243 C459.712,50.243 459.712,50.243 458.966,50.369 C457.681,50.585 457.681,50.585 457.681,50.585 C456.277,50.371 454.919,50.392 454.663,50.63 C454.407,50.869 453.149,51.481 452.357,51.534 C451.566,51.587 448.558,51.044 447.495,51.051 C447.495,51.051 447.495,51.051 446.707,51.466 C445.537,52.081 445.537,52.081 445.537,52.081 C444.261,51.983 443.194,51.786 443.164,51.643 C443.135,51.5 441.992,51.418 440.711,51.883 C440.711,51.883 440.711,51.883 439.448,51.874 C438.155,51.865 438.155,51.865 438.155,51.865 C436.702,51.868 435.474,51.756 435.425,51.614 C435.377,51.472 433.5,50.831 431.422,50.676 C431.422,50.676 431.422,50.676 429.612,51.045 C428.126,51.349 428.126,51.349 428.126,51.349 C426.512,51.392 424.946,51.562 424.646,51.726 C424.346,51.889 422.427,52.008 421.064,51.617 C421.064,51.617 421.064,51.617 419.808,52.322 C418.887,52.839 418.887,52.839 418.887,52.839 C417.81,52.638 416.679,52.465 416.374,52.454 C416.069,52.443 415.213,52.553 415.378,52.698 C415.544,52.844 417.921,53.239 420.274,53.237 C420.274,53.237 420.274,53.237 422.474,53.243 C423.393,53.245 423.393,53.245 423.393,53.245 C424.385,53.421 426.047,53.46 427.086,53.331 C427.086,53.331 427.086,53.331 428.032,53.257 C428.939,53.186 429.857,53.242 430.77,53.242 C431.759,53.242 432.748,53.242 433.737,53.242 C434.726,53.242 435.716,53.232 436.705,53.244 C438.862,53.271 440.95,52.592 443.138,52.752 C445.257,52.908 447.458,53.106 449.513,52.712 C452.664,52.107 454.351,52.152 454.351,52.152 C456.862,52.219 460.465,52.211 462.358,52.135 C464.25,52.059 469.663,51.659 470.185,51.424 C470.708,51.19 472.347,51.594 472.79,51.741 C473.234,51.889 475.302,51.802 476.492,51.76 C477.683,51.719 482.072,51.225 483.684,51.095 C483.684,51.095 483.684,51.095 485.141,50.935 C486.187,50.82 486.187,50.82 486.187,50.82 C487.374,50.462 488.831,50.295 489.424,50.45 C489.424,50.45 489.424,50.45 490.056,50.488 C490.8,50.534 490.8,50.534 490.8,50.534 C491.61,50.439 492.877,50.639 493.614,50.977 C493.614,50.977 493.614,50.977 494.4,50.263 C494.83,49.872 495.836,49.989 496.561,50.07 C498.969,50.336 501.288,49.549 503.679,49.541 C504.699,49.538 505.61,48.848 506.789,49.454 C507.64,49.891 508.804,49.862 509.817,49.808 C511.117,49.739 511.117,49.739 511.117,49.739 C512.576,49.457 513.824,49.276 513.891,49.338 C513.958,49.4 514.773,49.395 515.69,49.317 C516.607,49.239 519.607,48.803 520.442,48.69 C521.277,48.577 523.687,49.152 523.628,49.17 C523.628,49.17 523.628,49.17 523.656,49.133 C524.093,48.565 524.715,48.684 525.299,48.683 C528.723,48.68 532.147,48.679 535.571,48.694 C535.683,48.695 535.795,48.878 535.905,48.979 C535.961,49.03 535.961,49.03 535.961,49.03 C536.018,49.092 536.547,48.922 537.134,48.652 C537.134,48.652 537.134,48.652 537.703,48.697 C539.164,48.812 539.164,48.812 539.164,48.812 C540.896,48.981 542.601,48.963 542.954,48.773 C543.306,48.582 545.129,48.989 546.024,48.937 C546.919,48.885 549.453,48.773 549.669,48.849 C549.885,48.925 550.129,49.16 549.731,49.185 C549.333,49.21 548.545,49.957 548.288,49.804 C548.03,49.651 545.462,49.731 542.953,49.852 C542.953,49.852 542.452,49.876 539.928,50.042 C538.943,50.107 537.948,50.094 536.961,50.043 C535.248,49.956 533.636,50.694 531.896,50.54 C530.234,50.394 528.546,50.45 526.877,50.541 C526.307,50.572 525.78,50.621 525.193,50.573 C524.286,50.498 524.286,50.498 524.286,50.498 C523.228,50.687 521.904,50.928 521.345,51.034 C520.786,51.139 519.119,50.653 518.898,50.938 C518.898,50.938 518.898,50.938 518.688,50.938 C517.58,50.939 516.514,51.261 515.446,51.361 C512.1,51.676 509.932,51.742 509.932,51.742 C507.421,51.818 503.995,52.021 502.32,52.194 C500.644,52.366 495.675,52.41 495.043,52.421 C495.043,52.421 495.043,52.421 494.447,52.731 C493.908,53.011 493.108,52.79 492.423,52.79 C491.662,52.79 490.901,52.79 490.14,52.79 C489.455,52.79 489.455,52.79 489.455,52.79 C488.702,52.786 486.131,52.956 483.743,53.166 C481.355,53.377 474.319,53.358 473.451,53.46 C473.451,53.46 473.451,53.46 472.714,53.719 C470.599,54.462 468.422,54.027 466.276,54.161 C464.736,54.257 463.162,53.868 461.653,54.577 C461.38,54.704 461.38,54.704 461.38,54.704 C460.912,54.435 460.024,54.373 459.408,54.567 C459.408,54.567 459.408,54.567 458.851,54.6 C455.872,54.782 452.836,54.624 449.922,55.15 C446.763,55.72 445.082,55.682 445.082,55.682 C442.57,55.625 438.46,55.577 435.947,55.576 C435.947,55.576 432.229,55.575 428.15,56.075 C425.298,56.425 422.482,56.351 419.651,56.423 C416.836,56.494 414.019,56.438 411.203,56.438 C410.914,56.438 410.914,56.438 410.914,56.438 C410.617,56.438 410.324,56.294 410.262,56.118 C410.2,55.942 409.89,55.644 409.702,55.821 C409.514,55.999 408.662,56.282 408.234,56.05 C407.806,55.817 405.903,56.405 405.345,56.56 C404.787,56.715 403.193,55.968 402.975,56.172 C402.756,56.376 401.797,56.89 401.297,56.89 C400.798,56.89 399.348,56.742 399.005,56.562 C398.662,56.382 397.565,56.033 397.43,56.241 C397.295,56.449 395.132,56.92 392.839,56.952 C392.839,56.952 392.839,56.952 390.869,56.871 C389.636,56.821 388.452,56.211 387.177,56.438 C386.4,56.577 385.634,56.798 384.852,56.876 C384.099,56.952 383.309,57.012 382.574,56.873 C378.392,56.08 374.536,56.25 374.536,56.25 C372.027,56.36 367.917,56.452 365.405,56.454 C365.405,56.454 361.449,56.458 357.187,56.413 C356.335,56.404 355.491,56.066 354.634,55.994 C353.728,55.917 352.8,56.057 351.899,55.953 C351.023,55.852 350.235,56.361 349.286,56.034 C348.47,55.753 347.479,55.976 346.566,55.976 C345.577,55.976 344.554,56.141 343.604,55.946 C339.95,55.2 336.22,55.963 332.611,55.435 C328.466,54.829 324.349,55.307 320.231,55.049 C318.919,54.967 317.62,54.69 316.308,54.621 C314.866,54.544 313.417,54.603 311.971,54.603 C310.601,54.603 309.224,54.686 307.863,54.575 C306.86,54.493 305.908,54.105 304.854,54.102 C303.849,54.1 303.849,54.1 303.849,54.1 C302.729,53.919 301.043,53.997 300.103,54.273 C300.103,54.273 300.103,54.273 299.303,54.109 C296.634,53.564 293.949,53.699 291.265,53.692 C290.527,53.691 289.971,53.041 289.167,53.214 C288.183,53.426 286.988,53.918 286.219,53.563 C285.215,53.098 285.215,53.098 285.215,53.098 C284.208,53.184 281.328,53.251 278.816,53.248 C278.816,53.248 270.141,53.237 263.519,53.217 C262.813,53.215 262.813,53.215 262.813,53.215 C261.815,53.057 260.871,52.991 260.716,53.069 C260.561,53.147 261.189,53.707 263.263,53.734 C263.263,53.734 263.263,53.734 264.911,53.671 C266.498,53.611 266.498,53.611 266.498,53.611 C268.025,54.18 269.284,54.715 269.297,54.8 C269.31,54.885 269.432,54.939 269.539,54.731 C269.647,54.523 270.122,54.195 270.496,54.195 C270.87,54.195 271.833,54.379 271.746,54.605 C271.66,54.83 271.794,55.511 272.278,55.511 C272.761,55.511 274.033,55.559 274.036,55.617 C274.039,55.675 273.709,55.888 273.294,55.96 C273.294,55.96 273.294,55.96 272.916,55.964 C271.165,55.978 269.414,55.949 267.664,55.985 C267.258,55.994 267.258,55.994 267.258,55.994 C266.751,56.186 265.681,56.297 264.881,56.242 C264.081,56.186 261.889,55.733 261.729,55.476 C261.568,55.219 260.967,54.562 260.923,54.862 C260.878,55.161 260.248,55.817 259.612,55.72 C259.612,55.72 259.612,55.72 259.035,55.691 C258.525,55.666 258.525,55.666 258.525,55.666 C257.931,55.595 257.104,55.537 256.687,55.537 C256.271,55.537 255.034,55.393 254.85,55.217 C254.666,55.042 254.024,54.598 253.809,54.598 C253.595,54.598 252.755,54.748 252.529,54.931 C252.304,55.114 251.48,55.585 251.407,55.404 C251.333,55.223 250.598,54.886 249.901,54.972 C249.204,55.057 247.132,55.282 247.099,55.252 C247.067,55.222 246.174,55.199 245.321,55.393 C244.468,55.586 241.674,55.244 241.138,55.388 C241.138,55.388 241.138,55.388 240.584,55.506 C240.106,55.609 240.106,55.609 240.106,55.609 C239.443,55.709 238.801,55.733 238.678,55.661 C238.555,55.589 237.179,55.675 236.402,55.381 C236.402,55.381 236.402,55.381 235.877,55.555 C233.442,56.361 233.07,56.331 233.07,56.331 C230.565,56.131 227.875,56.065 227.091,56.185 C227.091,56.185 227.091,56.185 226.282,55.595 C225.685,55.16 224.517,55.509 223.604,55.509 C222.691,55.509 221.772,55.45 220.865,55.526 C219.933,55.604 218.979,55.711 218.094,55.995 C217.263,56.262 216.617,55.504 215.692,55.891 C214.85,56.243 213.745,55.965 212.755,55.965 C211.842,55.965 210.925,55.918 210.016,55.975 C208.098,56.095 206.185,56.291 204.267,56.403 C203.867,56.427 203.867,56.427 203.867,56.427 C203.339,56.238 202.785,56.155 202.637,56.243 C202.489,56.33 201.042,56.142 200.371,56.394 C199.7,56.645 196.903,56.43 195.363,56.768 C193.824,57.107 188.261,56.757 186.718,56.991 C186.718,56.991 186.718,56.991 185.222,56.752 C184.577,56.649 184.129,56.251 183.461,56.774 C183.172,57 182.593,56.87 182.146,56.873 C180.928,56.882 179.662,56.668 178.506,56.935 C177.353,57.201 176.311,56.676 175.217,56.874 C174.441,57.014 173.545,56.517 172.883,57.323 C172.822,57.397 172.589,57.347 172.439,57.33 C171.727,57.246 171.029,56.522 170.369,56.917 C169.661,57.34 168.975,57.296 168.251,57.334 C167.234,57.389 166.267,58.182 165.255,57.76 C164.108,57.281 162.95,57.307 161.779,57.348 C161.069,57.373 160.395,57.31 159.635,57.685 C158.98,58.008 157.947,57.968 157.054,57.517 C156.277,57.126 156.277,57.126 156.277,57.126 C155.433,57.402 153.769,57.495 152.579,57.332 C152.579,57.332 152.579,57.332 151.577,57.358 C150.647,57.382 149.727,57.662 148.796,57.78 C147.789,57.907 147.789,57.907 147.789,57.907 C146.783,58.015 145.153,57.858 144.166,57.557 C144.166,57.557 144.166,57.557 143.745,57.857 C142.931,58.439 142.152,58.225 141.373,58.227 C130.793,58.251 120.214,58.236 109.635,58.254 C108.925,58.255 108.925,58.255 108.925,58.255 C108.199,58.454 106.901,58.375 106.041,58.079 C106.041,58.079 106.041,58.079 105.467,58.296 C103.936,58.875 102.481,58.738 100.939,58.484 C100.152,58.354 99.301,58.685 98.479,58.686 C87.824,58.702 77.168,58.695 66.513,58.694 C65.084,58.694 65.084,58.694 65.084,58.694 C63.535,58.694 62.235,58.818 62.195,58.969 C62.156,59.12 61.827,59.451 61.563,59.323 C61.3,59.195 60.432,58.854 60.343,58.911 C60.253,58.968 59.762,59.122 59.604,59.032 C59.445,58.941 58.713,58.796 58.413,58.959 C58.112,59.121 55.156,59.617 52.644,59.628 C52.644,59.628 48.201,59.649 43.635,59.589 C41.168,59.557 38.76,60.094 36.291,60.16 C34.309,60.214 32.318,60.865 30.277,61.022 C28.882,61.13 27.418,61.473 26.175,62.092 C25.204,62.576 24.272,62.035 23.361,62.483 C22.546,62.884 21.674,63.19 20.719,63.287 C19.518,63.41 19.518,63.41 19.518,63.41 C18.136,63.741 16.948,63.958 16.877,63.892 C16.807,63.827 16.718,63.282 17.062,63.037 C17.406,62.792 18.174,62.019 17.905,61.933 C17.905,61.933 17.905,61.933 17.703,61.89 C16.609,61.659 16.609,61.659 16.609,61.659 C15.406,61.794 13.393,61.933 12.137,61.967 C12.137,61.967 12.137,61.967 11.006,61.866 C10.007,61.776 10.007,61.776 10.007,61.776 C8.838,61.498 7.322,60.977 6.639,60.618 C5.955,60.258 5.751,57.962 6.061,57.684 C6.37,57.406 7.957,56.414 8.489,56.466 C9.021,56.518 10.964,56.58 11.053,56.43 C11.142,56.281 12.467,55.755 13.713,55.736 C14.959,55.717 18.342,54.941 18.636,54.347 C18.93,53.753 19.62,52.064 19.505,51.938 C19.389,51.812 18.514,51.408 17.854,51.362 C17.194,51.317 14.627,50.949 13.653,50.861 C12.679,50.773 10.121,51.688 10.08,51.802 C10.039,51.916 9.752,52.231 9.54,52.231 C9.328,52.231 8.786,52.124 8.752,51.994 C8.717,51.863 7.883,51.248 6.988,50.97 C6.988,50.97 6.988,50.97 6.155,50.966 C5.403,50.963 5.403,50.963 5.403,50.963 C4.713,51.228 3.595,50.807 2.921,50.028 C2.921,50.028 2.921,50.028 2.399,49.424 C1.88,48.822 1.88,48.822 1.88,48.822 C1.629,48.058 1.27,47.38 1.081,47.314 C0.893,47.249 1.007,46.548 1.642,45.865 C2.277,45.182 3.647,43.033 3.472,42.799 C3.472,42.799 3.472,42.799 3.365,42.617 C3.295,42.498 3.295,42.498 3.295,42.498 C3.215,42.252 4.511,40.511 6.174,38.628 C6.174,38.628 6.45,38.316 8.677,36.973 C9.211,36.65 9.211,36.65 9.211,36.65 C9.399,35.81 9.244,34.763 8.867,34.324 C8.489,33.884 6.528,33.834 6.149,33.524 C5.771,33.215 4.634,31.849 4.728,31.392 C4.821,30.936 5.693,29.438 6.43,29.207 C6.43,29.207 6.43,29.207 6.815,28.77 C8.117,27.296 9.949,26.694 11.613,25.973 C13.115,25.322 14.599,24.582 15.91,23.716 C17.719,22.521 19.775,21.955 21.611,20.896 C21.787,20.794 22.031,20.8 22.246,20.779 C23.857,20.623 25.483,20.559 27.076,20.3 C29.304,19.936 31.542,19.656 33.768,19.327 C35.542,19.065 37.361,18.942 39.106,18.482 C40.607,18.085 42.11,17.658 43.558,17.106 C45.726,16.28 47.826,15.279 49.994,14.454 C51.395,13.922 51.395,13.922 51.395,13.922 C53.036,13.674 53.934,13.852 53.393,14.319 C53.393,14.319 53.393,14.319 52.833,14.347 C51.564,14.413 51.564,14.413 51.564,14.413 C50.229,14.999 50.478,15.376 52.118,15.25 C52.118,15.25 52.118,15.25 53.467,15.061 C53.745,15.022 54.012,14.866 54.288,14.851 C54.895,14.818 55.513,14.899 56.112,14.823 C56.594,14.761 57.059,14.551 57.523,14.382 C59.064,13.822 60.752,13.914 62.277,13.172 C63.15,12.748 64.222,12.679 65.218,12.573 C67.129,12.37 69.046,12.195 70.965,12.118 C72.865,12.042 74.773,12.161 76.673,12.086 C78.744,12.004 80.89,11.376 82.858,11.751 C85.419,12.239 87.935,11.866 90.449,12.137 C91.033,12.2 91.484,11.411 92.18,12.048 C92.402,12.25 93.214,11.728 93.769,11.665 C94.446,11.588 95.141,11.606 95.822,11.661 C96.307,11.699 96.307,11.699 96.307,11.699 C96.949,11.877 97.564,11.975 97.673,11.915 C97.782,11.855 98.35,11.696 98.515,11.79 C98.679,11.885 99.301,12.104 99.421,12.006 C99.541,11.908 100.364,11.897 101.004,12.182 C101.004,12.182 101.004,12.182 101.491,12.069 C105.445,11.146 109.446,11.909 113.412,11.641 C115.027,11.532 116.633,11.285 118.248,11.208 C119.843,11.133 121.525,11.506 123.024,11.119 C125.344,10.52 127.635,10.861 129.933,10.755 C131.037,10.704 132.008,10.083 133.174,10.243 C134.169,10.38 135.236,10.473 136.184,9.833 C136.703,9.483 136.703,9.483 136.703,9.483 C137.336,9.67 138.782,9.725 139.917,9.605 C141.052,9.485 144.225,9.177 144.309,9.043 C144.393,8.909 144.099,8.455 143.391,8.455 C142.683,8.455 140.752,8.412 140.731,8.36 C140.711,8.307 140.774,8.114 140.917,8.046 C141.061,7.977 142.783,7.825 144.427,7.86 C146.071,7.894 150.808,7.395 150.945,7.694 C151.082,7.993 151.566,8.647 151.694,8.438 C151.822,8.228 152.816,7.574 153.619,7.446 C154.423,7.319 156.332,7.235 155.935,7.566 C155.537,7.898 155.377,8.453 155.929,8.571 C156.482,8.689 157.931,8.088 158.016,8.167 C158.102,8.246 158.608,8.372 158.941,8.263 C159.275,8.154 160.291,7.762 160.309,7.682 C160.327,7.603 160.597,7.211 160.83,7.163 C161.064,7.115 162.066,7.893 163.011,7.893 C163.956,7.894 166.858,7.524 167.206,7.072 C167.554,6.62 169.409,6.279 169.512,6.463 C169.615,6.646 170.387,6.877 171.135,6.814 C171.884,6.751 173.838,7.399 174.165,7.195 C174.165,7.195 174.165,7.195 174.497,7.101 C174.779,7.022 175.101,7.085 175.406,7.085 C175.786,7.085 176.179,7.144 176.544,7.068 C176.878,6.998 177.169,6.731 177.504,6.644 C177.789,6.57 178.12,6.577 178.41,6.642 C178.748,6.718 178.748,6.718 178.748,6.718 C179.135,6.903 179.908,6.907 180.467,6.726 C181.025,6.546 182.566,6.1 182.596,6.153 C182.626,6.206 182.571,6.506 182.406,6.701 C182.24,6.897 181.928,7.738 182.148,8.058 C182.368,8.378 183.561,9.511 184.341,9.91 C184.341,9.91 184.341,9.91 184.682,9.69 C185.365,9.251 185.365,9.251 185.365,9.251 C186.07,9.317 186.961,9.298 187.345,9.21 C187.729,9.122 188.887,9.69 189.445,9.49 C189.445,9.49 189.445,9.49 189.924,9.382 C190.214,9.317 190.214,9.317 190.214,9.317 C190.556,9.347 192.888,9.278 195.398,9.162 L209.833,9.137 C212.343,9.008 214.777,8.842 215.244,8.768 C215.244,8.768 215.244,8.768 215.656,8.651 C216.407,8.437 216.407,8.437 216.407,8.437 C216.951,8.688 217.836,8.753 218.374,8.581 C218.374,8.581 218.374,8.581 218.853,8.468 C219.07,8.416 219.309,8.448 219.536,8.461 C224.886,8.766 230.983,8.305 230.983,8.305 C233.488,8.115 235.815,7.605 236.154,7.171 C236.493,6.737 237.777,5.714 237.982,6.21 C238.188,6.707 240.781,8.012 243.293,8.022 C243.293,8.022 245.249,8.03 248.583,7.984 C249.283,7.974 250.022,7.8 250.665,7.52 C251.293,7.246 251.771,8.306 252.393,7.603 C252.464,7.522 252.882,7.774 253.148,7.835 C254.082,8.049 254.996,8.214 255.928,7.711 C256.286,7.518 256.855,7.432 257.217,7.576 C258.867,8.235 258.867,8.235 258.867,8.235 C260.646,7.858 263.848,7.549 265.984,7.549 C268.119,7.549 274.082,7.71 274.492,7.906 C274.901,8.101 275.969,8.005 276.48,8.079 C276.48,8.079 276.48,8.079 276.97,7.746 C277.352,7.486 278.2,7.573 278.654,7.833 C279.423,8.273 279.423,8.273 279.423,8.273 C279.934,7.897 280.887,7.767 281.541,7.985 C281.541,7.985 281.541,7.985 282.093,7.99 C285.974,8.023 289.857,7.963 293.738,8.029 C295.428,8.058 295.428,8.058 295.428,8.058 C297.279,8.25 300.849,8.379 303.361,8.345 C303.361,8.345 310.4,8.249 316.195,8.002 C317.51,7.946 317.51,7.946 317.51,7.946 C318.944,7.729 322.173,7.547 324.685,7.541 C324.685,7.541 332.501,7.522 338.644,8.107 C342.483,8.473 346.292,8.286 350.109,8.483 C350.443,8.5 350.443,8.5 350.443,8.5 C350.806,8.683 351.294,8.689 351.527,8.512 C351.527,8.512 351.527,8.512 351.788,8.488 C352.392,8.43 353.004,8.47 353.613,8.47 C366.934,8.471 389.008,8.489 389.008,8.489 C391.52,8.491 394.452,8.314 395.522,8.096 C395.522,8.096 395.522,8.096 396.376,8.908 C396.525,9.049 397.036,9.012 397.234,8.864 C397.993,8.297 398.677,8.309 399.441,8.851 C399.647,8.997 399.647,8.997 399.647,8.997 C400.009,8.95 401.627,8.647 403.243,8.324 C403.243,8.324 403.243,8.324 404.745,8.897 C405.103,9.033 405.103,9.033 405.103,9.033 C405.617,8.849 406.772,8.322 407.67,7.861 C407.67,7.861 407.67,7.861 408.496,8.484 C409.244,9.049 409.85,8.937 410.667,8.535 C411.123,8.31 411.123,8.31 411.123,8.31 C411.884,8.587 413.062,8.671 413.741,8.497 C413.741,8.497 413.741,8.497 414.369,8.49 C417.566,8.457 420.763,8.492 423.96,8.464 C424.858,8.456 425.754,8.25 426.651,8.249 C427.531,8.249 428.41,8.446 429.291,8.455 C429.769,8.46 429.769,8.46 429.769,8.46 C430.397,8.262 431.169,8.256 431.485,8.447 C431.485,8.447 431.485,8.447 431.881,8.455 C434.088,8.498 436.359,8.806 438.489,8.401 C441.87,7.757 445.23,8.227 448.59,8.015 C449.089,7.984 449.089,7.984 449.089,7.984 C449.634,7.849 450.398,7.667 450.786,7.581 C451.174,7.495 452.512,7.851 453.024,7.644 C453.024,7.644 453.024,7.644 453.505,7.582 C454.104,7.506 454.723,7.532 455.329,7.569 C460.837,7.9 467.254,7.437 467.254,7.437 C469.76,7.257 473.186,6.887 474.867,6.617 C474.867,6.617 474.867,6.617 476.416,6.671 C476.894,6.688 476.894,6.688 476.894,6.688 C477.435,6.9 478.8,7.231 479.928,7.424 C481.057,7.616 484.153,6.883 484.172,6.803 C484.191,6.723 484.599,6.265 484.969,6.248 C485.338,6.231 486.377,6.324 486.441,6.494 C486.504,6.664 487.57,7.166 488.669,7.234 C489.767,7.303 494.637,6.895 497.142,6.711 C497.142,6.711 497.183,6.708 499.486,6.634 C500.113,6.614 500.732,6.227 501.353,6.232 C501.972,6.236 502.614,6.463 503.209,6.716 C503.425,6.807 503.425,6.807 503.425,6.807 C503.565,7.253 503.732,7.479 503.797,7.307 C503.862,7.136 504.566,6.635 505.2,6.618 C505.834,6.602 507.185,7.06 506.79,7.06 C506.395,7.06 505.349,7.11 505.343,7.171 C505.337,7.233 505.96,7.469 506.743,7.559 C507.525,7.649 509.745,7.86 509.797,7.814 C509.849,7.767 510.125,7.693 510.261,7.784 C510.397,7.875 510.852,8.013 511.005,7.911 C511.159,7.809 511.851,7.736 512.168,7.996 C512.168,7.996 512.168,7.996 512.477,8.002 C514.607,8.046 516.81,8.36 518.849,7.926 C520.653,7.541 522.398,7.717 524.163,7.59 C524.479,7.568 524.479,7.568 524.479,7.568 C524.863,7.779 525.235,7.898 525.307,7.832 C525.378,7.766 525.81,7.557 525.965,7.643 C526.12,7.73 526.6,7.893 526.694,7.817 C526.789,7.741 527.222,7.584 527.393,7.68 C527.564,7.777 528.327,7.832 528.668,7.567 C528.668,7.567 528.668,7.567 528.961,7.596 C531.669,7.863 534.302,6.926 536.994,7.127 C537.927,7.196 538.843,7.476 539.776,7.554 C540.683,7.63 541.603,7.602 542.514,7.558 C542.999,7.535 542.999,7.535 542.999,7.535 C543.585,7.385 544.659,7.457 545.384,7.693 C545.384,7.693 545.384,7.693 546.001,7.513 C546.783,7.283 547.441,7.552 548.152,7.548 C548.857,7.544 548.857,7.544 548.857,7.544 C549.616,7.318 550.311,7.2 550.402,7.282 C550.492,7.365 551.622,7.256 552.681,6.833 C552.681,6.833 552.681,6.833 553.851,7.439 C554.573,7.813 555.63,7.499 556.528,7.584 C557.837,7.708 559.214,7.182 560.465,8.007 C560.647,8.127 561.098,8.044 561.301,7.891 C561.999,7.364 562.634,7.398 563.34,7.867 C563.56,8.013 563.56,8.013 563.56,8.013 C563.902,8.017 566.232,8.164 568.739,8.34 C568.739,8.34 574.092,8.714 579.065,8.489 C579.363,8.476 579.363,8.476 579.363,8.476 C579.67,8.482 580.052,8.618 580.211,8.777 C580.37,8.936 581.391,9.27 582.187,9.227 C582.983,9.184 585.058,9.031 585.1,9.19 C585.142,9.349 585.349,9.766 585.495,9.864 C585.495,9.864 585.495,9.864 585.614,9.849 C587.867,9.556 587.867,9.556 587.867,9.556 C590.285,10.027 593.648,10.579 595.341,10.782 C595.341,10.782 595.341,10.782 596.882,10.751 C598.662,10.714 598.662,10.714 598.662,10.714 C600.502,11.113 601.937,11.574 601.851,11.739 C601.766,11.904 601.72,12.488 602.004,12.548 C602.288,12.608 602.49,12.749 601.592,12.679 C600.695,12.609 598.502,13.35 598.343,13.272 C598.184,13.195 597.639,13.069 597.599,13.221 C597.559,13.373 598.422,13.986 599.625,14.166 C599.625,14.166 599.625,14.166 600.561,13.904 C601.656,13.597 602.596,14.14 603.63,14.002 C604.677,13.862 605.758,13.994 606.823,13.965 C607.932,13.935 608.902,14.566 610.063,14.483 C611.026,14.415 611.026,14.415 611.026,14.415 C612.133,14.757 612.594,15.539 612.05,16.151 C612.05,16.151 612.05,16.151 611.557,16.189 C610.644,16.259 610.644,16.259 610.644,16.259 C609.588,16.066 608.486,15.937 608.196,15.972 C607.907,16.008 606.136,16.049 605.146,15.917 C605.146,15.917 605.146,15.917 604.139,15.787 C603.209,15.667 603.209,15.667 603.209,15.667 C602.166,15.537 600.845,15.41 600.273,15.385 C599.701,15.361 598.158,15.448 597.903,15.579 C597.648,15.711 597.116,16.063 597.177,16.129 C597.237,16.195 599.434,16.448 601.934,16.699 C601.934,16.699 605.003,17.007 608.849,16.751 C609.825,16.686 609.825,16.686 609.825,16.686 C611.061,17.05 612.284,17.577 612.542,17.857 C612.8,18.138 613.714,18.865 613.933,18.779 C614.153,18.692 614.899,18.527 614.789,18.726 C614.679,18.926 614.739,19.453 615.169,19.453 C615.599,19.453 616.705,19.438 616.694,19.447 C616.683,19.457 616.693,19.551 616.751,19.619 C616.81,19.688 616.985,19.847 617.011,19.82 C617.038,19.794 617.051,19.676 616.983,19.618 C616.915,19.56 616.646,19.327 616.564,19.202 C616.482,19.077 616.438,18.606 616.673,18.512 C616.673,18.512 616.673,18.512 616.851,18.56 C617.045,18.612 617.045,18.612 617.045,18.612 C617.228,18.811 617.446,18.909 617.531,18.832 C617.615,18.754 618.122,18.622 618.451,18.728 C618.779,18.835 619.814,19.255 619.872,19.376 C619.931,19.497 620.208,19.777 620.295,19.595 C620.382,19.412 620.81,18.882 620.943,19.051 C621.077,19.22 622.336,20.14 623.238,20.461 C623.238,20.461 623.238,20.461 624.515,20.19 C625.933,19.89 625.933,19.89 625.933,19.89 C627.604,20.196 630.22,20.549 631.747,20.673 C631.747,20.673 631.747,20.673 633.121,20.834 C633.528,20.882 633.528,20.882 633.528,20.882 C634.008,21.035 634.496,21.065 634.613,20.948 C634.73,20.832 636.021,20.372 637.033,20.377 C637.033,20.377 637.033,20.377 638.004,20.366 C638.816,20.357 638.816,20.357 638.816,20.357 C639.474,20.877 640.005,21.295 639.995,21.284 C639.986,21.273 639.892,21.282 639.823,21.341 C639.755,21.399 639.596,21.575 639.623,21.601 C639.649,21.627 639.766,21.641 639.825,21.573 C639.883,21.504 640.304,21.512 640.66,21.766 C640.66,21.766 640.66,21.766 640.936,21.711 C642.924,21.311 644.598,22.627 646.5,22.683 C646.774,22.691 646.774,22.691 646.774,22.691 C647.282,23.219 646.954,23.712 646.046,23.787 C645.137,23.861 642.599,23.094 642.203,22.999 C641.808,22.903 640.543,23.438 640.241,23.462 C639.938,23.486 638.948,23.309 638.619,23.561 C638.291,23.814 636.834,23.25 636.376,23.131 C636.376,23.131 636.376,23.131 635.947,23.119 C634.882,23.09 633.812,23.052 632.751,23.123 C631.288,23.22 631.288,23.22 631.288,23.22 C629.704,23.461 627.697,23.816 626.83,24.009 C626.83,24.009 626.83,24.009 626.05,24 C624.639,23.984 623.346,24.665 621.897,24.512 C620.466,24.361 619.007,24.457 617.562,24.499 C617.316,24.506 617.316,24.506 617.316,24.506 C617.197,24.651 615.6,24.651 613.767,24.506 C611.935,24.361 607.162,24.18 607.137,24.417 C607.112,24.654 606.793,25.3 606.485,25.3 C606.178,25.3 605.354,25.269 605.345,25.232 C605.336,25.195 605.503,25.051 605.737,24.996 C605.972,24.941 606.615,24.69 606.609,24.57 C606.603,24.45 606.419,24.005 606.226,24.067 C606.033,24.129 604.331,24.431 602.996,24.561 C602.996,24.561 602.996,24.561 601.681,24.493 C600.33,24.423 600.33,24.423 600.33,24.423 C598.737,24.615 597.562,24.805 597.718,24.845 C597.874,24.885 598.45,24.889 598.652,24.765 C598.854,24.642 599.618,25.232 599.808,25.157 C599.998,25.082 600.618,24.976 600.641,25.138 C600.664,25.3 600.116,25.667 599.372,25.607 C598.629,25.547 596.573,26.075 596.396,25.966 C596.219,25.858 594.948,25.955 593.769,26.047 C593.769,26.047 593.769,26.047 592.778,26.621 C592.4,26.841 592.4,26.841 592.4,26.841 C591.508,26.623 590.545,26.586 590.259,26.76 C590.259,26.76 590.259,26.76 589.797,26.737 C583.909,26.452 578.059,27.479 572.174,27.222 C571.186,27.178 570.191,27.157 569.206,27.23 C567.971,27.321 566.747,27.577 565.511,27.655 C564.32,27.731 564.32,27.731 564.32,27.731 C563.004,27.745 563.026,27.937 564.369,28.156 C565.712,28.376 567.724,28.343 567.777,28.488 C567.829,28.633 568.078,28.962 568.167,28.774 C568.257,28.586 568.839,28.387 569.275,28.718 C569.712,29.05 570.976,29.969 570.89,30.299 C570.89,30.299 570.89,30.299 570.88,30.297 C569.786,30.049 568.718,30.578 567.64,30.396 C567.451,30.365 567.451,30.365 567.451,30.365 C567.273,30.147 566.462,30.109 565.651,30.279 C564.84,30.449 562.585,30.009 562.461,30.094 C562.337,30.18 561.464,30.638 560.861,30.877 C560.258,31.116 558.578,30.236 557.988,30.353 C557.988,30.353 557.988,30.353 557.504,30.407 C556.49,30.521 556.49,30.521 556.49,30.521 C555.345,30.41 553.91,30.34 553.301,30.366 C552.693,30.391 551.042,30.547 550.979,30.713 C550.915,30.878 549.308,31.357 547.566,31.364 C547.566,31.364 547.566,31.364 545.906,30.975 C543.957,30.518 541.82,30.851 539.766,30.89 C539.535,30.894 539.535,30.894 539.535,30.894 C539.354,31.11 538.645,31.115 537.958,30.905 C537.958,30.905 537.958,30.905 537.403,30.885 C535.958,30.832 534.51,30.891 533.065,30.851 C532.665,30.841 532.665,30.841 532.665,30.841 C532.308,30.693 531.055,30.655 529.88,30.755 C529.88,30.755 529.88,30.755 528.877,30.872 C528.081,30.965 527.422,29.826 526.454,30.79 C525.97,31.272 524.984,30.819 524.146,31.229 C523.286,31.65 523.286,31.65 523.286,31.65 C522.062,31.469 520.931,31.477 520.773,31.667 C520.616,31.857 520.039,32.3 519.962,32.085 C519.886,31.871 519.464,31.533 519.076,31.482 C518.689,31.431 517.646,31.515 517.602,31.781 C517.559,32.047 516.587,32.786 515.549,32.766 C514.511,32.747 511.622,33.395 511.523,33.23 C511.423,33.066 510.022,32.641 508.686,32.745 C507.349,32.849 504.569,33.292 505.507,33.359 C505.507,33.359 505.507,33.359 506.324,33.883 C506.977,34.302 508.093,34.156 508.967,34.024 C509.707,33.912 510.377,33.923 511.111,34.032 C511.991,34.162 511.991,34.162 511.991,34.162 C513.053,34.108 513.788,34.326 513.624,34.647 C513.46,34.969 513.243,35.82 513.488,35.859 C513.734,35.898 514.34,36.081 514.347,36.188 C514.355,36.295 514.215,36.702 514.008,36.669 C513.801,36.636 513.013,36.572 512.907,36.629 C512.801,36.687 512.269,36.809 512.211,36.638 C512.152,36.467 511.715,35.966 511.352,35.85 C510.989,35.735 509.944,35.507 509.905,35.621 C509.865,35.735 509.937,36.213 510.207,36.273 C510.476,36.332 511.16,36.515 511.159,36.555 C511.159,36.595 510.911,36.718 510.609,36.74 C510.308,36.761 509.432,36.712 509.405,36.578 C509.378,36.444 508.559,35.778 507.644,35.394 C507.644,35.394 507.644,35.394 506.66,35.417 C504.546,35.468 504.546,35.468 504.546,35.468 C502.184,35.579 500.492,35.755 500.786,35.858 C501.08,35.961 501.956,36.199 502.024,36.138 C502.092,36.077 502.682,35.973 503.061,36.153 C503.44,36.333 505.195,35.958 505.761,35.934 C506.328,35.909 507.9,36.003 507.918,36.141 C507.936,36.28 507.254,36.765 506.342,36.765 C505.43,36.765 503.319,36.945 503.557,37.165 C503.794,37.385 505.865,38.331 508.003,38.523 C508.003,38.523 508.003,38.523 509.92,37.857 C510.461,37.669 511.104,37.685 511.688,37.739 C512.168,37.783 512.63,38.14 513.099,38.141 C513.569,38.141 513.569,38.141 513.569,38.141 C514.062,37.937 514.854,37.751 515.327,37.728 C515.327,37.728 515.327,37.728 515.727,37.746 C516.205,37.768 516.205,37.768 516.205,37.768 C516.851,38.019 517.436,38.048 517.505,37.832 C517.573,37.615 518.637,37.441 519.75,37.813 C519.75,37.813 519.75,37.813 520.13,37.543 C520.781,37.079 520.781,37.079 520.781,37.079 C521.401,37.156 522.199,37.421 522.553,37.668 C522.908,37.915 524.922,37.463 525.847,37.51 C525.847,37.51 525.847,37.51 526.713,37.483 C527.445,37.459 527.445,37.459 527.445,37.459 C528.267,37.29 528.939,37.054 528.939,36.934 C528.939,36.814 528.774,36.429 528.572,36.429 C528.369,36.429 527.647,36.275 527.749,36.087 C527.852,35.898 527.957,35.133 527.692,34.924 C527.426,34.714 526.376,34.117 526.128,34.202 C525.881,34.287 525.069,34.467 524.976,34.38 C524.882,34.293 524.227,34.123 523.717,34.187 C523.208,34.25 521.813,34.47 521.774,34.339 C521.735,34.207 521.862,33.694 522.181,33.617 C522.181,33.617 522.181,33.617 522.446,33.613 C523.435,33.597 523.435,33.597 523.435,33.597 C524.499,33.556 525.782,33.704 526.287,33.927 C526.791,34.15 528.195,33.035 528.648,32.868 C529.102,32.702 530.497,33.248 530.935,33.296 C531.372,33.344 532.558,33.82 532.558,33.951 C532.558,34.082 532.465,34.502 532.352,34.41 C532.238,34.319 531.89,34.221 531.813,34.381 C531.735,34.542 531.287,34.964 531.042,34.851 C530.797,34.739 530.067,34.533 530.019,34.668 C529.972,34.803 530.284,35.367 530.899,35.397 C531.514,35.428 533.1,35.638 532.954,35.792 C532.807,35.946 532.061,36.36 531.631,36.36 C531.201,36.36 529.975,36.469 529.956,36.603 C529.937,36.737 531.717,37.16 533.966,37.16 C536.216,37.16 542.128,36.902 542.128,36.586 C542.128,36.269 542.032,35.351 541.916,35.6 C541.799,35.85 541.492,36.343 541.399,36.343 C541.307,36.343 540.99,36.226 540.94,36.083 C540.891,35.94 540.603,35.457 540.524,35.648 C540.445,35.839 539.96,36.301 539.601,36.301 C539.242,36.301 538.201,36.206 538.177,36.09 C538.153,35.975 537.954,35.506 537.842,35.572 C537.73,35.639 537.037,35.781 536.734,35.634 C536.43,35.486 535.501,35.088 535.458,35.131 C535.415,35.173 535.024,35.36 534.954,35.179 C534.884,34.998 534.711,34.494 534.73,34.472 C534.749,34.451 534.837,34.212 534.762,34.123 C534.687,34.033 534.625,33.707 534.793,33.601 C534.793,33.601 534.793,33.601 534.912,33.617 C536.364,33.816 536.364,33.816 536.364,33.816 C537.969,33.943 540.119,33.908 541.141,33.739 C541.141,33.739 541.141,33.739 542.073,33.636 C542.376,33.602 542.376,33.602 542.376,33.602 C542.758,33.846 544.003,33.873 545.141,33.661 C545.141,33.661 545.141,33.661 546.334,33.572 C548.971,33.376 551.522,34.206 554.14,34.064 C555.381,33.997 555.381,33.997 555.381,33.997 C556.744,33.813 558.336,33.786 558.92,33.936 C558.92,33.936 558.92,33.936 559.472,34.06 C559.965,34.17 560.566,34.08 560.951,34.334 C561.702,34.83 561.702,34.83 561.702,34.83 C562.276,34.41 563.102,34.268 563.538,34.514 C563.538,34.514 563.538,34.514 563.926,34.502 C568.746,34.345 573.527,35.325 578.352,34.99 C579.335,34.922 579.335,34.922 579.335,34.922 C580.403,34.903 581.831,34.761 582.508,34.607 C583.186,34.453 585.736,34.759 586.934,34.923 C586.934,34.923 586.934,34.923 588.022,34.96 C588.417,34.974 588.417,34.974 588.417,34.974 C588.966,34.74 589.486,34.596 589.572,34.654 C589.657,34.711 590.215,34.951 590.354,34.879 C590.493,34.807 592.234,34.398 593.699,34.242 C593.699,34.242 593.699,34.242 594.969,34.598 C596.525,35.035 596.525,35.035 596.525,35.035 C598.239,35.022 599.669,35.097 599.702,35.202 C599.735,35.308 599.716,35.673 599.603,35.834 C599.603,35.834 599.603,35.834 599.486,35.89 C598.765,36.236 598.127,35.473 597.314,35.792 C596.655,36.051 595.823,35.842 595.073,35.905 C593.913,36.001 592.776,35.826 591.574,36.257 C590.761,36.548 589.634,36.553 588.558,35.976 C587.483,35.4 587.483,35.4 587.483,35.4 C585.923,36.11 585.029,36.899 585.496,37.153 C585.963,37.408 586.196,37.784 585.21,37.551 C584.224,37.319 581.578,38.018 581.872,38.088 C582.166,38.158 582.133,38.411 580.81,38.414 C579.488,38.417 576.188,37.886 576.345,37.693 C576.501,37.499 576.508,36.901 575.925,36.901 C575.343,36.901 573.881,37.037 574.28,37.204 C574.678,37.371 574.646,37.951 573.198,38.07 C571.75,38.189 569.256,37.882 569.237,38 C569.219,38.117 569.757,38.635 570.515,38.635 C570.515,38.635 570.515,38.635 571.172,38.635 C571.843,38.635 571.843,38.635 571.843,38.635 C572.58,38.635 573.189,38.678 573.196,38.729 C573.204,38.781 573.041,38.963 572.818,39.018 C572.596,39.074 572.345,39.347 572.755,39.5 C573.165,39.653 574.163,40.259 574.034,40.395 C573.905,40.53 572.547,40.947 571.469,40.844 C570.39,40.742 567.421,40.579 567.409,40.724 C567.397,40.869 567.437,41.248 567.514,41.351 C567.514,41.351 567.514,41.351 567.568,41.352 C570.059,41.36 570.536,41.359 570.536,41.359 C573.048,41.359 575.025,41.197 574.928,41 C574.831,40.802 574.766,40.148 575.047,40.085 C575.328,40.023 575.999,39.757 575.794,39.66 C575.589,39.564 575.124,39.272 575.124,39.183 C575.124,39.093 575.232,38.796 575.365,38.708 C575.365,38.708 575.365,38.708 575.437,38.74 C575.631,38.824 575.805,39.085 575.976,39.076 C579.204,38.899 581.06,39.085 581.06,39.085 C583.56,39.336 585.785,39.496 586.005,39.44 C586.224,39.384 587.602,39.3 588.491,39.407 C588.491,39.407 588.491,39.407 589.337,39.558 C590.131,39.7 590.835,39.16 591.723,39.488 C592.527,39.785 593.527,39.551 594.44,39.551 C595.354,39.551 595.354,39.551 595.354,39.551 C596.343,39.551 597.501,39.803 597.928,40.11 C598.354,40.418 601.138,41.352 602.912,41.319 C602.912,41.319 602.912,41.319 604.643,41.396 C606.258,41.468 606.258,41.468 606.258,41.468 C608.044,41.629 609.974,41.86 610.546,41.982 C611.118,42.104 613.164,41.42 613.96,41.502 C614.757,41.584 617.065,41.999 617.227,42.153 C617.39,42.307 617.967,42.616 618.116,42.467 C618.265,42.318 618.798,41.955 618.909,42.052 C619.021,42.148 619.662,42.268 620.318,42.334 C620.975,42.399 622.643,41.618 623.014,41.813 C623.014,41.813 623.014,41.813 623.343,41.82 C625.017,41.857 626.701,41.947 628.364,41.81 C630.547,41.632 632.616,42.501 634.781,42.355 C634.881,42.349 634.881,42.349 634.881,42.349 C634.983,42.501 635.274,42.563 635.529,42.487 C635.784,42.41 636.639,42.313 636.79,42.463 C636.941,42.612 637.302,43.22 637.173,43.397 C637.044,43.573 635.591,44.122 634.305,44.122 C634.305,44.122 634.305,44.122 633.105,44.122 C631.658,44.122 630.212,44.145 628.766,44.115 C627.359,44.086 626.049,44.855 624.616,44.581 C624.054,44.474 623.451,44.781 622.907,44.243 C622.724,44.062 622.11,44.269 621.709,44.367 C621.111,44.514 618.926,44.568 618.295,44.607 C617.273,44.67 617.273,44.67 617.273,44.67 C616.136,44.761 614.784,44.907 614.269,44.993 C613.754,45.08 612.353,44.785 611.974,44.794 C611.596,44.803 610.467,45.013 610.339,44.765 C610.21,44.517 609.761,44.086 609.549,44.211 C609.338,44.335 608.55,44.81 608.605,44.729 C608.659,44.649 608.91,44.218 608.712,44.202 C608.515,44.186 608.017,44.271 608.029,44.425 C608.041,44.579 608.6,44.979 608.716,45.106 C608.831,45.233 607.249,45.979 605.2,46.088 C605.2,46.088 605.2,46.088 603.245,45.621 C601.044,45.095 598.693,45.201 596.407,45.034 C596.256,45.023 596.084,44.987 595.954,45.04 C595.414,45.265 595.414,45.265 595.414,45.265 C594.847,45.502 594.199,45.888 593.974,46.125 C593.75,46.361 593.695,46.44 594.626,46.705 C595.557,46.969 598.245,47.663 598.328,47.6 C598.411,47.538 599.553,47.57 600.768,47.746 C601.983,47.921 605.376,48.506 605.123,48.587 C604.87,48.668 603.851,48.987 603.273,49.162 C602.695,49.338 600.523,48.635 599.751,48.57 C599.751,48.57 599.751,48.57 599.021,48.641 C598.346,48.706 597.632,48.386 596.936,48.229 C596.162,48.055 596.162,48.055 596.162,48.055 C595.299,47.932 594.108,47.911 593.514,48.01 C593.514,48.01 593.514,48.01 592.935,47.798 C592.416,47.608 592.416,47.608 592.416,47.608 C591.816,47.372 591.272,47.329 591.207,47.514 C591.142,47.699 590.032,48.233 588.902,48.236 C588.902,48.236 588.902,48.236 587.853,48.22 C587.728,48.219 587.728,48.219 587.728,48.219 C587.592,48.113 587.767,48.08 588.117,48.145 C588.467,48.21 588.824,47.154 588.826,47.18 C588.827,47.207 589.035,47.341 589.282,47.309 C589.529,47.277 590.175,47.146 590.17,47.09 C590.166,47.034 589.509,46.958 589.266,47.02 Z" id="Fill-35"></path>
                <path d="M384.132,58.314 C384.779,58.526 385.692,58.604 386.162,58.487 C386.631,58.37 388.517,58.764 389.182,58.758 C389.182,58.758 389.182,58.758 389.878,58.374 C390.463,58.051 391.354,58.24 392.106,58.274 C392.897,58.311 392.897,58.311 392.897,58.311 C393.787,58.491 394.572,58.588 394.639,58.527 C394.707,58.466 395.02,58.368 395.138,58.486 C395.256,58.605 395.536,59.053 395.536,59.259 C395.536,59.465 395.261,59.778 394.926,59.655 C394.59,59.532 393.237,59.959 392.866,59.934 C392.495,59.91 390.754,59.987 390.217,60.244 C390.217,60.244 390.217,60.244 389.917,60.027 C388.801,59.22 388.801,59.22 388.801,59.22 C387.684,59.712 386.604,59.967 386.402,59.786 C386.201,59.605 384.714,59.311 383.629,59.609 C383.629,59.609 383.629,59.609 382.54,59.233 C381.866,59 381.866,59 381.866,59 C380.98,59.324 379.552,59.419 378.692,59.211 C378.692,59.211 378.692,59.211 377.914,59.198 C374.793,59.144 373.119,59.149 373.119,59.149 C370.606,59.155 367.626,59.285 366.495,59.437 C366.495,59.437 366.495,59.437 365.524,58.744 C364.991,58.363 364.389,59.284 363.593,58.789 C363.128,58.501 363.128,58.501 363.128,58.501 C362.256,58.871 360.443,59.365 359.098,59.598 C359.098,59.598 359.098,59.598 358.046,58.811 C357.353,58.293 356.865,59.415 356.104,58.834 C355.667,58.5 354.791,58.77 354.118,58.709 C353.262,58.631 353.262,58.631 353.262,58.631 C352.258,58.484 351.39,58.406 351.332,58.459 C351.275,58.512 350.444,58.624 349.688,58.522 C348.932,58.42 346.957,57.443 346.723,57.745 C346.723,57.745 346.723,57.745 346.492,57.782 C343.964,58.187 336.13,58.564 333.674,58.211 C332.477,58.039 332.477,58.039 332.477,58.039 C331.236,57.583 330.115,57.307 329.986,57.426 C329.857,57.546 328.791,57.768 327.728,57.815 C326.666,57.863 323.963,57.058 323.94,57.16 C323.917,57.262 323.714,57.717 323.604,57.658 C323.495,57.598 323.067,57.497 322.923,57.58 C322.78,57.663 322.246,57.799 322.185,57.623 C322.123,57.446 321.527,56.965 321.003,56.965 C320.479,56.965 318.968,57.064 318.926,57.187 C318.884,57.309 317.884,57.924 316.884,58.035 C315.883,58.145 313.173,57.407 313.042,57.492 C312.912,57.576 312.355,57.694 312.093,57.568 C311.831,57.442 309.107,57.224 306.601,57.048 L300.825,57.248 C298.321,57.045 295.312,56.905 294.138,56.936 C294.138,56.936 294.138,56.936 293.076,56.875 C290.324,56.717 289.33,56.645 289.33,56.645 C286.824,56.465 284.621,56.238 284.434,56.142 C284.247,56.046 283.782,55.664 283.894,55.547 C284.006,55.429 285.148,54.954 286.091,54.85 C286.091,54.85 286.091,54.85 286.704,55.221 C287.358,55.617 287.358,55.617 287.358,55.617 C287.987,55.561 289.7,55.646 291.165,55.807 C291.165,55.807 291.165,55.807 292.489,55.215 C293.061,54.959 293.81,55.078 294.479,55.063 C295.386,55.043 295.386,55.043 295.386,55.043 C296.412,55.052 297.277,55.156 297.31,55.276 C297.342,55.395 297.741,55.934 298.069,56.008 C298.069,56.008 298.069,56.008 298.398,55.957 C299.028,55.858 299.643,55.661 300.267,55.517 C300.824,55.389 301.273,56.12 301.993,55.583 C302.32,55.339 303.277,55.679 303.79,56.004 C304.699,56.578 305.65,56.336 306.587,56.444 C307.396,56.538 307.396,56.538 307.396,56.538 C308.265,56.445 309.379,56.385 309.872,56.405 C310.364,56.426 312.92,55.39 314.881,55.229 C314.881,55.229 314.881,55.229 316.675,55.794 C317.924,56.187 317.924,56.187 317.924,56.187 C319.436,55.858 321.099,55.76 321.62,55.969 C321.62,55.969 321.62,55.969 322.164,55.953 C329.418,55.743 339.337,56.217 339.337,56.217 C341.846,56.336 344.174,56.426 344.509,56.415 C344.509,56.415 344.509,56.415 344.813,56.435 C347.034,56.583 349.255,56.728 351.473,56.907 C351.652,56.922 351.652,56.922 351.652,56.922 C351.808,57.127 352.16,57.139 352.435,56.947 C352.435,56.947 352.435,56.947 352.698,56.911 C352.964,56.876 353.325,56.927 353.52,57.089 C354.572,57.965 355.449,56.789 356.428,56.885 C357.315,56.973 358.112,57.859 359.116,57.105 C359.421,56.876 360.064,56.758 360.37,56.924 C361.723,57.661 363.151,57.259 364.539,57.338 C367.748,57.521 369.605,57.608 369.605,57.608 C372.115,57.726 374.79,57.909 375.551,58.015 C375.551,58.015 375.551,58.015 376.315,57.868 C377.033,57.729 377.846,58.173 378.628,58.245 C379.458,58.322 380.301,58.262 381.138,58.263 C381.976,58.263 382.816,58.22 383.649,58.279 C384.132,58.314 384.132,58.314 384.132,58.314" id="Fill-36"></path>
                <path d="M62.054,5.786 C61.573,5.895 61.271,5.894 61.382,5.783 C61.493,5.671 62.975,5.192 64.283,5.111 C64.283,5.111 64.283,5.111 65.469,4.49 C65.949,4.239 66.641,4.42 67.222,4.323 C67.777,4.23 68.319,4.047 68.859,3.876 C71.192,3.14 73.594,3.52 75.966,3.414 C76.667,3.382 76.667,3.382 76.667,3.382 C77.506,3.243 78.72,3.275 79.366,3.453 C79.366,3.453 79.366,3.453 79.834,3.226 C80.282,3.007 80.72,2.877 81.09,2.995 C81.98,3.28 82.811,3.77 83.699,2.983 C83.815,2.881 84.244,2.913 84.33,3.029 C85.172,4.172 86.245,2.98 87.256,3.319 C88.025,3.576 88.025,3.576 88.025,3.576 C89.217,3.02 90.41,2.686 90.676,2.834 C90.942,2.981 92.213,3.279 92.807,3.111 C93.402,2.943 95.353,3.307 95.514,3.212 C95.674,3.118 96.231,3.011 96.394,3.186 C96.557,3.361 97.444,3.751 97.962,3.621 C98.48,3.49 99.881,3.034 99.972,3.118 C100.064,3.203 100.95,3.591 101.628,3.691 C102.306,3.792 104.363,3.577 104.167,3.879 C103.971,4.181 102.191,4.79 100.502,4.783 C100.502,4.783 100.502,4.783 98.988,4.8 C97.998,4.811 97.998,4.811 97.998,4.811 C96.921,4.979 95.119,5.054 93.993,4.976 C93.993,4.976 93.993,4.976 92.983,4.79 C92.282,4.661 91.595,4.427 90.89,4.355 C90.138,4.278 89.366,4.281 88.614,4.356 C88.059,4.412 87.53,4.698 86.974,4.778 C86.453,4.853 85.908,4.838 85.382,4.78 C84.978,4.736 84.978,4.736 84.978,4.736 C84.475,4.557 83.639,4.562 83.12,4.747 C83.12,4.747 83.12,4.747 82.566,4.775 C81.353,4.836 80.135,4.794 78.919,4.794 C78.159,4.793 77.225,4.516 76.68,4.859 C75.886,5.359 75.415,4.547 74.73,4.769 C72.34,5.546 69.852,5.161 67.403,5.268 C66.777,5.296 66.168,5.608 65.538,5.691 C64.893,5.776 64.893,5.776 64.893,5.776 C64.224,5.989 62.534,5.677 62.054,5.786" id="Fill-37"></path>
                <path d="M129.619,5.379 C129.756,5.639 129.491,5.777 129.029,5.686 C128.567,5.595 126.368,5.264 125.156,5.151 C123.944,5.037 120.826,6.14 120.722,6.044 C120.618,5.949 120.304,5.798 120.211,5.881 C120.117,5.964 119.025,5.901 117.995,5.552 C117.995,5.552 117.995,5.552 117.054,5.263 C116.846,5.199 116.539,5.162 116.383,5.268 C114.995,6.206 114.995,6.206 114.995,6.206 C113.384,5.978 112.036,5.657 112,5.493 C111.964,5.328 111.075,4.785 110.129,4.771 C110.129,4.771 110.129,4.771 109.242,4.803 C108.392,4.835 108.392,4.835 108.392,4.835 C107.625,4.192 108.234,3.515 109.746,3.331 C109.746,3.331 109.746,3.331 110.961,3.592 C111.45,3.697 112.102,4.032 112.404,3.837 C113.317,3.246 113.317,3.246 113.317,3.246 C114.358,3.332 116.059,3.823 117.095,4.337 C117.095,4.337 117.095,4.337 118.236,4.397 C119.04,4.44 119.734,5.011 120.689,4.566 C121.441,4.215 122.401,4.317 123.264,4.188 C123.379,4.17 123.379,4.17 123.379,4.17 C123.515,3.97 123.754,4.003 123.91,4.245 C124.065,4.486 124.884,4.875 125.397,4.591 C125.909,4.307 127.935,3.472 128.384,3.576 C128.833,3.681 130.177,4.113 129.973,4.212 C129.769,4.311 129.482,5.119 129.619,5.379" id="Fill-38"></path>
                <path d="M608.965,11.035 C606.687,10.824 604.824,10.564 604.824,10.456 C604.824,10.348 605.096,9.928 605.428,9.893 C605.761,9.858 606.647,9.626 606.373,9.486 C606.1,9.345 604.911,9.276 604.211,9.578 C604.211,9.578 604.211,9.578 603.696,9.357 C602.392,8.797 601.191,8.7 599.94,9.394 C599.824,9.459 599.64,9.403 599.488,9.403 C597.973,9.403 597.973,9.403 597.973,9.403 C596.37,9.402 594.938,9.295 594.79,9.165 C594.643,9.034 594.401,8.627 594.526,8.502 C594.651,8.377 595.872,8.053 596.943,8.079 C596.943,8.079 596.943,8.079 597.924,8.017 C598.633,7.972 598.633,7.972 598.633,7.972 C599.41,7.766 600.192,7.567 600.37,7.53 C600.548,7.493 601.66,7.643 602.562,7.703 C603.464,7.763 606.548,8.5 607.422,8.61 C608.295,8.719 610.665,9.27 610.478,9.326 C610.291,9.383 609.835,9.591 609.882,9.665 C609.928,9.738 609.883,9.851 609.678,9.753 C609.473,9.655 608.759,9.454 608.596,9.548 C608.434,9.642 607.867,9.84 607.737,9.756 C607.608,9.672 607.197,9.519 607.168,9.638 C607.14,9.758 608.29,10.274 609.792,10.502 C611.293,10.73 614.117,11.55 612.661,11.808 C612.661,11.808 612.661,11.808 611.737,11.525 C611.469,11.442 611.216,11.269 610.945,11.241 C608.965,11.035 608.965,11.035 608.965,11.035" id="Fill-39"></path>
                <path d="M258.946,1.509 C258.945,1.565 258.275,1.617 257.456,1.626 C257.456,1.626 257.456,1.626 256.713,1.605 C256.078,1.587 256.078,1.587 256.078,1.587 C255.381,1.6 252.758,1.71 250.248,1.832 C250.248,1.832 249.913,1.848 247.477,2.095 C246.492,2.195 246.492,2.195 246.492,2.195 C245.379,2.301 244.461,2.3 244.452,2.193 C244.443,2.086 244.549,1.721 244.708,1.618 C244.708,1.618 244.708,1.618 244.836,1.617 C246.128,1.604 247.484,1.864 248.7,1.56 C251.98,0.74 255.279,1.378 258.559,1.161 C258.685,1.153 258.685,1.153 258.685,1.153 C258.831,1.238 258.947,1.454 258.946,1.509" id="Fill-40"></path>
                <path d="M411.97,2.562 C411.622,2.75 410.32,2.662 409.075,2.368 C409.075,2.368 409.075,2.368 407.996,2.771 C407.238,3.055 406.473,3.136 405.861,2.886 C405.282,2.65 404.918,2.383 404.261,2.722 C403.913,2.902 403.913,2.902 403.913,2.902 C403.373,2.954 402.732,2.902 402.49,2.786 C402.247,2.671 401.628,2.3 401.669,2.225 C401.71,2.151 403.873,2.088 406.385,2.085 L412.914,2.246 C415.426,2.318 417.221,2.444 416.904,2.526 C416.904,2.526 416.904,2.526 416.614,2.529 C415.175,2.545 413.735,2.514 412.296,2.553 C411.97,2.562 411.97,2.562 411.97,2.562" id="Fill-41"></path>
                <path d="M570.309,48.663 C569.736,48.668 569.589,48.673 569.982,48.673 C570.375,48.673 571.4,48.545 571.441,48.389 C571.481,48.234 571.896,47.863 572.287,47.863 C572.678,47.863 573.743,47.959 573.642,48.076 C573.54,48.192 573.701,48.555 574.276,48.563 C574.851,48.571 576.556,48.64 576.428,48.471 C576.299,48.302 576.151,47.823 576.405,47.81 C576.658,47.796 577.346,47.946 577.346,48.175 C577.346,48.404 577.247,49.032 577.125,49.116 C577.125,49.116 577.125,49.116 576.994,49.136 C575.398,49.385 575.398,49.385 575.398,49.385 C573.627,49.489 570.882,48.657 570.309,48.663" id="Fill-42"></path>
                <path d="M623.15,17.329 C624.424,17.567 625.373,17.855 625.259,17.969 C625.144,18.083 623.748,18.452 622.411,18.533 C621.073,18.614 617.772,17.324 617.964,17.228 C618.156,17.132 619.674,16.943 620.892,17.031 C620.892,17.031 620.892,17.031 622.018,17.18 C623.15,17.329 623.15,17.329 623.15,17.329" id="Fill-43"></path>
                <path d="M393.696,2.316 C393.69,2.382 391.631,2.499 389.12,2.577 C389.12,2.577 387.685,2.622 384.685,2.731 C384.567,2.735 384.567,2.735 384.567,2.735 C384.441,2.876 384.042,2.89 383.679,2.767 C383.316,2.645 382.583,2.206 382.931,2.089 C383.28,1.972 385.633,1.799 387.368,1.969 C387.368,1.969 387.368,1.969 388.982,2.058 C390.555,2.145 390.555,2.145 390.555,2.145 C392.293,2.108 393.701,2.251 393.696,2.316" id="Fill-44"></path>
                <path d="M341.006,2.107 C339.944,2.262 339.056,2.328 339.032,2.254 C339.009,2.18 339.041,1.817 339.164,1.635 C339.164,1.635 339.164,1.635 339.262,1.63 C339.869,1.603 340.477,1.617 341.085,1.617 C342.073,1.617 343.089,1.472 344.04,1.659 C344.941,1.836 344.941,1.836 344.941,1.836 C345.85,1.664 346.882,1.304 347.234,1.036 C347.234,1.036 347.234,1.036 347.715,1.416 C348.018,1.656 348.018,1.656 348.018,1.656 C348.75,1.763 348.912,1.948 348.378,2.065 C348.378,2.065 348.378,2.065 348.084,2.067 C346.033,2.08 343.981,2.043 341.931,2.087 C341.006,2.107 341.006,2.107 341.006,2.107" id="Fill-45"></path>
                <path d="M137.054,5.016 C137.057,4.932 137.888,4.506 138.902,4.068 C139.915,3.63 142.788,4.212 142.709,4.401 C142.631,4.591 140.75,5.251 138.832,5.134 C138.832,5.134 138.832,5.134 137.059,5.016 C137.054,5.016 137.054,5.016 137.054,5.016" id="Fill-46"></path>
                <path d="M358.618,1.654 C359.42,1.722 359.843,1.901 359.558,2.05 C359.272,2.2 358.436,2.508 358.311,2.414 C358.186,2.321 356.995,1.858 356.084,1.702 C355.173,1.546 352.741,2.391 352.719,2.27 C352.698,2.149 352.819,1.763 353.033,1.654 C353.247,1.546 354.079,1.401 354.52,1.516 C354.962,1.63 357.815,1.585 358.618,1.654" id="Fill-47"></path>
                <path d="M293.644,0.78 C294.369,0.78 295.048,0.866 295.153,0.971 C295.258,1.076 295.432,1.524 295.306,1.732 C295.306,1.732 295.306,1.732 295.143,1.787 C294.743,1.924 294.189,2.192 293.922,2.032 C292.964,1.46 292.964,1.46 292.964,1.46 C291.726,2.006 290.843,2.247 291.001,1.995 C291.159,1.743 291.348,1.284 291.279,1.198 C291.209,1.113 292.918,0.779 293.644,0.78" id="Fill-48"></path>
                <path d="M536.251,53.248 C537.255,53.328 538.077,53.485 538.077,53.596 C538.077,53.708 537.207,54.084 536.143,54.084 C535.079,54.084 535.247,53.167 536.251,53.248" id="Fill-49"></path>
                <path d="M398.225,59.772 C397.305,59.851 396.553,59.761 396.553,59.571 C396.553,59.381 397.294,58.926 398.2,58.983 C399.105,59.041 400.95,59.427 399.844,59.521 C399.844,59.521 399.844,59.521 399.04,59.646 C398.225,59.772 398.225,59.772 398.225,59.772" id="Fill-50"></path>
                <path d="M571.028,52.339 C570.039,52.339 569.43,52.178 569.674,51.981 C569.918,51.784 570.611,51.412 570.77,51.513 C570.93,51.613 571.684,51.667 572.382,51.59 C573.08,51.514 574.872,51.48 574.993,51.664 C575.113,51.849 574.324,52.339 572.969,52.339 C572.969,52.339 572.969,52.339 571.695,52.339 C571.028,52.339 571.028,52.339 571.028,52.339" id="Fill-51"></path>
                <path d="M49.732,64.481 C47.183,64.261 44.722,65.575 42.092,64.97 C44.636,64.112 45.85,64.008 49.732,64.481" id="Fill-52"></path>
                <path d="M404.373,60.011 C403.9,60.011 403.423,59.92 403.312,59.81 C403.202,59.699 403.011,59.327 403.118,59.212 C403.226,59.098 404.051,58.601 404.604,58.478 C405.158,58.355 406.492,59.506 406.34,59.539 C406.188,59.573 405.817,59.716 405.867,59.78 C405.917,59.844 404.845,60.011 404.373,60.011" id="Fill-53"></path>
                <path d="M331.571,1.896 C329.562,1.856 327.534,2.6 325.609,1.338 C327.761,0.674 329.659,1.891 331.571,1.896" id="Fill-54"></path>
                <path d="M553.576,53.505 C553.577,53.575 552.646,53.632 551.507,53.632 C550.369,53.632 547.495,53.306 548.159,52.908 C548.159,52.908 548.159,52.908 548.63,52.823 C549.184,52.723 549.726,53.012 550.266,53.166 C551.294,53.459 551.294,53.459 551.294,53.459 C552.548,53.345 553.576,53.435 553.576,53.505" id="Fill-55"></path>
                <path d="M572.554,50.786 C571.454,50.906 570.555,50.875 570.555,50.718 C570.555,50.56 571.44,50.169 572.522,50.169 C573.605,50.169 576.46,50.197 576.462,50.232 C576.464,50.267 573.653,50.666 572.554,50.786" id="Fill-56"></path>
                <path d="M132.98,4.374 C133.645,4.147 134.354,4.083 134.556,4.231 C134.757,4.378 135.217,5.008 135.044,5.238 C135.044,5.238 135.044,5.238 134.946,5.241 C134.193,5.266 133.438,5.255 132.683,5.255 C132.306,5.255 131.92,5.207 131.554,5.27 C131.271,5.318 131.271,5.318 131.271,5.318 C130.956,5.502 130.692,5.554 130.685,5.435 C130.677,5.315 132.315,4.601 132.98,4.374" id="Fill-57"></path>
                <path d="M431.616,2.334 C431.617,2.403 430.477,2.46 429.083,2.46 C427.689,2.46 425.148,2.315 426.536,2.137 C426.536,2.137 426.536,2.137 427.801,2.091 C429.069,2.044 429.069,2.044 429.069,2.044 C430.467,2.064 431.614,2.264 431.616,2.334" id="Fill-58"></path>
                <path d="M548.278,32.446 C547.392,32.511 546.854,32.467 547.083,32.348 C547.312,32.228 548.355,32.189 548.874,32.535 C548.874,32.535 548.874,32.535 549.583,32.032 C549.996,31.74 549.996,31.74 549.996,31.74 C550.719,31.726 551.31,31.915 551.31,32.16 C551.31,32.406 549.165,32.381 548.278,32.446" id="Fill-59"></path>
                <path d="M304.557,1.58 C304.517,1.633 304.346,1.616 304.178,1.542 C304.01,1.468 303.032,1.179 302.429,1.088 C301.827,0.997 300.722,0.754 301.401,0.716 C301.401,0.716 301.401,0.716 302.02,0.703 C302.699,0.689 302.699,0.689 302.699,0.689 C303.424,0.695 304.123,0.806 304.253,0.935 C304.382,1.064 304.597,1.526 304.557,1.58" id="Fill-60"></path>
                <path d="M274.283,1.82 C273.988,2.11 273.595,2.268 273.41,2.171 C273.224,2.073 272.688,1.602 272.806,1.432 C272.924,1.261 273.579,0.777 273.97,0.777 C274.361,0.777 274.578,1.531 274.283,1.82" id="Fill-61"></path>
                <path d="M196.197,2.896 C195.749,2.896 195.484,2.705 195.609,2.471 C195.733,2.237 196.275,1.668 196.566,1.668 C196.857,1.668 197.762,1.839 197.775,2.047 C197.788,2.256 196.645,2.896 196.197,2.896" id="Fill-62"></path>
                <path d="M277.027,1.785 C276.267,2.039 275.777,1.999 275.937,1.696 C276.096,1.392 276.889,0.768 277.456,0.769 C278.023,0.769 279.498,0.795 279.505,0.827 C279.513,0.859 277.786,1.53 277.027,1.785" id="Fill-63"></path>
                <path d="M148.961,4.736 C148.218,4.64 148.069,4.505 148.63,4.436 C149.191,4.367 150.374,3.452 150.647,3.725 C150.919,3.998 149.705,4.832 148.961,4.736" id="Fill-64"></path>
                <path d="M560.024,50.927 C560.379,51.171 560.102,51.371 559.408,51.371 C558.714,51.371 557.443,51.081 557.952,50.727 C558.462,50.372 559.669,50.682 560.024,50.927" id="Fill-65"></path>
            </g>
        </g>
    </g>
</svg>