<?xml version="1.0" encoding="UTF-8" standalone="no"?>
<!DOCTYPE svg PUBLIC "-//W3C//DTD SVG 1.1//EN" "http://www.w3.org/Graphics/SVG/1.1/DTD/svg11.dtd">
<svg width="100%" height="100%" viewBox="0 0 1500 1200" version="1.1" xmlns="http://www.w3.org/2000/svg" xmlns:xlink="http://www.w3.org/1999/xlink" xml:space="preserve" xmlns:serif="http://www.serif.com/" style="fill-rule:evenodd;clip-rule:evenodd;stroke-linejoin:round;stroke-miterlimit:1.41421;">
    <g id="Group" transform="matrix(1,0,0,1,134.5,145)">
        <g id="F" transform="matrix(1.39784,0,0,1.41686,-39.9952,340.08)">
            <path d="M20.7,0L50.6,0L50.6,-69L108.56,-69L108.56,-96.6L50.6,-96.6L50.6,-133.4L122.59,-133.4L122.59,-161L20.7,-161L20.7,0Z" style="fill:rgb(249,249,250);fill-rule:nonzero;"/>
        </g>
        <g id="Q" transform="matrix(1.28701,0,0,1.3668,970.755,990.389)">
            <path d="M162.84,-80.5C162.84,-116.38 146.97,-142.83 124.66,-154.1C113.39,-159.85 100.97,-162.84 86.94,-162.84C59.11,-162.84 36.11,-152.03 21.62,-126.5C14.49,-113.85 11.04,-98.44 11.04,-80.5C11.04,-62.56 14.49,-47.15 21.62,-34.5C36.11,-8.97 59.11,1.84 86.94,1.84C104.65,1.84 119.83,-2.76 132.48,-11.96L146.51,1.84L167.44,-18.86L152.03,-34.04C159.16,-46.69 162.84,-62.33 162.84,-80.5ZM111.55,-32.66C104.42,-28.06 96.14,-25.76 86.94,-25.76C73.83,-25.76 63.02,-30.36 54.28,-39.56C45.77,-48.76 41.4,-62.33 41.4,-80.5C41.4,-98.67 45.77,-112.24 54.28,-121.44C63.02,-130.64 73.83,-135.24 86.94,-135.24C100.05,-135.24 110.86,-130.64 119.37,-121.44C128.11,-112.24 132.48,-98.67 132.48,-80.5C132.48,-71.3 131.33,-63.48 129.03,-56.81L111.55,-74.52L90.62,-53.82L111.55,-32.66Z" style="fill:rgb(249,249,250);fill-rule:nonzero;"/>
        </g>
        <g id="A" transform="matrix(1.4187,0,0,1.2466,1094.68,225.219)">
            <path d="M140.07,0L85.56,-161L55.66,-161L1.15,0L33.35,0L45.08,-37.95L96.14,-37.95L107.87,0L140.07,0ZM87.63,-65.55L53.59,-65.55L70.61,-121.44L87.63,-65.55Z" style="fill:rgb(249,249,250);fill-rule:nonzero;"/>
        </g>
    </g>
</svg>
